{"glyphs":{"0":{"ha":854,"x_min":115,"x_max":739,"o":"m 428 -19 q 657 63 575 -19 q 739 289 739 146 l 739 697 q 657 923 739 840 q 428 1006 575 1006 q 198 923 281 1006 q 115 697 115 840 l 115 289 q 198 63 115 146 q 428 -19 281 -19 m 428 0 q 213 76 289 0 q 136 289 136 153 l 136 697 q 213 909 136 832 q 428 986 289 986 q 642 909 567 986 q 718 697 718 832 l 718 289 q 642 76 718 153 q 428 0 567 0 "},"1":{"ha":529,"x_min":69,"x_max":365,"o":"m 351 0 l 360 0 q 365 6 365 0 l 365 981 q 360 986 365 986 l 353 986 q 344 983 350 986 l 75 829 q 74 822 69 826 l 79 814 q 86 813 82 810 l 344 961 l 344 6 q 351 0 344 0 "},"2":{"ha":803,"x_min":104,"x_max":697,"o":"m 111 0 l 692 0 q 697 6 697 0 l 697 14 q 692 19 697 19 l 124 19 l 124 119 q 159 256 124 201 q 249 345 194 311 q 389 414 304 379 l 447 438 q 582 498 532 469 q 665 581 632 526 q 697 722 697 635 q 663 870 697 806 q 568 970 629 935 q 426 1006 507 1006 q 227 953 304 1006 q 106 788 150 900 q 108 781 104 783 l 118 778 q 125 781 122 775 q 239 936 167 886 q 426 986 311 986 q 609 914 540 986 q 678 722 678 842 q 647 590 678 640 q 567 513 615 540 q 438 454 519 486 l 382 432 q 235 360 293 396 q 141 265 178 324 q 104 119 104 206 l 104 7 q 111 0 104 0 "},"3":{"ha":808,"x_min":100,"x_max":707,"o":"m 417 -19 q 635 54 564 -19 q 707 263 707 128 q 666 420 707 354 q 549 511 625 486 q 649 595 615 533 q 682 735 682 657 q 615 935 682 865 q 418 1006 549 1006 q 210 945 281 1006 q 110 761 140 885 q 114 753 108 754 l 121 751 q 129 754 128 749 q 225 932 160 878 q 418 986 290 986 q 601 922 539 986 q 663 735 663 857 q 617 581 663 643 q 476 519 571 519 l 238 519 q 232 514 232 519 l 232 506 q 238 500 232 500 l 478 500 q 632 433 576 500 q 688 263 688 367 q 621 69 688 138 q 417 0 554 0 q 215 58 283 0 q 121 239 147 117 q 113 243 119 244 l 106 242 q 101 233 100 240 q 204 42 133 104 q 417 -19 275 -19 "},"4":{"ha":813,"x_min":65,"x_max":743,"o":"m 571 0 l 581 0 q 586 6 586 0 l 586 311 l 738 311 q 743 317 743 311 l 743 325 q 738 331 743 331 l 586 331 l 586 999 q 579 1006 586 1006 l 568 1006 q 560 1001 564 1006 l 67 331 q 65 322 65 328 l 65 317 q 71 311 65 311 l 565 311 l 565 6 q 571 0 565 0 m 565 331 l 90 331 l 565 974 l 565 331 "},"5":{"ha":794,"x_min":90,"x_max":703,"o":"m 408 -19 q 565 22 497 -19 q 667 131 632 63 q 703 282 703 200 q 631 488 703 407 q 418 569 558 569 l 151 569 l 189 967 l 665 967 q 671 972 671 967 l 671 981 q 665 986 671 986 l 185 986 q 174 983 176 986 q 169 971 171 981 l 131 561 q 140 550 129 550 l 419 550 q 615 474 549 550 q 682 282 682 399 q 649 141 682 206 q 553 38 615 76 q 408 0 492 0 q 111 200 174 0 q 103 204 110 207 l 93 200 q 92 193 90 199 q 203 34 126 88 q 408 -19 281 -19 "},"6":{"ha":840,"x_min":114,"x_max":742,"o":"m 428 -19 q 658 56 575 -19 q 742 265 742 131 q 668 480 742 410 q 439 550 594 550 q 255 528 335 550 q 135 488 175 507 l 135 667 q 209 905 133 824 q 428 986 285 986 q 607 938 539 986 q 710 794 675 890 q 717 790 711 789 l 725 793 q 729 800 731 794 q 619 954 693 903 q 428 1006 546 1006 q 194 920 274 1006 q 114 667 114 835 l 114 319 q 194 70 114 160 q 428 -19 275 -19 m 428 0 q 210 84 286 0 q 135 319 135 168 l 135 465 q 251 508 171 485 q 439 531 332 531 q 652 465 583 531 q 721 265 721 400 q 644 69 721 139 q 428 0 567 0 "},"7":{"ha":689,"x_min":68,"x_max":649,"o":"m 236 0 l 246 0 q 253 1 250 0 q 257 6 256 1 l 647 967 l 649 975 l 649 981 q 643 986 649 986 l 74 986 q 68 981 68 986 l 68 972 q 74 967 68 967 l 626 967 l 233 6 q 236 0 231 0 "},"8":{"ha":835,"x_min":101,"x_max":733,"o":"m 417 -19 q 657 47 581 -19 q 733 229 733 114 q 699 363 733 311 q 613 443 665 414 q 479 497 560 472 q 638 580 565 518 q 710 768 710 642 q 635 945 710 885 q 417 1006 561 1006 q 203 944 279 1006 q 126 768 126 883 q 188 603 126 658 q 361 511 249 547 q 183 422 265 488 q 101 221 101 356 q 177 44 101 107 q 417 -19 253 -19 m 439 508 l 431 511 q 276 568 329 544 q 185 640 224 592 q 147 768 147 688 q 218 930 147 874 q 417 986 289 986 q 619 931 550 986 q 689 768 689 875 q 603 576 689 631 q 439 508 517 521 m 417 0 q 122 221 122 0 q 219 426 122 365 q 400 500 317 486 l 431 490 q 586 433 531 460 q 677 358 642 407 q 713 229 713 310 q 642 61 713 122 q 417 0 571 0 "},"9":{"ha":840,"x_min":99,"x_max":726,"o":"m 413 -19 q 647 64 568 -19 q 726 315 726 147 l 726 667 q 646 916 726 826 q 413 1006 565 1006 q 182 931 265 1006 q 99 721 99 856 q 172 506 99 576 q 401 436 246 436 q 585 458 506 436 q 706 499 665 479 l 706 315 q 631 79 706 158 q 413 0 557 0 q 235 48 303 0 q 132 192 167 96 q 124 196 129 199 l 115 193 q 111 186 110 192 q 221 32 147 83 q 413 -19 294 -19 m 401 456 q 188 519 257 456 q 119 721 119 583 q 197 917 119 847 q 413 986 274 986 q 631 903 556 986 q 706 667 706 819 l 706 521 q 589 478 669 501 q 401 456 508 456 "}," ":{"ha":353,"x_min":0,"x_max":0,"o":""},"A":{"ha":861,"x_min":42,"x_max":819,"o":"m 50 0 l 56 0 q 67 6 65 0 l 201 363 l 660 363 l 794 6 q 806 0 796 0 l 811 0 q 817 6 819 0 l 444 988 q 435 994 442 994 l 426 994 q 417 988 419 994 l 44 6 q 50 0 42 0 m 651 382 l 210 382 l 425 953 l 429 969 l 431 969 q 434 958 432 963 q 436 953 436 954 l 651 382 "},"Á":{"ha":861,"x_min":42,"x_max":819,"o":"m 50 0 l 56 0 q 67 6 65 0 l 201 363 l 660 363 l 794 6 q 806 0 796 0 l 811 0 q 817 6 819 0 l 444 988 q 435 994 442 994 l 426 994 q 417 988 419 994 l 44 6 q 50 0 42 0 m 651 382 l 210 382 l 425 953 l 429 969 l 431 969 q 434 958 432 963 q 436 953 436 954 l 651 382 m 342 1060 l 535 1217 q 536 1226 542 1221 l 531 1231 q 519 1231 524 1235 l 331 1075 q 328 1064 322 1069 l 332 1060 q 342 1060 336 1056 "},"Ă":{"ha":861,"x_min":42,"x_max":819,"o":"m 50 0 l 56 0 q 67 6 65 0 l 201 363 l 660 363 l 794 6 q 806 0 796 0 l 811 0 q 817 6 819 0 l 444 988 q 435 994 442 994 l 426 994 q 417 988 419 994 l 44 6 q 50 0 42 0 m 651 382 l 210 382 l 425 953 l 429 969 l 431 969 q 434 958 432 963 q 436 953 436 954 l 651 382 m 431 1061 q 541 1099 501 1061 q 608 1221 581 1136 q 606 1228 611 1228 l 596 1229 q 590 1225 592 1229 q 529 1113 564 1146 q 431 1081 494 1081 q 331 1115 367 1081 q 271 1225 296 1149 q 264 1229 269 1231 l 256 1228 q 253 1221 250 1228 q 320 1099 281 1136 q 431 1061 360 1061 "},"Â":{"ha":861,"x_min":42,"x_max":819,"o":"m 50 0 l 56 0 q 67 6 65 0 l 201 363 l 660 363 l 794 6 q 806 0 796 0 l 811 0 q 817 6 819 0 l 444 988 q 435 994 442 994 l 426 994 q 417 988 419 994 l 44 6 q 50 0 42 0 m 651 382 l 210 382 l 425 953 l 429 969 l 431 969 q 434 958 432 963 q 436 953 436 954 l 651 382 m 247 1056 l 260 1056 q 269 1060 265 1056 l 431 1214 l 589 1060 q 600 1056 593 1056 l 611 1056 q 615 1061 621 1056 l 446 1225 q 438 1231 442 1229 q 431 1232 435 1232 l 429 1232 q 422 1231 425 1232 q 414 1225 418 1229 l 243 1061 q 247 1056 238 1056 "},"Ä":{"ha":861,"x_min":42,"x_max":819,"o":"m 50 0 l 56 0 q 67 6 65 0 l 201 363 l 660 363 l 794 6 q 806 0 796 0 l 811 0 q 817 6 819 0 l 444 988 q 435 994 442 994 l 426 994 q 417 988 419 994 l 44 6 q 50 0 42 0 m 651 382 l 210 382 l 425 953 l 429 969 l 431 969 q 434 958 432 963 q 436 953 436 954 l 651 382 m 310 1126 l 318 1126 q 331 1129 328 1126 q 333 1142 333 1132 l 333 1150 q 331 1162 333 1158 q 318 1165 328 1165 l 310 1165 q 294 1150 294 1165 l 294 1142 q 298 1129 294 1132 q 310 1126 301 1126 m 543 1126 l 550 1126 q 563 1130 558 1126 q 567 1142 567 1133 l 567 1150 q 550 1165 567 1165 l 543 1165 q 530 1162 533 1165 q 526 1150 526 1158 l 526 1142 q 530 1129 526 1132 q 543 1126 533 1126 "},"À":{"ha":861,"x_min":42,"x_max":819,"o":"m 50 0 l 56 0 q 67 6 65 0 l 201 363 l 660 363 l 794 6 q 806 0 796 0 l 811 0 q 817 6 819 0 l 444 988 q 435 994 442 994 l 426 994 q 417 988 419 994 l 44 6 q 50 0 42 0 m 651 382 l 210 382 l 425 953 l 429 969 l 431 969 q 434 958 432 963 q 436 953 436 954 l 651 382 m 322 1215 l 515 1058 q 525 1058 519 1054 l 529 1063 q 526 1074 535 1068 l 338 1229 q 326 1229 332 1235 l 321 1225 q 322 1215 315 1219 "},"Ā":{"ha":861,"x_min":42,"x_max":819,"o":"m 50 0 l 56 0 q 67 6 65 0 l 201 363 l 660 363 l 794 6 q 806 0 796 0 l 811 0 q 817 6 819 0 l 444 988 q 435 994 442 994 l 426 994 q 417 988 419 994 l 44 6 q 50 0 42 0 m 651 382 l 210 382 l 425 953 l 429 969 l 431 969 q 434 958 432 963 q 436 953 436 954 l 651 382 m 278 1131 l 583 1131 q 589 1136 589 1131 l 589 1143 q 583 1149 589 1149 l 278 1149 q 272 1143 272 1149 l 272 1136 q 278 1131 272 1131 "},"Ą":{"ha":861,"x_min":42,"x_max":836,"o":"m 735 -344 q 785 -333 763 -344 q 832 -296 808 -321 q 835 -287 836 -292 l 831 -276 q 825 -275 829 -271 q 736 -325 785 -325 q 672 -278 689 -325 q 668 -249 668 -265 q 708 -137 668 -201 q 815 0 747 -72 q 817 6 818 3 l 444 988 q 435 994 442 994 l 426 994 q 417 988 419 994 l 44 6 q 50 0 42 0 l 56 0 q 67 6 65 0 l 201 363 l 660 363 l 794 7 l 794 6 q 649 -251 649 -157 q 654 -286 649 -271 q 735 -344 675 -344 m 651 382 l 210 382 l 425 953 l 429 969 l 431 969 q 434 958 432 963 q 436 953 436 954 l 651 382 "},"Å":{"ha":861,"x_min":42,"x_max":819,"o":"m 50 0 l 56 0 q 67 6 65 0 l 201 363 l 660 363 l 794 6 q 806 0 796 0 l 811 0 q 817 6 819 0 l 449 974 q 518 1013 493 981 q 543 1094 543 1044 q 513 1183 543 1150 q 431 1217 482 1217 q 346 1183 378 1217 q 314 1094 314 1150 q 341 1013 314 1044 q 413 974 368 981 l 44 6 q 50 0 42 0 m 431 989 q 358 1018 386 989 q 331 1094 331 1047 q 358 1171 331 1142 q 431 1200 386 1200 q 500 1171 474 1200 q 526 1094 526 1142 q 500 1018 526 1047 q 431 989 474 989 m 651 382 l 210 382 l 425 953 l 429 969 l 431 969 q 434 958 432 963 q 436 953 436 954 l 651 382 "},"Ǻ":{"ha":861,"x_min":42,"x_max":819,"o":"m 349 1211 l 558 1319 q 561 1322 561 1321 q 560 1326 561 1324 l 557 1332 q 551 1336 554 1336 q 544 1333 549 1336 l 342 1226 q 337 1224 340 1226 q 336 1218 333 1222 l 340 1213 q 349 1211 344 1208 m 50 0 l 56 0 q 67 6 65 0 l 201 363 l 660 363 l 794 6 q 806 0 796 0 l 811 0 q 817 6 819 0 l 449 974 q 518 1008 493 981 q 543 1081 543 1035 q 512 1155 543 1125 q 431 1185 481 1185 q 347 1155 379 1185 q 314 1081 314 1125 q 340 1008 314 1036 q 413 974 367 981 l 44 6 q 50 0 42 0 m 431 989 q 358 1013 385 989 q 331 1081 331 1038 q 358 1143 331 1118 q 431 1168 386 1168 q 499 1143 472 1168 q 526 1081 526 1118 q 500 1013 526 1038 q 431 989 474 989 m 651 382 l 210 382 l 425 953 l 429 969 l 431 969 q 434 958 432 963 q 436 953 436 954 l 651 382 "},"Ã":{"ha":861,"x_min":42,"x_max":819,"o":"m 50 0 l 56 0 q 67 6 65 0 l 201 363 l 660 363 l 794 6 q 806 0 796 0 l 811 0 q 817 6 819 0 l 444 988 q 435 994 442 994 l 426 994 q 417 988 419 994 l 44 6 q 50 0 42 0 m 651 382 l 210 382 l 425 953 l 429 969 l 431 969 q 434 958 432 963 q 436 953 436 954 l 651 382 m 251 1081 l 260 1081 q 265 1086 265 1081 q 285 1160 265 1132 q 336 1189 304 1189 q 381 1176 363 1189 q 425 1136 400 1163 q 474 1094 453 1108 q 525 1081 496 1081 q 591 1114 568 1081 q 614 1201 614 1147 q 608 1207 614 1207 l 600 1207 q 594 1201 594 1207 q 576 1127 594 1156 q 525 1099 558 1099 q 481 1112 500 1099 q 438 1150 461 1125 q 388 1193 408 1179 q 336 1207 367 1207 q 271 1173 296 1207 q 246 1086 246 1139 q 251 1081 246 1081 "},"Æ":{"ha":1110,"x_min":18,"x_max":1024,"o":"m 26 0 l 36 0 q 46 6 42 0 l 201 281 l 585 281 l 585 6 q 590 0 585 0 l 1018 0 q 1024 6 1024 0 l 1024 14 q 1018 19 1024 19 l 607 19 l 607 489 l 943 489 q 949 494 949 489 l 949 503 q 943 508 949 508 l 607 508 l 607 967 l 999 967 q 1004 972 1004 967 l 1004 981 q 999 986 1004 986 l 586 986 q 581 985 583 986 q 576 979 579 983 l 21 6 q 26 0 18 0 m 585 300 l 214 300 l 585 956 l 585 300 "},"Ǽ":{"ha":1110,"x_min":18,"x_max":1024,"o":"m 26 0 l 36 0 q 46 6 42 0 l 201 281 l 585 281 l 585 6 q 590 0 585 0 l 1018 0 q 1024 6 1024 0 l 1024 14 q 1018 19 1024 19 l 607 19 l 607 489 l 943 489 q 949 494 949 489 l 949 503 q 943 508 949 508 l 607 508 l 607 967 l 999 967 q 1004 972 1004 967 l 1004 981 q 999 986 1004 986 l 586 986 q 581 985 583 986 q 576 979 579 983 l 21 6 q 26 0 18 0 m 585 300 l 214 300 l 585 956 l 585 300 m 701 1060 l 894 1217 q 896 1226 901 1221 l 890 1231 q 879 1231 883 1235 l 690 1075 q 688 1064 682 1069 l 692 1060 q 701 1060 696 1056 "},"B":{"ha":881,"x_min":147,"x_max":781,"o":"m 153 0 l 528 0 q 712 68 643 0 q 781 258 781 136 q 733 426 781 363 q 601 506 686 489 l 601 507 q 711 589 672 529 q 750 742 750 649 q 685 923 750 860 q 508 986 621 986 l 153 986 q 147 981 147 986 l 147 6 q 153 0 147 0 m 513 514 l 168 514 l 168 967 l 507 967 q 670 909 611 967 q 729 742 729 851 q 672 572 729 631 q 513 514 615 514 m 526 19 l 168 19 l 168 494 l 533 494 q 700 433 640 494 q 760 258 760 372 q 697 82 760 144 q 526 19 633 19 "},"C":{"ha":875,"x_min":117,"x_max":792,"o":"m 454 -19 q 678 43 603 -19 q 790 235 753 106 q 786 243 792 242 l 779 246 q 769 242 771 247 q 664 60 735 119 q 454 1 593 1 q 219 85 301 1 q 138 315 138 169 l 138 672 q 219 903 138 819 q 454 986 300 986 q 663 931 592 986 q 767 753 735 875 q 775 750 768 747 l 782 751 q 786 760 788 753 q 678 945 754 885 q 454 1006 601 1006 q 203 917 289 1006 q 117 671 117 829 l 117 317 q 204 69 117 158 q 454 -19 292 -19 "},"Ć":{"ha":875,"x_min":117,"x_max":792,"o":"m 454 -19 q 678 43 603 -19 q 790 235 753 106 q 786 243 792 242 l 779 246 q 769 242 771 247 q 664 60 735 119 q 454 1 593 1 q 219 85 301 1 q 138 315 138 169 l 138 672 q 219 903 138 819 q 454 986 300 986 q 663 931 592 986 q 767 753 735 875 q 775 750 768 747 l 782 751 q 786 760 788 753 q 678 945 754 885 q 454 1006 601 1006 q 203 917 289 1006 q 117 671 117 829 l 117 317 q 204 69 117 158 q 454 -19 292 -19 m 365 1060 l 558 1217 q 560 1226 565 1221 l 554 1231 q 543 1231 547 1235 l 354 1075 q 351 1064 346 1069 l 356 1060 q 365 1060 360 1056 "},"Č":{"ha":875,"x_min":117,"x_max":792,"o":"m 454 -19 q 678 43 603 -19 q 790 235 753 106 q 786 243 792 242 l 779 246 q 769 242 771 247 q 664 60 735 119 q 454 1 593 1 q 219 85 301 1 q 138 315 138 169 l 138 672 q 219 903 138 819 q 454 986 300 986 q 663 931 592 986 q 767 753 735 875 q 775 750 768 747 l 782 751 q 786 760 788 753 q 678 945 754 885 q 454 1006 601 1006 q 203 917 289 1006 q 117 671 117 829 l 117 317 q 204 69 117 158 q 454 -19 292 -19 m 454 1056 l 456 1056 q 465 1058 461 1056 q 469 1063 468 1061 l 642 1226 q 638 1232 647 1232 l 625 1232 q 615 1228 619 1232 l 454 1074 l 296 1228 q 285 1232 292 1232 l 274 1232 q 269 1226 264 1232 l 439 1063 q 447 1057 443 1058 q 454 1056 450 1056 "},"Ç":{"ha":875,"x_min":117,"x_max":792,"o":"m 464 -342 q 558 -311 525 -342 q 590 -219 590 -281 q 560 -147 590 -175 q 483 -119 529 -119 q 443 -126 460 -119 l 472 -19 q 683 47 611 -15 q 790 235 754 110 q 786 243 792 242 l 779 246 q 769 242 771 247 q 664 60 735 119 q 454 1 593 1 q 219 85 301 1 q 138 315 138 169 l 138 672 q 219 903 138 819 q 454 986 300 986 q 663 931 592 986 q 767 753 735 875 q 775 750 768 747 l 782 751 q 786 760 788 753 q 678 945 754 885 q 454 1006 601 1006 q 203 917 289 1006 q 117 671 117 829 l 117 317 q 204 69 117 158 q 454 -19 292 -19 l 421 -136 q 422 -144 419 -140 q 429 -147 425 -147 l 432 -147 q 479 -136 451 -136 q 545 -158 519 -136 q 571 -219 571 -181 q 463 -324 571 -324 q 367 -281 404 -324 q 363 -280 365 -279 q 361 -283 361 -281 l 361 -292 q 368 -307 361 -301 q 410 -332 389 -322 q 464 -342 431 -342 "},"Ĉ":{"ha":875,"x_min":117,"x_max":792,"o":"m 454 -19 q 678 43 603 -19 q 790 235 753 106 q 786 243 792 242 l 779 246 q 769 242 771 247 q 664 60 735 119 q 454 1 593 1 q 219 85 301 1 q 138 315 138 169 l 138 672 q 219 903 138 819 q 454 986 300 986 q 663 931 592 986 q 767 753 735 875 q 775 750 768 747 l 782 751 q 786 760 788 753 q 678 945 754 885 q 454 1006 601 1006 q 203 917 289 1006 q 117 671 117 829 l 117 317 q 204 69 117 158 q 454 -19 292 -19 m 271 1056 l 283 1056 q 293 1060 289 1056 l 454 1214 l 613 1060 q 624 1056 617 1056 l 635 1056 q 639 1061 644 1056 l 469 1225 q 462 1231 465 1229 q 454 1232 458 1232 l 453 1232 q 445 1231 449 1232 q 438 1225 442 1229 l 267 1061 q 271 1056 261 1056 "},"Ċ":{"ha":875,"x_min":117,"x_max":792,"o":"m 454 -19 q 678 43 603 -19 q 790 235 753 106 q 786 243 792 242 l 779 246 q 769 242 771 247 q 664 60 735 119 q 454 1 593 1 q 219 85 301 1 q 138 315 138 169 l 138 672 q 219 903 138 819 q 454 986 300 986 q 663 931 592 986 q 767 753 735 875 q 775 750 768 747 l 782 751 q 786 760 788 753 q 678 945 754 885 q 454 1006 601 1006 q 203 917 289 1006 q 117 671 117 829 l 117 317 q 204 69 117 158 q 454 -19 292 -19 m 451 1119 l 457 1119 q 470 1123 467 1119 q 474 1136 474 1126 l 474 1142 q 470 1155 474 1151 q 457 1158 467 1158 l 451 1158 q 438 1155 442 1158 q 435 1142 435 1151 l 435 1136 q 438 1123 435 1126 q 451 1119 442 1119 "},"D":{"ha":883,"x_min":147,"x_max":774,"o":"m 153 0 l 404 0 q 677 98 581 0 q 774 367 774 196 l 774 619 q 677 888 774 790 q 404 986 581 986 l 153 986 q 147 981 147 986 l 147 6 q 153 0 147 0 m 404 19 l 168 19 l 168 967 l 404 967 q 663 875 572 967 q 753 619 753 783 l 753 367 q 662 111 753 203 q 404 19 571 19 "},"Ð":{"ha":879,"x_min":25,"x_max":769,"o":"m 149 0 l 400 0 q 673 98 576 0 q 769 367 769 196 l 769 619 q 673 888 769 790 q 400 986 576 986 l 149 986 q 143 981 143 986 l 143 501 l 33 501 q 27 500 29 501 q 25 494 25 499 l 25 489 q 33 482 25 482 l 143 482 l 143 6 q 149 0 143 0 m 400 19 l 164 19 l 164 482 l 421 482 q 428 489 428 482 l 428 494 q 421 501 428 501 l 164 501 l 164 967 l 400 967 q 658 875 568 967 q 749 619 749 783 l 749 367 q 658 111 749 203 q 400 19 567 19 "},"Ď":{"ha":883,"x_min":147,"x_max":774,"o":"m 153 0 l 404 0 q 677 98 581 0 q 774 367 774 196 l 774 619 q 677 888 774 790 q 404 986 581 986 l 153 986 q 147 981 147 986 l 147 6 q 153 0 147 0 m 404 19 l 168 19 l 168 967 l 404 967 q 663 875 572 967 q 753 619 753 783 l 753 367 q 662 111 753 203 q 404 19 571 19 m 426 1056 l 428 1056 q 437 1058 433 1056 q 442 1063 440 1061 l 614 1226 q 610 1232 619 1232 l 597 1232 q 588 1228 592 1232 l 426 1074 l 268 1228 q 257 1232 264 1232 l 246 1232 q 242 1226 236 1232 l 411 1063 q 419 1057 415 1058 q 426 1056 422 1056 "},"Đ":{"ha":879,"x_min":25,"x_max":769,"o":"m 149 0 l 400 0 q 673 98 576 0 q 769 367 769 196 l 769 619 q 673 888 769 790 q 400 986 576 986 l 149 986 q 143 981 143 986 l 143 501 l 33 501 q 27 500 29 501 q 25 494 25 499 l 25 489 q 33 482 25 482 l 143 482 l 143 6 q 149 0 143 0 m 400 19 l 164 19 l 164 482 l 421 482 q 428 489 428 482 l 428 494 q 421 501 428 501 l 164 501 l 164 967 l 400 967 q 658 875 568 967 q 749 619 749 783 l 749 367 q 658 111 749 203 q 400 19 567 19 "},"E":{"ha":783,"x_min":147,"x_max":697,"o":"m 153 0 l 692 0 q 697 6 697 0 l 697 14 q 692 19 697 19 l 168 19 l 168 490 l 619 490 q 625 496 625 490 l 625 504 q 619 510 625 510 l 168 510 l 168 967 l 672 967 q 678 972 678 967 l 678 981 q 672 986 678 986 l 153 986 q 147 981 147 986 l 147 6 q 153 0 147 0 "},"É":{"ha":783,"x_min":147,"x_max":697,"o":"m 153 0 l 692 0 q 697 6 697 0 l 697 14 q 692 19 697 19 l 168 19 l 168 490 l 619 490 q 625 496 625 490 l 625 504 q 619 510 625 510 l 168 510 l 168 967 l 672 967 q 678 972 678 967 l 678 981 q 672 986 678 986 l 153 986 q 147 981 147 986 l 147 6 q 153 0 147 0 m 325 1060 l 518 1217 q 519 1226 525 1221 l 514 1231 q 503 1231 507 1235 l 314 1075 q 311 1064 306 1069 l 315 1060 q 325 1060 319 1056 "},"Ĕ":{"ha":783,"x_min":147,"x_max":697,"o":"m 153 0 l 692 0 q 697 6 697 0 l 697 14 q 692 19 697 19 l 168 19 l 168 490 l 619 490 q 625 496 625 490 l 625 504 q 619 510 625 510 l 168 510 l 168 967 l 672 967 q 678 972 678 967 l 678 981 q 672 986 678 986 l 153 986 q 147 981 147 986 l 147 6 q 153 0 147 0 m 414 1061 q 524 1099 485 1061 q 592 1221 564 1136 q 589 1228 594 1228 l 579 1229 q 574 1225 575 1229 q 513 1113 547 1146 q 414 1081 478 1081 q 315 1115 350 1081 q 254 1225 279 1149 q 247 1229 253 1231 l 239 1228 q 236 1221 233 1228 q 303 1099 264 1136 q 414 1061 343 1061 "},"Ě":{"ha":783,"x_min":147,"x_max":697,"o":"m 153 0 l 692 0 q 697 6 697 0 l 697 14 q 692 19 697 19 l 168 19 l 168 490 l 619 490 q 625 496 625 490 l 625 504 q 619 510 625 510 l 168 510 l 168 967 l 672 967 q 678 972 678 967 l 678 981 q 672 986 678 986 l 153 986 q 147 981 147 986 l 147 6 q 153 0 147 0 m 414 1056 l 415 1056 q 424 1058 421 1056 q 429 1063 428 1061 l 601 1226 q 597 1232 607 1232 l 585 1232 q 575 1228 579 1232 l 414 1074 l 256 1228 q 244 1232 251 1232 l 233 1232 q 229 1226 224 1232 l 399 1063 q 406 1057 403 1058 q 414 1056 410 1056 "},"Ê":{"ha":783,"x_min":147,"x_max":697,"o":"m 153 0 l 692 0 q 697 6 697 0 l 697 14 q 692 19 697 19 l 168 19 l 168 490 l 619 490 q 625 496 625 490 l 625 504 q 619 510 625 510 l 168 510 l 168 967 l 672 967 q 678 972 678 967 l 678 981 q 672 986 678 986 l 153 986 q 147 981 147 986 l 147 6 q 153 0 147 0 m 231 1056 l 243 1056 q 253 1060 249 1056 l 414 1214 l 572 1060 q 583 1056 576 1056 l 594 1056 q 599 1061 604 1056 l 429 1225 q 422 1231 425 1229 q 414 1232 418 1232 l 413 1232 q 405 1231 408 1232 q 397 1225 401 1229 l 226 1061 q 231 1056 221 1056 "},"Ë":{"ha":783,"x_min":147,"x_max":697,"o":"m 153 0 l 692 0 q 697 6 697 0 l 697 14 q 692 19 697 19 l 168 19 l 168 490 l 619 490 q 625 496 625 490 l 625 504 q 619 510 625 510 l 168 510 l 168 967 l 672 967 q 678 972 678 967 l 678 981 q 672 986 678 986 l 153 986 q 147 981 147 986 l 147 6 q 153 0 147 0 m 293 1126 l 301 1126 q 314 1129 311 1126 q 317 1142 317 1132 l 317 1150 q 314 1162 317 1158 q 301 1165 311 1165 l 293 1165 q 278 1150 278 1165 l 278 1142 q 281 1129 278 1132 q 293 1126 285 1126 m 526 1126 l 533 1126 q 546 1130 542 1126 q 550 1142 550 1133 l 550 1150 q 533 1165 550 1165 l 526 1165 q 513 1162 517 1165 q 510 1150 510 1158 l 510 1142 q 513 1129 510 1132 q 526 1126 517 1126 "},"Ė":{"ha":783,"x_min":147,"x_max":697,"o":"m 153 0 l 692 0 q 697 6 697 0 l 697 14 q 692 19 697 19 l 168 19 l 168 490 l 619 490 q 625 496 625 490 l 625 504 q 619 510 625 510 l 168 510 l 168 967 l 672 967 q 678 972 678 967 l 678 981 q 672 986 678 986 l 153 986 q 147 981 147 986 l 147 6 q 153 0 147 0 m 411 1119 l 417 1119 q 430 1123 426 1119 q 433 1136 433 1126 l 433 1142 q 430 1155 433 1151 q 417 1158 426 1158 l 411 1158 q 398 1155 401 1158 q 394 1142 394 1151 l 394 1136 q 398 1123 394 1126 q 411 1119 401 1119 "},"È":{"ha":783,"x_min":147,"x_max":697,"o":"m 153 0 l 692 0 q 697 6 697 0 l 697 14 q 692 19 697 19 l 168 19 l 168 490 l 619 490 q 625 496 625 490 l 625 504 q 619 510 625 510 l 168 510 l 168 967 l 672 967 q 678 972 678 967 l 678 981 q 672 986 678 986 l 153 986 q 147 981 147 986 l 147 6 q 153 0 147 0 m 306 1215 l 499 1058 q 508 1058 503 1054 l 513 1063 q 510 1074 518 1068 l 321 1229 q 310 1229 315 1235 l 304 1225 q 306 1215 299 1219 "},"Ē":{"ha":783,"x_min":147,"x_max":697,"o":"m 153 0 l 692 0 q 697 6 697 0 l 697 14 q 692 19 697 19 l 168 19 l 168 490 l 619 490 q 625 496 625 490 l 625 504 q 619 510 625 510 l 168 510 l 168 967 l 672 967 q 678 972 678 967 l 678 981 q 672 986 678 986 l 153 986 q 147 981 147 986 l 147 6 q 153 0 147 0 m 261 1131 l 567 1131 q 572 1136 572 1131 l 572 1143 q 567 1149 572 1149 l 261 1149 q 256 1143 256 1149 l 256 1136 q 261 1131 256 1131 "},"Ę":{"ha":783,"x_min":147,"x_max":714,"o":"m 613 -344 q 663 -333 640 -344 q 710 -296 686 -321 q 713 -287 714 -292 l 708 -276 q 703 -275 707 -271 q 614 -325 663 -325 q 550 -278 567 -325 q 546 -249 546 -264 q 586 -134 546 -200 q 694 0 626 -68 q 697 6 697 3 l 697 14 q 692 19 697 19 l 168 19 l 168 490 l 619 490 q 625 496 625 490 l 625 504 q 619 510 625 510 l 168 510 l 168 967 l 672 967 q 678 972 678 967 l 678 981 q 672 986 678 986 l 153 986 q 147 981 147 986 l 147 6 q 153 0 147 0 l 669 0 q 526 -250 526 -157 q 532 -286 526 -271 q 613 -344 553 -344 "},"F":{"ha":756,"x_min":147,"x_max":676,"o":"m 153 0 l 164 0 q 169 6 169 0 l 169 475 l 610 475 q 615 481 615 475 l 615 489 q 610 494 615 494 l 169 494 l 169 967 l 671 967 q 676 972 676 967 l 676 981 q 671 986 676 986 l 153 986 q 147 981 147 986 l 147 6 q 153 0 147 0 "},"G":{"ha":896,"x_min":117,"x_max":792,"o":"m 456 -19 q 705 70 618 -19 q 792 318 792 160 l 792 472 q 785 479 792 479 l 465 479 q 460 474 460 479 l 460 465 q 465 460 460 460 l 771 460 l 771 319 q 690 85 771 169 q 456 0 608 0 q 219 85 301 0 q 138 319 138 169 l 138 672 q 218 903 138 821 q 454 986 299 986 q 663 931 592 986 q 767 753 735 875 q 775 750 768 747 l 782 751 q 786 760 788 753 q 678 945 754 885 q 454 1006 601 1006 q 203 917 289 1006 q 117 671 117 829 l 117 318 q 204 70 117 160 q 456 -19 292 -19 "},"Ğ":{"ha":896,"x_min":117,"x_max":792,"o":"m 456 -19 q 705 70 618 -19 q 792 318 792 160 l 792 472 q 785 479 792 479 l 465 479 q 460 474 460 479 l 460 465 q 465 460 460 460 l 771 460 l 771 319 q 690 85 771 169 q 456 0 608 0 q 219 85 301 0 q 138 319 138 169 l 138 672 q 218 903 138 821 q 454 986 299 986 q 663 931 592 986 q 767 753 735 875 q 775 750 768 747 l 782 751 q 786 760 788 753 q 678 945 754 885 q 454 1006 601 1006 q 203 917 289 1006 q 117 671 117 829 l 117 318 q 204 70 117 160 q 456 -19 292 -19 m 454 1075 q 565 1113 525 1075 q 632 1235 604 1150 q 629 1242 635 1242 l 619 1243 q 614 1239 615 1243 q 553 1127 588 1160 q 454 1094 518 1094 q 355 1128 390 1094 q 294 1239 319 1163 q 288 1243 293 1244 l 279 1242 q 276 1235 274 1242 q 344 1113 304 1150 q 454 1075 383 1075 "},"Ĝ":{"ha":896,"x_min":117,"x_max":792,"o":"m 456 -19 q 705 70 618 -19 q 792 318 792 160 l 792 472 q 785 479 792 479 l 465 479 q 460 474 460 479 l 460 465 q 465 460 460 460 l 771 460 l 771 319 q 690 85 771 169 q 456 0 608 0 q 219 85 301 0 q 138 319 138 169 l 138 672 q 218 903 138 821 q 454 986 299 986 q 663 931 592 986 q 767 753 735 875 q 775 750 768 747 l 782 751 q 786 760 788 753 q 678 945 754 885 q 454 1006 601 1006 q 203 917 289 1006 q 117 671 117 829 l 117 318 q 204 70 117 160 q 456 -19 292 -19 m 271 1069 l 283 1069 q 293 1074 289 1069 l 454 1228 l 613 1074 q 624 1069 617 1069 l 635 1069 q 639 1075 644 1069 l 469 1239 q 462 1244 465 1243 q 454 1246 458 1246 l 453 1246 q 445 1244 449 1246 q 438 1239 442 1243 l 267 1075 q 271 1069 261 1069 "},"Ģ":{"ha":896,"x_min":117,"x_max":792,"o":"m 456 -19 q 705 70 618 -19 q 792 318 792 160 l 792 472 q 785 479 792 479 l 465 479 q 460 474 460 479 l 460 465 q 465 460 460 460 l 771 460 l 771 319 q 690 85 771 169 q 456 0 608 0 q 219 85 301 0 q 138 319 138 169 l 138 672 q 218 903 138 821 q 454 986 299 986 q 663 931 592 986 q 767 753 735 875 q 775 750 768 747 l 782 751 q 786 760 788 753 q 678 945 754 885 q 454 1006 601 1006 q 203 917 289 1006 q 117 671 117 829 l 117 318 q 204 70 117 160 q 456 -19 292 -19 m 396 -335 l 401 -335 q 410 -328 408 -335 l 476 -125 q 471 -118 478 -118 l 464 -118 q 458 -119 460 -118 q 456 -124 456 -121 l 390 -328 q 396 -335 389 -335 "},"Ġ":{"ha":896,"x_min":117,"x_max":792,"o":"m 456 -19 q 705 70 618 -19 q 792 318 792 160 l 792 472 q 785 479 792 479 l 465 479 q 460 474 460 479 l 460 465 q 465 460 460 460 l 771 460 l 771 319 q 690 85 771 169 q 456 0 608 0 q 219 85 301 0 q 138 319 138 169 l 138 672 q 218 903 138 821 q 454 986 299 986 q 663 931 592 986 q 767 753 735 875 q 775 750 768 747 l 782 751 q 786 760 788 753 q 678 945 754 885 q 454 1006 601 1006 q 203 917 289 1006 q 117 671 117 829 l 117 318 q 204 70 117 160 q 456 -19 292 -19 m 451 1133 l 457 1133 q 470 1137 467 1133 q 474 1150 474 1140 l 474 1156 q 470 1169 474 1165 q 457 1172 467 1172 l 451 1172 q 438 1169 442 1172 q 435 1156 435 1165 l 435 1150 q 438 1137 435 1140 q 451 1133 442 1133 "},"H":{"ha":936,"x_min":147,"x_max":789,"o":"m 153 0 l 163 0 q 168 6 168 0 l 168 490 l 768 490 l 768 6 q 774 0 768 0 l 783 0 q 789 6 789 0 l 789 981 q 783 986 789 986 l 774 986 q 768 981 768 986 l 768 510 l 168 510 l 168 981 q 163 986 168 986 l 153 986 q 147 981 147 986 l 147 6 q 153 0 147 0 "},"Ħ":{"ha":942,"x_min":39,"x_max":904,"o":"m 156 0 l 165 0 q 171 6 171 0 l 171 490 l 771 490 l 771 6 q 776 0 771 0 l 786 0 q 792 6 792 0 l 792 778 l 897 778 q 903 780 901 778 q 904 786 904 782 l 904 790 q 897 797 904 797 l 792 797 l 792 981 q 786 986 792 986 l 776 986 q 771 981 771 986 l 771 797 l 171 797 l 171 981 q 165 986 171 986 l 156 986 q 150 981 150 986 l 150 797 l 46 797 q 39 790 39 797 l 39 786 q 40 780 39 782 q 46 778 42 778 l 150 778 l 150 6 q 156 0 150 0 m 771 510 l 171 510 l 171 778 l 771 778 l 771 510 "},"Ĥ":{"ha":936,"x_min":147,"x_max":789,"o":"m 153 0 l 163 0 q 168 6 168 0 l 168 490 l 768 490 l 768 6 q 774 0 768 0 l 783 0 q 789 6 789 0 l 789 981 q 783 986 789 986 l 774 986 q 768 981 768 986 l 768 510 l 168 510 l 168 981 q 163 986 168 986 l 153 986 q 147 981 147 986 l 147 6 q 153 0 147 0 m 285 1056 l 297 1056 q 307 1060 303 1056 l 468 1214 l 626 1060 q 638 1056 631 1056 l 649 1056 q 653 1061 658 1056 l 483 1225 q 476 1231 479 1229 q 468 1232 472 1232 l 467 1232 q 459 1231 463 1232 q 451 1225 456 1229 l 281 1061 q 285 1056 275 1056 "},"I":{"ha":315,"x_min":147,"x_max":168,"o":"m 153 0 l 163 0 q 168 6 168 0 l 168 981 q 163 986 168 986 l 153 986 q 147 981 147 986 l 147 6 q 153 0 147 0 "},"Ĳ":{"ha":1044,"x_min":147,"x_max":904,"o":"m 153 0 l 163 0 q 168 6 168 0 l 168 981 q 163 986 168 986 l 153 986 q 147 981 147 986 l 147 6 q 153 0 147 0 m 615 -19 q 828 65 753 -19 q 904 293 904 149 l 904 981 q 899 986 904 986 l 889 986 q 883 981 883 986 l 883 293 q 813 80 883 158 q 615 1 743 1 q 430 70 494 1 q 346 275 365 139 q 343 281 346 278 q 338 282 340 283 l 331 281 q 326 271 324 278 q 615 -19 367 -19 "},"Í":{"ha":315,"x_min":49,"x_max":268,"o":"m 153 0 l 163 0 q 168 6 168 0 l 168 981 q 163 986 168 986 l 153 986 q 147 981 147 986 l 147 6 q 153 0 147 0 m 68 1060 l 261 1217 q 263 1226 268 1221 l 257 1231 q 246 1231 250 1235 l 57 1075 q 54 1064 49 1069 l 58 1060 q 68 1060 63 1056 "},"Ĭ":{"ha":315,"x_min":-24,"x_max":338,"o":"m 153 0 l 163 0 q 168 6 168 0 l 168 981 q 163 986 168 986 l 153 986 q 147 981 147 986 l 147 6 q 153 0 147 0 m 157 1061 q 267 1099 228 1061 q 335 1221 307 1136 q 332 1228 338 1228 l 322 1229 q 317 1225 318 1229 q 256 1113 290 1146 q 157 1081 221 1081 q 58 1115 93 1081 q -3 1225 22 1149 q -10 1229 -4 1231 l -18 1228 q -21 1221 -24 1228 q 47 1099 7 1136 q 157 1061 86 1061 "},"Î":{"ha":315,"x_min":-36,"x_max":347,"o":"m 153 0 l 163 0 q 168 6 168 0 l 168 981 q 163 986 168 986 l 153 986 q 147 981 147 986 l 147 6 q 153 0 147 0 m -26 1056 l -14 1056 q -4 1060 -8 1056 l 157 1214 l 315 1060 q 326 1056 319 1056 l 338 1056 q 342 1061 347 1056 l 172 1225 q 165 1231 168 1229 q 157 1232 161 1232 l 156 1232 q 148 1231 151 1232 q 140 1225 144 1229 l -31 1061 q -26 1056 -36 1056 "},"Ï":{"ha":315,"x_min":21,"x_max":293,"o":"m 153 0 l 163 0 q 168 6 168 0 l 168 981 q 163 986 168 986 l 153 986 q 147 981 147 986 l 147 6 q 153 0 147 0 m 36 1126 l 44 1126 q 57 1129 54 1126 q 60 1142 60 1132 l 60 1150 q 57 1162 60 1158 q 44 1165 54 1165 l 36 1165 q 21 1150 21 1165 l 21 1142 q 24 1129 21 1132 q 36 1126 28 1126 m 269 1126 l 276 1126 q 289 1130 285 1126 q 293 1142 293 1133 l 293 1150 q 276 1165 293 1165 l 269 1165 q 256 1162 260 1165 q 253 1150 253 1158 l 253 1142 q 256 1129 253 1132 q 269 1126 260 1126 "},"İ":{"ha":315,"x_min":138,"x_max":176,"o":"m 153 0 l 163 0 q 168 6 168 0 l 168 981 q 163 986 168 986 l 153 986 q 147 981 147 986 l 147 6 q 153 0 147 0 m 154 1119 l 160 1119 q 173 1123 169 1119 q 176 1136 176 1126 l 176 1142 q 173 1155 176 1151 q 160 1158 169 1158 l 154 1158 q 141 1155 144 1158 q 138 1142 138 1151 l 138 1136 q 141 1123 138 1126 q 154 1119 144 1119 "},"Ì":{"ha":315,"x_min":42,"x_max":261,"o":"m 153 0 l 163 0 q 168 6 168 0 l 168 981 q 163 986 168 986 l 153 986 q 147 981 147 986 l 147 6 q 153 0 147 0 m 49 1215 l 242 1058 q 251 1058 246 1054 l 256 1063 q 253 1074 261 1068 l 64 1229 q 53 1229 58 1235 l 47 1225 q 49 1215 42 1219 "},"Ī":{"ha":315,"x_min":-1,"x_max":315,"o":"m 153 0 l 163 0 q 168 6 168 0 l 168 981 q 163 986 168 986 l 153 986 q 147 981 147 986 l 147 6 q 153 0 147 0 m 4 1131 l 310 1131 q 315 1136 315 1131 l 315 1143 q 310 1149 315 1149 l 4 1149 q -1 1143 -1 1149 l -1 1136 q 4 1131 -1 1131 "},"Į":{"ha":315,"x_min":51,"x_max":272,"o":"m 151 -344 q 268 -294 215 -344 q 271 -286 272 -290 l 268 -276 q 263 -275 267 -271 q 214 -311 242 -299 q 156 -324 186 -324 q 110 -312 131 -324 q 81 -276 89 -300 q 72 -226 72 -254 q 167 1 72 -136 q 168 6 168 3 l 168 981 q 163 986 168 986 l 153 986 q 147 981 147 986 l 147 8 q 149 4 147 4 q 51 -228 51 -140 q 63 -286 51 -257 q 98 -330 74 -315 q 151 -344 122 -344 "},"Ĩ":{"ha":315,"x_min":-28,"x_max":340,"o":"m 153 0 l 163 0 q 168 6 168 0 l 168 981 q 163 986 168 986 l 153 986 q 147 981 147 986 l 147 6 q 153 0 147 0 m -22 1081 l -14 1081 q -8 1086 -8 1081 q 11 1160 -8 1132 q 63 1189 31 1189 q 108 1176 89 1189 q 151 1136 126 1163 q 201 1094 179 1108 q 251 1081 222 1081 q 317 1114 294 1081 q 340 1201 340 1147 q 335 1207 340 1207 l 326 1207 q 321 1201 321 1207 q 303 1127 321 1156 q 251 1099 285 1099 q 207 1112 226 1099 q 164 1150 188 1125 q 114 1193 135 1179 q 63 1207 93 1207 q -3 1173 22 1207 q -28 1086 -28 1139 q -22 1081 -28 1081 "},"J":{"ha":779,"x_min":58,"x_max":639,"o":"m 350 -19 q 563 65 488 -19 q 639 293 639 149 l 639 981 q 633 986 639 986 l 624 986 q 618 981 618 986 l 618 293 q 548 80 618 158 q 350 1 478 1 q 165 70 229 1 q 81 275 100 139 q 78 281 81 278 q 72 282 75 283 l 65 281 q 61 271 58 278 q 350 -19 101 -19 "},"Ĵ":{"ha":779,"x_min":58,"x_max":818,"o":"m 350 -19 q 563 65 488 -19 q 639 293 639 149 l 639 981 q 633 986 639 986 l 624 986 q 618 981 618 986 l 618 293 q 548 80 618 158 q 350 1 478 1 q 165 70 229 1 q 81 275 100 139 q 78 281 81 278 q 72 282 75 283 l 65 281 q 61 271 58 278 q 350 -19 101 -19 m 444 1056 l 457 1056 q 467 1060 463 1056 l 628 1214 l 786 1060 q 797 1056 790 1056 l 808 1056 q 813 1061 818 1056 l 643 1225 q 635 1231 639 1229 q 628 1232 632 1232 l 626 1232 q 619 1231 622 1232 q 611 1225 615 1229 l 440 1061 q 444 1056 435 1056 "},"K":{"ha":815,"x_min":147,"x_max":763,"o":"m 153 0 l 163 0 q 168 6 168 0 l 168 490 l 367 490 q 498 456 450 490 q 581 346 546 422 l 736 6 q 747 0 740 0 l 754 0 q 758 7 763 0 l 599 356 q 528 459 567 424 q 428 506 489 494 l 746 979 q 742 986 750 986 l 733 986 q 721 981 725 986 l 406 508 q 367 510 394 510 l 168 510 l 168 981 q 163 986 168 986 l 153 986 q 147 981 147 986 l 147 6 q 153 0 147 0 "},"Ķ":{"ha":815,"x_min":147,"x_max":763,"o":"m 153 0 l 163 0 q 168 6 168 0 l 168 490 l 367 490 q 498 456 450 490 q 581 346 546 422 l 736 6 q 747 0 740 0 l 754 0 q 758 7 763 0 l 599 356 q 528 459 567 424 q 428 506 489 494 l 746 979 q 742 986 750 986 l 733 986 q 721 981 725 986 l 406 508 q 367 510 394 510 l 168 510 l 168 981 q 163 986 168 986 l 153 986 q 147 981 147 986 l 147 6 q 153 0 147 0 m 389 -335 l 394 -335 q 403 -328 401 -335 l 469 -125 q 464 -118 471 -118 l 457 -118 q 451 -119 453 -118 q 449 -124 449 -121 l 383 -328 q 389 -335 382 -335 "},"L":{"ha":711,"x_min":147,"x_max":665,"o":"m 153 0 l 660 0 q 665 6 665 0 l 665 14 q 660 19 665 19 l 168 19 l 168 981 q 163 986 168 986 l 153 986 q 147 981 147 986 l 147 6 q 153 0 147 0 "},"Ĺ":{"ha":711,"x_min":50,"x_max":665,"o":"m 153 0 l 660 0 q 665 6 665 0 l 665 14 q 660 19 665 19 l 168 19 l 168 981 q 163 986 168 986 l 153 986 q 147 981 147 986 l 147 6 q 153 0 147 0 m 69 1060 l 263 1217 q 264 1226 269 1221 l 258 1231 q 247 1231 251 1235 l 58 1075 q 56 1064 50 1069 l 60 1060 q 69 1060 64 1056 "},"Ľ":{"ha":711,"x_min":146,"x_max":664,"o":"m 151 0 l 658 0 q 664 6 664 0 l 664 14 q 658 19 664 19 l 167 19 l 167 981 q 161 986 167 986 l 151 986 q 146 981 146 986 l 146 6 q 151 0 146 0 m 490 710 l 497 710 q 506 717 504 710 l 572 979 q 567 986 574 986 l 558 986 q 552 985 554 986 q 550 981 550 983 l 485 717 q 490 710 483 710 "},"Ļ":{"ha":711,"x_min":147,"x_max":665,"o":"m 153 0 l 660 0 q 665 6 665 0 l 665 14 q 660 19 665 19 l 168 19 l 168 981 q 163 986 168 986 l 153 986 q 147 981 147 986 l 147 6 q 153 0 147 0 m 344 -335 l 350 -335 q 358 -328 357 -335 l 425 -125 q 419 -118 426 -118 l 413 -118 q 406 -119 408 -118 q 404 -124 404 -121 l 339 -328 q 344 -335 338 -335 "},"Ŀ":{"ha":711,"x_min":147,"x_max":665,"o":"m 153 0 l 660 0 q 665 6 665 0 l 665 14 q 660 19 665 19 l 168 19 l 168 981 q 163 986 168 986 l 153 986 q 147 981 147 986 l 147 6 q 153 0 147 0 m 460 451 l 465 451 q 481 456 476 451 q 486 472 486 461 l 486 478 q 481 494 486 489 q 465 499 476 499 l 460 499 q 444 494 449 499 q 439 478 439 489 l 439 472 q 444 456 439 460 q 460 451 449 451 "},"Ł":{"ha":743,"x_min":19,"x_max":697,"o":"m 174 0 l 692 0 q 697 6 697 0 l 697 14 q 692 19 697 19 l 188 19 l 188 446 l 539 635 q 543 638 543 636 q 542 643 543 640 l 538 650 q 529 653 536 656 l 188 469 l 188 981 q 182 986 188 986 l 174 986 q 167 981 167 986 l 167 460 l 25 383 q 24 375 19 381 l 28 367 q 31 363 29 364 q 35 364 33 363 l 167 435 l 167 6 q 174 0 167 0 "},"M":{"ha":1093,"x_min":147,"x_max":946,"o":"m 153 0 l 163 0 q 168 6 168 0 l 168 728 l 168 943 l 169 943 l 215 858 l 260 774 l 535 249 q 546 242 539 242 l 553 242 q 563 249 560 242 l 832 767 q 879 854 849 796 l 925 942 l 926 942 q 925 728 925 871 l 925 6 q 931 0 925 0 l 940 0 q 946 6 946 0 l 946 981 q 940 986 946 986 l 932 986 q 925 984 928 986 q 921 978 922 982 l 549 267 l 172 979 q 161 986 168 986 l 153 986 q 147 981 147 986 l 147 6 q 153 0 147 0 "},"N":{"ha":949,"x_min":147,"x_max":801,"o":"m 153 0 l 161 0 q 168 6 168 0 l 168 738 l 168 878 l 168 947 l 169 947 q 243 832 210 886 l 271 788 l 776 6 q 786 0 781 0 l 796 0 q 801 6 801 0 l 801 981 q 796 986 801 986 l 788 986 q 781 982 781 986 l 781 278 l 782 36 l 781 36 l 721 131 l 660 224 l 171 982 q 163 986 167 986 l 153 986 q 147 981 147 986 l 147 6 q 153 0 147 0 "},"Ń":{"ha":949,"x_min":147,"x_max":801,"o":"m 153 0 l 161 0 q 168 6 168 0 l 168 738 l 168 878 l 168 947 l 169 947 q 243 832 210 886 l 271 788 l 776 6 q 786 0 781 0 l 796 0 q 801 6 801 0 l 801 981 q 796 986 801 986 l 788 986 q 781 982 781 986 l 781 278 l 782 36 l 781 36 l 721 131 l 660 224 l 171 982 q 163 986 167 986 l 153 986 q 147 981 147 986 l 147 6 q 153 0 147 0 m 386 1060 l 579 1217 q 581 1226 586 1221 l 575 1231 q 564 1231 568 1235 l 375 1075 q 372 1064 367 1069 l 376 1060 q 386 1060 381 1056 "},"Ň":{"ha":949,"x_min":147,"x_max":801,"o":"m 153 0 l 161 0 q 168 6 168 0 l 168 738 l 168 878 l 168 947 l 169 947 q 243 832 210 886 l 271 788 l 776 6 q 786 0 781 0 l 796 0 q 801 6 801 0 l 801 981 q 796 986 801 986 l 788 986 q 781 982 781 986 l 781 278 l 782 36 l 781 36 l 721 131 l 660 224 l 171 982 q 163 986 167 986 l 153 986 q 147 981 147 986 l 147 6 q 153 0 147 0 m 475 1056 l 476 1056 q 485 1058 482 1056 q 490 1063 489 1061 l 663 1226 q 658 1232 668 1232 l 646 1232 q 636 1228 640 1232 l 475 1074 l 317 1228 q 306 1232 313 1232 l 294 1232 q 290 1226 285 1232 l 460 1063 q 467 1057 464 1058 q 475 1056 471 1056 "},"Ņ":{"ha":949,"x_min":147,"x_max":801,"o":"m 153 0 l 161 0 q 168 6 168 0 l 168 738 l 168 878 l 168 947 l 169 947 q 243 832 210 886 l 271 788 l 776 6 q 786 0 781 0 l 796 0 q 801 6 801 0 l 801 981 q 796 986 801 986 l 788 986 q 781 982 781 986 l 781 278 l 782 36 l 781 36 l 721 131 l 660 224 l 171 982 q 163 986 167 986 l 153 986 q 147 981 147 986 l 147 6 q 153 0 147 0 m 411 -335 l 417 -335 q 425 -328 424 -335 l 492 -125 q 486 -118 493 -118 l 479 -118 q 473 -119 475 -118 q 471 -124 471 -121 l 406 -328 q 411 -335 404 -335 "},"Ŋ":{"ha":949,"x_min":147,"x_max":801,"o":"m 546 -319 q 742 -249 683 -319 q 801 -32 801 -178 l 801 981 q 796 986 801 986 l 788 986 q 781 982 781 986 l 781 278 l 782 36 l 781 36 l 721 131 l 660 224 l 171 982 q 163 986 167 986 l 153 986 q 147 981 147 986 l 147 6 q 153 0 147 0 l 161 0 q 168 6 168 0 l 168 738 l 168 878 l 168 947 l 169 947 q 243 832 210 886 l 271 788 l 781 0 l 781 -31 q 727 -233 781 -167 q 546 -300 674 -300 q 542 -301 543 -300 q 540 -306 540 -303 l 540 -314 q 546 -319 540 -319 "},"Ñ":{"ha":949,"x_min":147,"x_max":801,"o":"m 153 0 l 161 0 q 168 6 168 0 l 168 738 l 168 878 l 168 947 l 169 947 q 243 832 210 886 l 271 788 l 776 6 q 786 0 781 0 l 796 0 q 801 6 801 0 l 801 981 q 796 986 801 986 l 788 986 q 781 982 781 986 l 781 278 l 782 36 l 781 36 l 721 131 l 660 224 l 171 982 q 163 986 167 986 l 153 986 q 147 981 147 986 l 147 6 q 153 0 147 0 m 296 1081 l 304 1081 q 310 1086 310 1081 q 329 1160 310 1132 q 381 1189 349 1189 q 426 1176 407 1189 q 469 1136 444 1163 q 519 1094 497 1108 q 569 1081 540 1081 q 635 1114 613 1081 q 658 1201 658 1147 q 653 1207 658 1207 l 644 1207 q 639 1201 639 1207 q 621 1127 639 1156 q 569 1099 603 1099 q 525 1112 544 1099 q 482 1150 506 1125 q 432 1193 453 1179 q 381 1207 411 1207 q 315 1173 340 1207 q 290 1086 290 1139 q 296 1081 290 1081 "},"O":{"ha":908,"x_min":117,"x_max":792,"o":"m 456 -19 q 705 69 618 -19 q 792 317 792 158 l 792 669 q 705 917 792 828 q 456 1006 618 1006 q 204 917 292 1006 q 117 669 117 828 l 117 317 q 204 69 117 158 q 456 -19 292 -19 m 456 0 q 220 84 303 0 q 138 318 138 168 l 138 668 q 220 902 138 818 q 456 986 303 986 q 689 902 607 986 q 771 668 771 818 l 771 318 q 690 85 772 169 q 456 0 607 0 "},"Ó":{"ha":908,"x_min":117,"x_max":792,"o":"m 456 -19 q 705 69 618 -19 q 792 317 792 158 l 792 669 q 705 917 792 828 q 456 1006 618 1006 q 204 917 292 1006 q 117 669 117 828 l 117 317 q 204 69 117 158 q 456 -19 292 -19 m 456 0 q 220 84 303 0 q 138 318 138 168 l 138 668 q 220 902 138 818 q 456 986 303 986 q 689 902 607 986 q 771 668 771 818 l 771 318 q 690 85 772 169 q 456 0 607 0 m 367 1074 l 560 1231 q 561 1240 567 1235 l 556 1244 q 544 1244 549 1249 l 356 1089 q 353 1078 347 1083 l 357 1074 q 367 1074 361 1069 "},"Ŏ":{"ha":908,"x_min":117,"x_max":792,"o":"m 456 -19 q 705 69 618 -19 q 792 317 792 158 l 792 669 q 705 917 792 828 q 456 1006 618 1006 q 204 917 292 1006 q 117 669 117 828 l 117 317 q 204 69 117 158 q 456 -19 292 -19 m 456 0 q 220 84 303 0 q 138 318 138 168 l 138 668 q 220 902 138 818 q 456 986 303 986 q 689 902 607 986 q 771 668 771 818 l 771 318 q 690 85 772 169 q 456 0 607 0 m 456 1075 q 566 1113 526 1075 q 633 1235 606 1150 q 631 1242 636 1242 l 621 1243 q 615 1239 617 1243 q 554 1127 589 1160 q 456 1094 519 1094 q 356 1128 392 1094 q 296 1239 321 1163 q 289 1243 294 1244 l 281 1242 q 278 1235 275 1242 q 345 1113 306 1150 q 456 1075 385 1075 "},"Ô":{"ha":908,"x_min":117,"x_max":792,"o":"m 456 -19 q 705 69 618 -19 q 792 317 792 158 l 792 669 q 705 917 792 828 q 456 1006 618 1006 q 204 917 292 1006 q 117 669 117 828 l 117 317 q 204 69 117 158 q 456 -19 292 -19 m 456 0 q 220 84 303 0 q 138 318 138 168 l 138 668 q 220 902 138 818 q 456 986 303 986 q 689 902 607 986 q 771 668 771 818 l 771 318 q 690 85 772 169 q 456 0 607 0 m 272 1069 l 285 1069 q 294 1074 290 1069 l 456 1228 l 614 1074 q 625 1069 618 1069 l 636 1069 q 640 1075 646 1069 l 471 1239 q 463 1244 467 1243 q 456 1246 460 1246 l 454 1246 q 447 1244 450 1246 q 439 1239 443 1243 l 268 1075 q 272 1069 263 1069 "},"Ö":{"ha":908,"x_min":117,"x_max":792,"o":"m 456 -19 q 705 69 618 -19 q 792 317 792 158 l 792 669 q 705 917 792 828 q 456 1006 618 1006 q 204 917 292 1006 q 117 669 117 828 l 117 317 q 204 69 117 158 q 456 -19 292 -19 m 456 0 q 220 84 303 0 q 138 318 138 168 l 138 668 q 220 902 138 818 q 456 986 303 986 q 689 902 607 986 q 771 668 771 818 l 771 318 q 690 85 772 169 q 456 0 607 0 m 335 1140 l 343 1140 q 356 1143 353 1140 q 358 1156 358 1146 l 358 1164 q 356 1176 358 1172 q 343 1179 353 1179 l 335 1179 q 319 1164 319 1179 l 319 1156 q 323 1143 319 1146 q 335 1140 326 1140 m 568 1140 l 575 1140 q 588 1144 583 1140 q 592 1156 592 1147 l 592 1164 q 575 1179 592 1179 l 568 1179 q 555 1176 558 1179 q 551 1164 551 1172 l 551 1156 q 555 1143 551 1146 q 568 1140 558 1140 "},"Ò":{"ha":908,"x_min":117,"x_max":792,"o":"m 456 -19 q 705 69 618 -19 q 792 317 792 158 l 792 669 q 705 917 792 828 q 456 1006 618 1006 q 204 917 292 1006 q 117 669 117 828 l 117 317 q 204 69 117 158 q 456 -19 292 -19 m 456 0 q 220 84 303 0 q 138 318 138 168 l 138 668 q 220 902 138 818 q 456 986 303 986 q 689 902 607 986 q 771 668 771 818 l 771 318 q 690 85 772 169 q 456 0 607 0 m 347 1229 l 540 1072 q 550 1072 544 1068 l 554 1076 q 551 1088 560 1082 l 363 1243 q 351 1243 357 1249 l 346 1239 q 347 1229 340 1233 "},"Ő":{"ha":908,"x_min":117,"x_max":792,"o":"m 456 -19 q 705 69 618 -19 q 792 317 792 158 l 792 669 q 705 917 792 828 q 456 1006 618 1006 q 204 917 292 1006 q 117 669 117 828 l 117 317 q 204 69 117 158 q 456 -19 292 -19 m 456 0 q 220 84 303 0 q 138 318 138 168 l 138 668 q 220 902 138 818 q 456 986 303 986 q 689 902 607 986 q 771 668 771 818 l 771 318 q 690 85 772 169 q 456 0 607 0 m 299 1074 l 304 1071 q 315 1074 311 1068 l 454 1242 q 451 1249 458 1246 l 443 1251 q 433 1247 438 1253 l 297 1081 q 299 1074 292 1076 m 510 1076 l 515 1074 q 525 1076 521 1071 l 669 1239 q 667 1246 674 1243 l 658 1249 q 647 1244 653 1250 l 507 1083 q 510 1076 503 1079 "},"Ō":{"ha":908,"x_min":117,"x_max":792,"o":"m 456 -19 q 705 69 618 -19 q 792 317 792 158 l 792 669 q 705 917 792 828 q 456 1006 618 1006 q 204 917 292 1006 q 117 669 117 828 l 117 317 q 204 69 117 158 q 456 -19 292 -19 m 456 0 q 220 84 303 0 q 138 318 138 168 l 138 668 q 220 902 138 818 q 456 986 303 986 q 689 902 607 986 q 771 668 771 818 l 771 318 q 690 85 772 169 q 456 0 607 0 m 303 1144 l 608 1144 q 614 1150 614 1144 l 614 1157 q 608 1163 614 1163 l 303 1163 q 297 1157 297 1163 l 297 1150 q 303 1144 297 1144 "},"Ø":{"ha":908,"x_min":117,"x_max":794,"o":"m 126 -62 l 139 -62 q 145 -62 143 -62 q 149 -58 147 -61 l 217 57 q 456 -19 306 -19 q 705 69 618 -19 q 792 317 792 158 l 792 669 q 715 906 792 817 l 792 1035 q 789 1039 794 1039 l 775 1039 q 767 1035 769 1039 l 700 921 q 456 1006 613 1006 q 204 917 292 1006 q 117 669 117 828 l 117 317 q 200 72 117 160 l 124 -58 q 126 -62 122 -62 m 689 903 l 213 92 q 138 318 138 175 l 138 668 q 220 902 138 818 q 456 986 303 986 q 689 903 606 986 m 456 0 q 228 76 308 0 l 704 885 q 771 668 771 806 l 771 318 q 690 85 772 169 q 456 0 607 0 "},"Ǿ":{"ha":908,"x_min":117,"x_max":794,"o":"m 126 -62 l 139 -62 q 145 -62 143 -62 q 149 -58 147 -61 l 217 57 q 456 -19 306 -19 q 705 69 618 -19 q 792 317 792 158 l 792 669 q 715 906 792 817 l 792 1035 q 789 1039 794 1039 l 775 1039 q 767 1035 769 1039 l 700 921 q 456 1006 613 1006 q 204 917 292 1006 q 117 669 117 828 l 117 317 q 200 72 117 160 l 124 -58 q 126 -62 122 -62 m 689 903 l 213 92 q 138 318 138 175 l 138 668 q 220 902 138 818 q 456 986 303 986 q 689 903 606 986 m 456 0 q 228 76 308 0 l 704 885 q 771 668 771 806 l 771 318 q 690 85 772 169 q 456 0 607 0 m 364 1074 l 557 1231 q 558 1240 564 1235 l 553 1244 q 542 1244 546 1249 l 353 1089 q 350 1078 344 1083 l 354 1074 q 364 1074 358 1069 "},"Õ":{"ha":908,"x_min":117,"x_max":792,"o":"m 456 -19 q 705 69 618 -19 q 792 317 792 158 l 792 669 q 705 917 792 828 q 456 1006 618 1006 q 204 917 292 1006 q 117 669 117 828 l 117 317 q 204 69 117 158 q 456 -19 292 -19 m 456 0 q 220 84 303 0 q 138 318 138 168 l 138 668 q 220 902 138 818 q 456 986 303 986 q 689 902 607 986 q 771 668 771 818 l 771 318 q 690 85 772 169 q 456 0 607 0 m 276 1094 l 285 1094 q 290 1100 290 1094 q 310 1174 290 1146 q 361 1203 329 1203 q 406 1190 388 1203 q 450 1150 425 1176 q 499 1108 478 1122 q 550 1094 521 1094 q 616 1128 593 1094 q 639 1215 639 1161 q 633 1221 639 1221 l 625 1221 q 619 1215 619 1221 q 601 1141 619 1169 q 550 1113 583 1113 q 506 1126 525 1113 q 463 1164 486 1139 q 413 1207 433 1193 q 361 1221 392 1221 q 296 1187 321 1221 q 271 1100 271 1153 q 276 1094 271 1094 "},"Œ":{"ha":1176,"x_min":117,"x_max":1090,"o":"m 469 -21 q 622 0 549 -21 l 1085 0 q 1090 6 1090 0 l 1090 14 q 1085 19 1090 19 l 635 19 l 635 489 l 1006 489 q 1011 494 1011 489 l 1011 503 q 1006 508 1011 508 l 635 508 l 635 967 l 1064 967 q 1069 972 1069 967 l 1069 981 q 1064 986 1069 986 l 621 986 q 469 1007 549 1007 q 209 917 301 1007 q 117 669 117 828 l 117 317 q 209 69 117 158 q 469 -21 301 -21 m 469 -1 q 224 84 311 -1 q 138 318 138 169 l 138 668 q 224 902 138 817 q 469 988 311 988 q 614 967 543 988 l 614 18 q 553 5 593 11 q 469 -1 513 -1 "},"P":{"ha":847,"x_min":147,"x_max":772,"o":"m 153 0 l 163 0 q 168 6 168 0 l 168 400 l 497 400 q 699 477 625 400 q 772 692 772 554 q 699 908 772 829 q 497 986 625 986 l 153 986 q 147 981 147 986 l 147 6 q 153 0 147 0 m 496 419 l 168 419 l 168 967 l 496 967 q 683 894 614 967 q 751 692 751 821 q 683 492 751 564 q 496 419 614 419 "},"Þ":{"ha":844,"x_min":147,"x_max":772,"o":"m 153 0 l 163 0 q 168 6 168 0 l 168 193 l 485 193 q 694 275 617 193 q 772 499 772 357 q 694 724 772 642 q 485 807 617 807 l 168 807 l 168 981 q 163 986 168 986 l 153 986 q 147 981 147 986 l 147 6 q 153 0 147 0 m 483 213 l 168 213 l 168 788 l 483 788 q 679 710 607 788 q 751 499 751 633 q 679 289 751 365 q 483 213 607 213 "},"Q":{"ha":976,"x_min":172,"x_max":890,"o":"m 743 54 l 871 -81 q 879 -81 875 -85 l 886 -75 q 886 -67 890 -71 l 758 67 q 847 317 847 156 l 847 669 q 760 917 847 828 q 511 1006 674 1006 q 260 917 347 1006 q 172 669 172 828 l 172 317 q 260 69 172 158 q 511 -19 347 -19 q 743 54 657 -19 m 511 0 q 276 84 358 0 q 193 318 193 168 l 193 668 q 276 902 193 818 q 511 986 358 986 q 744 902 663 986 q 826 668 826 818 l 826 318 q 745 85 828 169 q 511 0 663 0 "},"R":{"ha":881,"x_min":147,"x_max":807,"o":"m 153 0 l 163 0 q 168 6 168 0 l 168 456 l 424 456 q 555 421 507 456 q 639 310 603 386 l 781 6 q 792 0 785 0 l 799 0 q 803 7 807 0 l 657 321 q 602 407 632 375 q 528 456 572 439 q 708 527 642 458 q 775 719 775 596 q 709 917 775 847 q 525 986 643 986 l 153 986 q 147 981 147 986 l 147 6 q 153 0 147 0 m 524 475 l 168 475 l 168 967 l 524 967 q 694 902 633 967 q 754 719 754 838 q 693 539 754 603 q 524 475 632 475 "},"Ŕ":{"ha":881,"x_min":147,"x_max":807,"o":"m 153 0 l 163 0 q 168 6 168 0 l 168 456 l 424 456 q 555 421 507 456 q 639 310 603 386 l 781 6 q 792 0 785 0 l 799 0 q 803 7 807 0 l 657 321 q 602 407 632 375 q 528 456 572 439 q 708 527 642 458 q 775 719 775 596 q 709 917 775 847 q 525 986 643 986 l 153 986 q 147 981 147 986 l 147 6 q 153 0 147 0 m 524 475 l 168 475 l 168 967 l 524 967 q 694 902 633 967 q 754 719 754 838 q 693 539 754 603 q 524 475 632 475 m 340 1060 l 533 1217 q 535 1226 540 1221 l 529 1231 q 518 1231 522 1235 l 329 1075 q 326 1064 321 1069 l 331 1060 q 340 1060 335 1056 "},"Ř":{"ha":881,"x_min":147,"x_max":807,"o":"m 153 0 l 163 0 q 168 6 168 0 l 168 456 l 424 456 q 555 421 507 456 q 639 310 603 386 l 781 6 q 792 0 785 0 l 799 0 q 803 7 807 0 l 657 321 q 602 407 632 375 q 528 456 572 439 q 708 527 642 458 q 775 719 775 596 q 709 917 775 847 q 525 986 643 986 l 153 986 q 147 981 147 986 l 147 6 q 153 0 147 0 m 524 475 l 168 475 l 168 967 l 524 967 q 694 902 633 967 q 754 719 754 838 q 693 539 754 603 q 524 475 632 475 m 429 1056 l 431 1056 q 440 1058 436 1056 q 444 1063 443 1061 l 617 1226 q 613 1232 622 1232 l 600 1232 q 590 1228 594 1232 l 429 1074 l 271 1228 q 260 1232 267 1232 l 249 1232 q 244 1226 239 1232 l 414 1063 q 422 1057 418 1058 q 429 1056 425 1056 "},"Ŗ":{"ha":881,"x_min":147,"x_max":807,"o":"m 153 0 l 163 0 q 168 6 168 0 l 168 456 l 424 456 q 555 421 507 456 q 639 310 603 386 l 781 6 q 792 0 785 0 l 799 0 q 803 7 807 0 l 657 321 q 602 407 632 375 q 528 456 572 439 q 708 527 642 458 q 775 719 775 596 q 709 917 775 847 q 525 986 643 986 l 153 986 q 147 981 147 986 l 147 6 q 153 0 147 0 m 524 475 l 168 475 l 168 967 l 524 967 q 694 902 633 967 q 754 719 754 838 q 693 539 754 603 q 524 475 632 475 m 407 -335 l 413 -335 q 421 -328 419 -335 l 488 -125 q 482 -118 489 -118 l 475 -118 q 469 -119 471 -118 q 467 -124 467 -121 l 401 -328 q 407 -335 400 -335 "},"S":{"ha":856,"x_min":86,"x_max":760,"o":"m 429 -19 q 676 49 593 -19 q 758 251 758 117 q 715 400 758 349 q 608 472 672 451 q 442 504 543 492 q 279 536 343 517 q 172 604 215 556 q 129 742 129 653 q 207 920 129 856 q 419 985 285 985 q 613 938 539 985 q 736 783 688 890 q 741 781 739 779 q 744 782 743 782 l 753 785 q 756 793 760 788 q 625 956 704 907 q 419 1006 546 1006 q 192 935 275 1006 q 108 742 108 865 q 154 593 108 646 q 268 519 200 540 q 438 483 336 497 q 597 453 538 471 q 697 388 657 436 q 738 251 738 340 q 429 1 738 1 q 231 56 308 1 q 107 232 153 110 q 99 235 104 236 l 90 232 q 86 228 86 231 q 88 222 86 225 q 217 38 135 94 q 429 -19 300 -19 "},"Ś":{"ha":856,"x_min":86,"x_max":760,"o":"m 429 -19 q 676 49 593 -19 q 758 251 758 117 q 715 400 758 349 q 608 472 672 451 q 442 504 543 492 q 279 536 343 517 q 172 604 215 556 q 129 742 129 653 q 207 920 129 856 q 419 985 285 985 q 613 938 539 985 q 736 783 688 890 q 741 781 739 779 q 744 782 743 782 l 753 785 q 756 793 760 788 q 625 956 704 907 q 419 1006 546 1006 q 192 935 275 1006 q 108 742 108 865 q 154 593 108 646 q 268 519 200 540 q 438 483 336 497 q 597 453 538 471 q 697 388 657 436 q 738 251 738 340 q 429 1 738 1 q 231 56 308 1 q 107 232 153 110 q 99 235 104 236 l 90 232 q 86 228 86 231 q 88 222 86 225 q 217 38 135 94 q 429 -19 300 -19 m 343 1072 l 536 1229 q 538 1239 543 1233 l 532 1243 q 521 1243 525 1247 l 332 1088 q 329 1076 324 1082 l 333 1072 q 343 1072 338 1068 "},"Š":{"ha":856,"x_min":86,"x_max":760,"o":"m 429 -19 q 676 49 593 -19 q 758 251 758 117 q 715 400 758 349 q 608 472 672 451 q 442 504 543 492 q 279 536 343 517 q 172 604 215 556 q 129 742 129 653 q 207 920 129 856 q 419 985 285 985 q 613 938 539 985 q 736 783 688 890 q 741 781 739 779 q 744 782 743 782 l 753 785 q 756 793 760 788 q 625 956 704 907 q 419 1006 546 1006 q 192 935 275 1006 q 108 742 108 865 q 154 593 108 646 q 268 519 200 540 q 438 483 336 497 q 597 453 538 471 q 697 388 657 436 q 738 251 738 340 q 429 1 738 1 q 231 56 308 1 q 107 232 153 110 q 99 235 104 236 l 90 232 q 86 228 86 231 q 88 222 86 225 q 217 38 135 94 q 429 -19 300 -19 m 432 1068 l 433 1068 q 442 1071 439 1068 q 447 1075 446 1074 l 619 1239 q 615 1244 625 1244 l 603 1244 q 593 1240 597 1244 l 432 1086 l 274 1240 q 263 1244 269 1244 l 251 1244 q 247 1239 242 1244 l 417 1075 q 424 1069 421 1071 q 432 1068 428 1068 "},"Ş":{"ha":856,"x_min":86,"x_max":760,"o":"m 442 -342 q 537 -311 503 -342 q 571 -219 571 -281 q 539 -147 571 -175 q 461 -119 507 -119 q 421 -126 438 -119 l 450 -19 q 681 53 603 -15 q 758 251 758 121 q 715 400 758 349 q 608 472 672 451 q 442 504 543 492 q 279 536 343 517 q 172 604 215 556 q 129 742 129 653 q 207 920 129 856 q 419 985 285 985 q 613 938 539 985 q 736 783 688 890 q 741 781 739 779 q 744 782 743 782 l 753 785 q 756 793 760 788 q 625 956 704 907 q 419 1006 546 1006 q 192 935 275 1006 q 108 742 108 865 q 154 593 108 646 q 268 519 200 540 q 438 483 336 497 q 597 453 538 471 q 697 388 657 436 q 738 251 738 340 q 429 1 738 1 q 232 58 310 1 q 107 239 154 115 q 99 242 104 243 l 90 239 q 86 235 86 238 q 88 229 86 232 q 219 40 136 100 q 432 -19 303 -19 l 399 -136 q 400 -144 397 -140 q 407 -147 403 -147 l 410 -147 q 457 -136 429 -136 q 524 -158 497 -136 q 551 -219 551 -181 q 440 -324 551 -324 q 344 -281 382 -324 q 341 -280 343 -279 q 339 -283 339 -281 l 339 -292 q 346 -307 339 -301 q 388 -332 367 -322 q 442 -342 408 -342 "},"Ŝ":{"ha":856,"x_min":86,"x_max":760,"o":"m 429 -19 q 676 49 593 -19 q 758 251 758 117 q 715 400 758 349 q 608 472 672 451 q 442 504 543 492 q 279 536 343 517 q 172 604 215 556 q 129 742 129 653 q 207 920 129 856 q 419 985 285 985 q 613 938 539 985 q 736 783 688 890 q 741 781 739 779 q 744 782 743 782 l 753 785 q 756 793 760 788 q 625 956 704 907 q 419 1006 546 1006 q 192 935 275 1006 q 108 742 108 865 q 154 593 108 646 q 268 519 200 540 q 438 483 336 497 q 597 453 538 471 q 697 388 657 436 q 738 251 738 340 q 429 1 738 1 q 231 56 308 1 q 107 232 153 110 q 99 235 104 236 l 90 232 q 86 228 86 231 q 88 222 86 225 q 217 38 135 94 q 429 -19 300 -19 m 249 1068 l 261 1068 q 271 1072 267 1068 l 432 1226 l 590 1072 q 601 1068 594 1068 l 613 1068 q 617 1074 622 1068 l 447 1238 q 440 1243 443 1242 q 432 1244 436 1244 l 431 1244 q 423 1243 426 1244 q 415 1238 419 1242 l 244 1074 q 249 1068 239 1068 "},"Ș":{"ha":856,"x_min":86,"x_max":760,"o":"m 429 -19 q 676 49 593 -19 q 758 251 758 117 q 715 400 758 349 q 608 472 672 451 q 442 504 543 492 q 279 536 343 517 q 172 604 215 556 q 129 742 129 653 q 207 920 129 856 q 419 985 285 985 q 613 938 539 985 q 736 783 688 890 q 741 781 739 779 q 744 782 743 782 l 753 785 q 756 793 760 788 q 625 956 704 907 q 419 1006 546 1006 q 192 935 275 1006 q 108 742 108 865 q 154 593 108 646 q 268 519 200 540 q 438 483 336 497 q 597 453 538 471 q 697 388 657 436 q 738 251 738 340 q 429 1 738 1 q 231 56 308 1 q 107 232 153 110 q 99 235 104 236 l 90 232 q 86 228 86 231 q 88 222 86 225 q 217 38 135 94 q 429 -19 300 -19 m 393 -347 l 399 -347 q 407 -340 406 -347 l 474 -137 q 468 -131 475 -131 l 461 -131 q 455 -132 457 -131 q 453 -136 453 -133 l 388 -340 q 393 -347 386 -347 "},"ẞ":{"ha":879,"x_min":147,"x_max":779,"o":"m 550 556 q 450 549 493 556 l 724 964 q 726 974 726 969 l 726 981 q 721 986 726 986 l 153 986 q 147 981 147 986 l 147 6 q 153 0 147 0 l 163 0 q 168 6 168 0 l 168 967 l 700 967 l 426 550 q 422 540 422 544 l 422 531 q 429 526 422 525 q 513 536 483 536 q 549 536 543 536 q 702 471 646 536 q 758 272 758 406 q 689 70 758 135 q 472 6 619 6 q 376 14 419 6 q 265 53 332 22 q 258 50 258 57 l 258 39 q 264 32 258 33 q 376 -4 328 6 q 474 -14 425 -14 q 704 56 629 -14 q 779 272 779 126 q 715 487 779 418 q 550 556 651 556 "},"T":{"ha":729,"x_min":43,"x_max":686,"o":"m 360 0 l 369 0 q 375 6 375 0 l 375 967 l 681 967 q 686 972 686 967 l 686 981 q 681 986 686 986 l 49 986 q 43 981 43 986 l 43 972 q 49 967 43 967 l 354 967 l 354 6 q 360 0 354 0 "},"Ŧ":{"ha":728,"x_min":43,"x_max":685,"o":"m 360 0 l 369 0 q 375 6 375 0 l 375 451 l 589 451 q 594 453 593 451 q 596 460 596 456 l 596 464 q 589 471 596 471 l 375 471 l 375 967 l 679 967 q 685 972 685 967 l 685 981 q 679 986 685 986 l 49 986 q 43 981 43 986 l 43 972 q 49 967 43 967 l 354 967 l 354 471 l 140 471 q 133 464 133 471 l 133 460 q 135 453 133 456 q 140 451 136 451 l 354 451 l 354 6 q 360 0 354 0 "},"Ť":{"ha":729,"x_min":43,"x_max":686,"o":"m 360 0 l 369 0 q 375 6 375 0 l 375 967 l 681 967 q 686 972 686 967 l 686 981 q 681 986 686 986 l 49 986 q 43 981 43 986 l 43 972 q 49 967 43 967 l 354 967 l 354 6 q 360 0 354 0 m 365 1056 l 367 1056 q 376 1058 372 1056 q 381 1063 379 1061 l 553 1226 q 549 1232 558 1232 l 536 1232 q 526 1228 531 1232 l 365 1074 l 207 1228 q 196 1232 203 1232 l 185 1232 q 181 1226 175 1232 l 350 1063 q 358 1057 354 1058 q 365 1056 361 1056 "},"Ţ":{"ha":729,"x_min":43,"x_max":686,"o":"m 360 0 l 369 0 q 375 6 375 0 l 375 967 l 681 967 q 686 972 686 967 l 686 981 q 681 986 686 986 l 49 986 q 43 981 43 986 l 43 972 q 49 967 43 967 l 354 967 l 354 6 q 360 0 354 0 m 303 -335 l 308 -335 q 317 -328 315 -335 l 383 -125 q 378 -118 385 -118 l 371 -118 q 365 -119 367 -118 q 363 -124 363 -121 l 297 -328 q 303 -335 296 -335 "},"U":{"ha":936,"x_min":139,"x_max":797,"o":"m 468 -19 q 714 74 631 -19 q 797 333 797 168 l 797 981 q 792 986 797 986 l 782 986 q 776 981 776 986 l 776 333 q 699 89 776 178 q 468 0 621 0 q 238 89 315 0 q 160 333 160 178 l 160 981 q 154 986 160 986 l 144 986 q 139 981 139 986 l 139 333 q 222 74 139 168 q 468 -19 306 -19 "},"Ú":{"ha":936,"x_min":139,"x_max":797,"o":"m 468 -19 q 714 74 631 -19 q 797 333 797 168 l 797 981 q 792 986 797 986 l 782 986 q 776 981 776 986 l 776 333 q 699 89 776 178 q 468 0 621 0 q 238 89 315 0 q 160 333 160 178 l 160 981 q 154 986 160 986 l 144 986 q 139 981 139 986 l 139 333 q 222 74 139 168 q 468 -19 306 -19 m 379 1060 l 572 1217 q 574 1226 579 1221 l 568 1231 q 557 1231 561 1235 l 368 1075 q 365 1064 360 1069 l 369 1060 q 379 1060 374 1056 "},"Ŭ":{"ha":936,"x_min":139,"x_max":797,"o":"m 468 -19 q 714 74 631 -19 q 797 333 797 168 l 797 981 q 792 986 797 986 l 782 986 q 776 981 776 986 l 776 333 q 699 89 776 178 q 468 0 621 0 q 238 89 315 0 q 160 333 160 178 l 160 981 q 154 986 160 986 l 144 986 q 139 981 139 986 l 139 333 q 222 74 139 168 q 468 -19 306 -19 m 468 1061 q 578 1099 539 1061 q 646 1221 618 1136 q 643 1228 649 1228 l 633 1229 q 628 1225 629 1229 q 567 1113 601 1146 q 468 1081 532 1081 q 369 1115 404 1081 q 308 1225 333 1149 q 301 1229 307 1231 l 293 1228 q 290 1221 288 1228 q 358 1099 318 1136 q 468 1061 397 1061 "},"Û":{"ha":936,"x_min":139,"x_max":797,"o":"m 468 -19 q 714 74 631 -19 q 797 333 797 168 l 797 981 q 792 986 797 986 l 782 986 q 776 981 776 986 l 776 333 q 699 89 776 178 q 468 0 621 0 q 238 89 315 0 q 160 333 160 178 l 160 981 q 154 986 160 986 l 144 986 q 139 981 139 986 l 139 333 q 222 74 139 168 q 468 -19 306 -19 m 285 1056 l 297 1056 q 307 1060 303 1056 l 468 1214 l 626 1060 q 638 1056 631 1056 l 649 1056 q 653 1061 658 1056 l 483 1225 q 476 1231 479 1229 q 468 1232 472 1232 l 467 1232 q 459 1231 463 1232 q 451 1225 456 1229 l 281 1061 q 285 1056 275 1056 "},"Ü":{"ha":936,"x_min":139,"x_max":797,"o":"m 468 -19 q 714 74 631 -19 q 797 333 797 168 l 797 981 q 792 986 797 986 l 782 986 q 776 981 776 986 l 776 333 q 699 89 776 178 q 468 0 621 0 q 238 89 315 0 q 160 333 160 178 l 160 981 q 154 986 160 986 l 144 986 q 139 981 139 986 l 139 333 q 222 74 139 168 q 468 -19 306 -19 m 347 1126 l 356 1126 q 368 1129 365 1126 q 371 1142 371 1132 l 371 1150 q 368 1162 371 1158 q 356 1165 365 1165 l 347 1165 q 332 1150 332 1165 l 332 1142 q 335 1129 332 1132 q 347 1126 339 1126 m 581 1126 l 588 1126 q 600 1130 596 1126 q 604 1142 604 1133 l 604 1150 q 588 1165 604 1165 l 581 1165 q 567 1162 571 1165 q 564 1150 564 1158 l 564 1142 q 567 1129 564 1132 q 581 1126 571 1126 "},"Ù":{"ha":936,"x_min":139,"x_max":797,"o":"m 468 -19 q 714 74 631 -19 q 797 333 797 168 l 797 981 q 792 986 797 986 l 782 986 q 776 981 776 986 l 776 333 q 699 89 776 178 q 468 0 621 0 q 238 89 315 0 q 160 333 160 178 l 160 981 q 154 986 160 986 l 144 986 q 139 981 139 986 l 139 333 q 222 74 139 168 q 468 -19 306 -19 m 360 1215 l 553 1058 q 563 1058 557 1054 l 567 1063 q 564 1074 572 1068 l 375 1229 q 364 1229 369 1235 l 358 1225 q 360 1215 353 1219 "},"Ű":{"ha":936,"x_min":139,"x_max":797,"o":"m 468 -19 q 714 74 631 -19 q 797 333 797 168 l 797 981 q 792 986 797 986 l 782 986 q 776 981 776 986 l 776 333 q 699 89 776 178 q 468 0 621 0 q 238 89 315 0 q 160 333 160 178 l 160 981 q 154 986 160 986 l 144 986 q 139 981 139 986 l 139 333 q 222 74 139 168 q 468 -19 306 -19 m 311 1060 l 317 1057 q 328 1060 324 1054 l 467 1228 q 464 1235 471 1232 l 456 1238 q 446 1233 450 1239 l 310 1067 q 311 1060 304 1063 m 522 1063 l 528 1060 q 538 1063 533 1057 l 682 1225 q 679 1232 686 1229 l 671 1235 q 660 1231 665 1236 l 519 1069 q 522 1063 515 1065 "},"Ū":{"ha":936,"x_min":139,"x_max":797,"o":"m 468 -19 q 714 74 631 -19 q 797 333 797 168 l 797 981 q 792 986 797 986 l 782 986 q 776 981 776 986 l 776 333 q 699 89 776 178 q 468 0 621 0 q 238 89 315 0 q 160 333 160 178 l 160 981 q 154 986 160 986 l 144 986 q 139 981 139 986 l 139 333 q 222 74 139 168 q 468 -19 306 -19 m 315 1131 l 621 1131 q 626 1136 626 1131 l 626 1143 q 621 1149 626 1149 l 315 1149 q 310 1143 310 1149 l 310 1136 q 315 1131 310 1131 "},"Ų":{"ha":936,"x_min":139,"x_max":797,"o":"m 590 -344 q 651 -332 621 -344 q 704 -296 682 -319 q 707 -287 708 -292 l 703 -276 q 697 -275 701 -271 q 648 -311 679 -297 q 592 -325 617 -325 q 528 -278 544 -325 q 522 -246 522 -258 q 569 -113 522 -192 q 692 53 615 -35 q 797 333 797 144 l 797 981 q 792 986 797 986 l 782 986 q 776 981 776 986 l 776 333 q 699 89 776 178 q 468 0 621 0 q 238 89 315 0 q 160 333 160 178 l 160 981 q 154 986 160 986 l 144 986 q 139 981 139 986 l 139 333 q 222 74 139 168 q 468 -19 306 -19 q 636 17 567 -19 q 503 -247 503 -150 q 510 -286 503 -268 q 590 -344 531 -344 "},"Ů":{"ha":936,"x_min":139,"x_max":797,"o":"m 468 -19 q 714 74 631 -19 q 797 333 797 168 l 797 981 q 792 986 797 986 l 782 986 q 776 981 776 986 l 776 333 q 699 89 776 178 q 468 0 621 0 q 238 89 315 0 q 160 333 160 178 l 160 981 q 154 986 160 986 l 144 986 q 139 981 139 986 l 139 333 q 222 74 139 168 q 468 -19 306 -19 m 469 1051 q 551 1085 521 1051 q 582 1174 582 1118 q 551 1263 582 1229 q 469 1296 521 1296 q 385 1263 417 1296 q 353 1174 353 1229 q 385 1085 353 1118 q 469 1051 417 1051 m 469 1068 q 397 1097 425 1068 q 369 1174 369 1126 q 397 1250 369 1221 q 469 1279 425 1279 q 539 1250 513 1279 q 565 1174 565 1221 q 539 1097 565 1126 q 469 1068 513 1068 "},"Ũ":{"ha":936,"x_min":139,"x_max":797,"o":"m 468 -19 q 714 74 631 -19 q 797 333 797 168 l 797 981 q 792 986 797 986 l 782 986 q 776 981 776 986 l 776 333 q 699 89 776 178 q 468 0 621 0 q 238 89 315 0 q 160 333 160 178 l 160 981 q 154 986 160 986 l 144 986 q 139 981 139 986 l 139 333 q 222 74 139 168 q 468 -19 306 -19 m 289 1081 l 297 1081 q 303 1086 303 1081 q 322 1160 303 1132 q 374 1189 342 1189 q 419 1176 400 1189 q 463 1136 438 1163 q 512 1094 490 1108 q 563 1081 533 1081 q 628 1114 606 1081 q 651 1201 651 1147 q 646 1207 651 1207 l 638 1207 q 632 1201 632 1207 q 614 1127 632 1156 q 563 1099 596 1099 q 518 1112 538 1099 q 475 1150 499 1125 q 425 1193 446 1179 q 374 1207 404 1207 q 308 1173 333 1207 q 283 1086 283 1139 q 289 1081 283 1081 "},"V":{"ha":833,"x_min":42,"x_max":792,"o":"m 413 0 l 421 0 q 431 7 428 0 l 789 981 q 786 986 792 986 l 776 986 q 767 981 768 986 l 443 101 l 431 65 q 417 29 424 46 l 415 29 l 389 101 l 67 981 q 58 986 65 986 l 49 986 q 44 981 42 986 l 403 7 q 413 0 406 0 "},"W":{"ha":1217,"x_min":60,"x_max":1157,"o":"m 333 0 l 342 0 q 351 7 351 0 l 576 810 q 608 924 596 875 l 610 924 l 642 810 l 865 7 q 875 0 867 0 l 883 0 q 893 7 892 0 l 1156 981 q 1151 986 1157 986 l 1142 986 q 1133 981 1135 986 l 907 138 l 881 33 l 879 33 l 850 139 l 622 953 q 614 958 621 958 l 604 958 q 596 953 597 958 l 368 142 l 338 33 l 336 33 q 308 143 325 79 l 83 981 q 75 986 82 986 l 65 986 q 61 981 60 986 l 324 7 q 333 0 325 0 "},"Ẃ":{"ha":1217,"x_min":60,"x_max":1157,"o":"m 333 0 l 342 0 q 351 7 351 0 l 576 810 q 608 924 596 875 l 610 924 l 642 810 l 865 7 q 875 0 867 0 l 883 0 q 893 7 892 0 l 1156 981 q 1151 986 1157 986 l 1142 986 q 1133 981 1135 986 l 907 138 l 881 33 l 879 33 l 850 139 l 622 953 q 614 958 621 958 l 604 958 q 596 953 597 958 l 368 142 l 338 33 l 336 33 q 308 143 325 79 l 83 981 q 75 986 82 986 l 65 986 q 61 981 60 986 l 324 7 q 333 0 325 0 m 521 1060 l 714 1217 q 715 1226 721 1221 l 710 1231 q 699 1231 703 1235 l 510 1075 q 507 1064 501 1069 l 511 1060 q 521 1060 515 1056 "},"Ŵ":{"ha":1217,"x_min":60,"x_max":1157,"o":"m 333 0 l 342 0 q 351 7 351 0 l 576 810 q 608 924 596 875 l 610 924 l 642 810 l 865 7 q 875 0 867 0 l 883 0 q 893 7 892 0 l 1156 981 q 1151 986 1157 986 l 1142 986 q 1133 981 1135 986 l 907 138 l 881 33 l 879 33 l 850 139 l 622 953 q 614 958 621 958 l 604 958 q 596 953 597 958 l 368 142 l 338 33 l 336 33 q 308 143 325 79 l 83 981 q 75 986 82 986 l 65 986 q 61 981 60 986 l 324 7 q 333 0 325 0 m 426 1056 l 439 1056 q 449 1060 444 1056 l 610 1214 l 768 1060 q 779 1056 772 1056 l 790 1056 q 794 1061 800 1056 l 625 1225 q 617 1231 621 1229 q 610 1232 614 1232 l 608 1232 q 601 1231 604 1232 q 593 1225 597 1229 l 422 1061 q 426 1056 417 1056 "},"Ẅ":{"ha":1217,"x_min":60,"x_max":1157,"o":"m 333 0 l 342 0 q 351 7 351 0 l 576 810 q 608 924 596 875 l 610 924 l 642 810 l 865 7 q 875 0 867 0 l 883 0 q 893 7 892 0 l 1156 981 q 1151 986 1157 986 l 1142 986 q 1133 981 1135 986 l 907 138 l 881 33 l 879 33 l 850 139 l 622 953 q 614 958 621 958 l 604 958 q 596 953 597 958 l 368 142 l 338 33 l 336 33 q 308 143 325 79 l 83 981 q 75 986 82 986 l 65 986 q 61 981 60 986 l 324 7 q 333 0 325 0 m 489 1126 l 497 1126 q 510 1129 507 1126 q 513 1142 513 1132 l 513 1150 q 510 1162 513 1158 q 497 1165 507 1165 l 489 1165 q 474 1150 474 1165 l 474 1142 q 477 1129 474 1132 q 489 1126 481 1126 m 722 1126 l 729 1126 q 742 1130 738 1126 q 746 1142 746 1133 l 746 1150 q 729 1165 746 1165 l 722 1165 q 709 1162 713 1165 q 706 1150 706 1158 l 706 1142 q 709 1129 706 1132 q 722 1126 713 1126 "},"Ẁ":{"ha":1217,"x_min":60,"x_max":1157,"o":"m 333 0 l 342 0 q 351 7 351 0 l 576 810 q 608 924 596 875 l 610 924 l 642 810 l 865 7 q 875 0 867 0 l 883 0 q 893 7 892 0 l 1156 981 q 1151 986 1157 986 l 1142 986 q 1133 981 1135 986 l 907 138 l 881 33 l 879 33 l 850 139 l 622 953 q 614 958 621 958 l 604 958 q 596 953 597 958 l 368 142 l 338 33 l 336 33 q 308 143 325 79 l 83 981 q 75 986 82 986 l 65 986 q 61 981 60 986 l 324 7 q 333 0 325 0 m 501 1215 l 694 1058 q 704 1058 699 1054 l 708 1063 q 706 1074 714 1068 l 517 1229 q 506 1229 511 1235 l 500 1225 q 501 1215 494 1219 "},"X":{"ha":815,"x_min":43,"x_max":772,"o":"m 51 0 l 63 0 q 74 6 69 0 l 407 485 l 742 6 q 751 0 746 0 l 763 0 q 765 10 772 0 l 421 501 l 757 981 q 753 986 760 986 l 742 986 q 731 981 735 986 l 407 517 l 83 981 q 74 986 79 986 l 61 986 q 57 981 54 986 l 393 500 l 50 10 q 51 0 43 0 "},"Y":{"ha":843,"x_min":47,"x_max":797,"o":"m 417 0 l 426 0 q 432 6 432 0 l 432 411 l 794 981 q 790 986 797 986 l 779 986 q 768 981 772 986 l 422 432 l 75 981 q 73 983 75 981 q 65 986 71 986 l 54 986 q 50 981 47 986 l 411 413 l 411 6 q 417 0 411 0 "},"Ý":{"ha":843,"x_min":47,"x_max":797,"o":"m 417 0 l 426 0 q 432 6 432 0 l 432 411 l 794 981 q 790 986 797 986 l 779 986 q 768 981 772 986 l 422 432 l 75 981 q 73 983 75 981 q 65 986 71 986 l 54 986 q 50 981 47 986 l 411 413 l 411 6 q 417 0 411 0 m 333 1060 l 526 1217 q 528 1226 533 1221 l 522 1231 q 511 1231 515 1235 l 322 1075 q 319 1064 314 1069 l 324 1060 q 333 1060 328 1056 "},"Ŷ":{"ha":843,"x_min":47,"x_max":797,"o":"m 417 0 l 426 0 q 432 6 432 0 l 432 411 l 794 981 q 790 986 797 986 l 779 986 q 768 981 772 986 l 422 432 l 75 981 q 73 983 75 981 q 65 986 71 986 l 54 986 q 50 981 47 986 l 411 413 l 411 6 q 417 0 411 0 m 239 1056 l 251 1056 q 261 1060 257 1056 l 422 1214 l 581 1060 q 592 1056 585 1056 l 603 1056 q 607 1061 613 1056 l 438 1225 q 430 1231 433 1229 q 422 1232 426 1232 l 421 1232 q 413 1231 417 1232 q 406 1225 410 1229 l 235 1061 q 239 1056 229 1056 "},"Ÿ":{"ha":843,"x_min":47,"x_max":797,"o":"m 417 0 l 426 0 q 432 6 432 0 l 432 411 l 794 981 q 790 986 797 986 l 779 986 q 768 981 772 986 l 422 432 l 75 981 q 73 983 75 981 q 65 986 71 986 l 54 986 q 50 981 47 986 l 411 413 l 411 6 q 417 0 411 0 m 301 1126 l 310 1126 q 322 1129 319 1126 q 325 1142 325 1132 l 325 1150 q 322 1162 325 1158 q 310 1165 319 1165 l 301 1165 q 286 1150 286 1165 l 286 1142 q 290 1129 286 1132 q 301 1126 293 1126 m 535 1126 l 542 1126 q 554 1130 550 1126 q 558 1142 558 1133 l 558 1150 q 542 1165 558 1165 l 535 1165 q 522 1162 525 1165 q 518 1150 518 1158 l 518 1142 q 522 1129 518 1132 q 535 1126 525 1126 "},"Ỳ":{"ha":843,"x_min":47,"x_max":797,"o":"m 417 0 l 426 0 q 432 6 432 0 l 432 411 l 794 981 q 790 986 797 986 l 779 986 q 768 981 772 986 l 422 432 l 75 981 q 73 983 75 981 q 65 986 71 986 l 54 986 q 50 981 47 986 l 411 413 l 411 6 q 417 0 411 0 m 314 1215 l 507 1058 q 517 1058 511 1054 l 521 1063 q 518 1074 526 1068 l 329 1229 q 318 1229 324 1235 l 313 1225 q 314 1215 307 1219 "},"Z":{"ha":750,"x_min":69,"x_max":688,"o":"m 75 0 l 682 0 q 688 6 688 0 l 688 15 q 682 21 688 21 l 94 21 l 667 964 q 669 975 669 968 l 669 981 q 664 986 669 986 l 81 986 q 75 981 75 986 l 75 972 q 81 967 75 967 l 643 967 l 74 26 q 69 13 69 21 l 69 6 q 75 0 69 0 "},"Ź":{"ha":750,"x_min":69,"x_max":688,"o":"m 75 0 l 682 0 q 688 6 688 0 l 688 15 q 682 21 688 21 l 94 21 l 667 964 q 669 975 669 968 l 669 981 q 664 986 669 986 l 81 986 q 75 981 75 986 l 75 972 q 81 967 75 967 l 643 967 l 74 26 q 69 13 69 21 l 69 6 q 75 0 69 0 m 290 1060 l 483 1217 q 485 1226 490 1221 l 479 1231 q 468 1231 472 1235 l 279 1075 q 276 1064 271 1069 l 281 1060 q 290 1060 285 1056 "},"Ž":{"ha":750,"x_min":69,"x_max":688,"o":"m 75 0 l 682 0 q 688 6 688 0 l 688 15 q 682 21 688 21 l 94 21 l 667 964 q 669 975 669 968 l 669 981 q 664 986 669 986 l 81 986 q 75 981 75 986 l 75 972 q 81 967 75 967 l 643 967 l 74 26 q 69 13 69 21 l 69 6 q 75 0 69 0 m 379 1056 l 381 1056 q 390 1058 386 1056 q 394 1063 393 1061 l 567 1226 q 563 1232 572 1232 l 550 1232 q 540 1228 544 1232 l 379 1074 l 221 1228 q 210 1232 217 1232 l 199 1232 q 194 1226 189 1232 l 364 1063 q 372 1057 368 1058 q 379 1056 375 1056 "},"Ż":{"ha":750,"x_min":69,"x_max":688,"o":"m 75 0 l 682 0 q 688 6 688 0 l 688 15 q 682 21 688 21 l 94 21 l 667 964 q 669 975 669 968 l 669 981 q 664 986 669 986 l 81 986 q 75 981 75 986 l 75 972 q 81 967 75 967 l 643 967 l 74 26 q 69 13 69 21 l 69 6 q 75 0 69 0 m 376 1119 l 382 1119 q 395 1123 392 1119 q 399 1136 399 1126 l 399 1142 q 395 1155 399 1151 q 382 1158 392 1158 l 376 1158 q 363 1155 367 1158 q 360 1142 360 1151 l 360 1136 q 363 1123 360 1126 q 376 1119 367 1119 "},"a":{"ha":699,"x_min":88,"x_max":581,"o":"m 349 -19 q 536 17 461 -19 q 572 44 563 29 q 581 96 581 60 l 581 475 q 524 667 581 606 q 349 728 468 728 q 201 690 261 728 q 108 581 140 651 q 111 572 106 574 l 117 569 q 125 572 122 567 q 349 710 194 710 q 510 653 458 710 q 561 475 561 597 l 561 372 q 353 392 451 392 q 153 342 218 392 q 88 188 88 292 q 151 31 88 82 q 349 -19 214 -19 m 347 -1 q 165 44 224 -1 q 107 188 107 90 q 166 328 107 283 q 351 374 225 374 q 561 354 451 374 l 561 96 q 555 56 561 67 q 526 33 549 44 q 447 7 489 15 q 347 -1 404 -1 "},"á":{"ha":699,"x_min":88,"x_max":581,"o":"m 349 -19 q 536 17 461 -19 q 572 44 563 29 q 581 96 581 60 l 581 475 q 524 667 581 606 q 349 728 468 728 q 201 690 261 728 q 108 581 140 651 q 111 572 106 574 l 117 569 q 125 572 122 567 q 349 710 194 710 q 510 653 458 710 q 561 475 561 597 l 561 372 q 353 392 451 392 q 153 342 218 392 q 88 188 88 292 q 151 31 88 82 q 349 -19 214 -19 m 347 -1 q 165 44 224 -1 q 107 188 107 90 q 166 328 107 283 q 351 374 225 374 q 561 354 451 374 l 561 96 q 555 56 561 67 q 526 33 549 44 q 447 7 489 15 q 347 -1 404 -1 m 253 856 l 446 1013 q 447 1022 453 1017 l 442 1026 q 431 1026 436 1032 l 242 871 q 239 860 233 865 l 243 856 q 253 856 247 851 "},"ă":{"ha":699,"x_min":88,"x_max":581,"o":"m 349 -19 q 536 17 461 -19 q 572 44 563 29 q 581 96 581 60 l 581 475 q 524 667 581 606 q 349 728 468 728 q 201 690 261 728 q 108 581 140 651 q 111 572 106 574 l 117 569 q 125 572 122 567 q 349 710 194 710 q 510 653 458 710 q 561 475 561 597 l 561 372 q 353 392 451 392 q 153 342 218 392 q 88 188 88 292 q 151 31 88 82 q 349 -19 214 -19 m 347 -1 q 165 44 224 -1 q 107 188 107 90 q 166 328 107 283 q 351 374 225 374 q 561 354 451 374 l 561 96 q 555 56 561 67 q 526 33 549 44 q 447 7 489 15 q 347 -1 404 -1 m 343 851 q 458 890 415 851 q 521 1011 500 928 q 517 1019 522 1018 l 510 1021 q 503 1015 504 1021 q 446 906 483 940 q 343 871 408 871 q 240 906 278 871 q 183 1015 203 940 q 176 1021 182 1021 l 169 1019 q 165 1011 164 1018 q 228 890 186 928 q 343 851 271 851 "},"â":{"ha":699,"x_min":88,"x_max":581,"o":"m 349 -19 q 536 17 461 -19 q 572 44 563 29 q 581 96 581 60 l 581 475 q 524 667 581 606 q 349 728 468 728 q 201 690 261 728 q 108 581 140 651 q 111 572 106 574 l 117 569 q 125 572 122 567 q 349 710 194 710 q 510 653 458 710 q 561 475 561 597 l 561 372 q 353 392 451 392 q 153 342 218 392 q 88 188 88 292 q 151 31 88 82 q 349 -19 214 -19 m 347 -1 q 165 44 224 -1 q 107 188 107 90 q 166 328 107 283 q 351 374 225 374 q 561 354 451 374 l 561 96 q 555 56 561 67 q 526 33 549 44 q 447 7 489 15 q 347 -1 404 -1 m 160 843 l 172 843 q 183 847 176 843 l 344 1001 l 503 847 q 514 843 507 843 l 525 843 q 529 849 535 843 l 360 1013 q 352 1018 356 1017 q 344 1019 349 1019 l 343 1019 q 335 1018 339 1019 q 328 1013 332 1017 l 157 849 q 154 844 154 846 q 160 843 154 843 "},"ä":{"ha":699,"x_min":88,"x_max":581,"o":"m 349 -19 q 536 17 461 -19 q 572 44 563 29 q 581 96 581 60 l 581 475 q 524 667 581 606 q 349 728 468 728 q 201 690 261 728 q 108 581 140 651 q 111 572 106 574 l 117 569 q 125 572 122 567 q 349 710 194 710 q 510 653 458 710 q 561 475 561 597 l 561 372 q 353 392 451 392 q 153 342 218 392 q 88 188 88 292 q 151 31 88 82 q 349 -19 214 -19 m 347 -1 q 165 44 224 -1 q 107 188 107 90 q 166 328 107 283 q 351 374 225 374 q 561 354 451 374 l 561 96 q 555 56 561 67 q 526 33 549 44 q 447 7 489 15 q 347 -1 404 -1 m 222 918 l 228 918 q 244 923 239 918 q 249 939 249 928 l 249 944 q 244 960 249 956 q 228 965 239 965 l 222 965 q 206 960 211 965 q 201 944 201 956 l 201 939 q 206 922 201 926 q 222 918 211 918 m 469 918 l 475 918 q 491 923 486 918 q 496 939 496 928 l 496 944 q 491 960 496 956 q 475 965 486 965 l 469 965 q 453 960 458 965 q 449 944 449 956 l 449 939 q 453 922 449 926 q 469 918 458 918 "},"à":{"ha":699,"x_min":88,"x_max":581,"o":"m 349 -19 q 536 17 461 -19 q 572 44 563 29 q 581 96 581 60 l 581 475 q 524 667 581 606 q 349 728 468 728 q 201 690 261 728 q 108 581 140 651 q 111 572 106 574 l 117 569 q 125 572 122 567 q 349 710 194 710 q 510 653 458 710 q 561 475 561 597 l 561 372 q 353 392 451 392 q 153 342 218 392 q 88 188 88 292 q 151 31 88 82 q 349 -19 214 -19 m 347 -1 q 165 44 224 -1 q 107 188 107 90 q 166 328 107 283 q 351 374 225 374 q 561 354 451 374 l 561 96 q 555 56 561 67 q 526 33 549 44 q 447 7 489 15 q 347 -1 404 -1 m 235 1011 l 428 854 q 438 854 432 850 l 442 858 q 439 869 447 864 l 250 1025 q 239 1025 244 1031 l 233 1019 q 235 1011 229 1015 "},"ā":{"ha":699,"x_min":88,"x_max":581,"o":"m 349 -19 q 536 17 461 -19 q 572 44 563 29 q 581 96 581 60 l 581 475 q 524 667 581 606 q 349 728 468 728 q 201 690 261 728 q 108 581 140 651 q 111 572 106 574 l 117 569 q 125 572 122 567 q 349 710 194 710 q 510 653 458 710 q 561 475 561 597 l 561 372 q 353 392 451 392 q 153 342 218 392 q 88 188 88 292 q 151 31 88 82 q 349 -19 214 -19 m 347 -1 q 165 44 224 -1 q 107 188 107 90 q 166 328 107 283 q 351 374 225 374 q 561 354 451 374 l 561 96 q 555 56 561 67 q 526 33 549 44 q 447 7 489 15 q 347 -1 404 -1 m 190 918 l 496 918 q 501 924 501 918 l 501 931 q 496 936 501 936 l 190 936 q 185 931 185 936 l 185 924 q 190 918 185 918 "},"ą":{"ha":699,"x_min":88,"x_max":597,"o":"m 496 -344 q 547 -333 524 -344 q 593 -296 569 -321 q 596 -287 597 -292 l 592 -276 q 586 -275 590 -271 q 497 -325 546 -325 q 433 -278 450 -325 q 428 -244 428 -265 q 563 33 428 -153 q 576 59 572 46 q 581 96 581 72 l 581 475 q 524 667 581 606 q 349 728 468 728 q 201 690 261 728 q 108 581 140 651 q 111 572 106 574 l 117 569 q 125 572 122 567 q 349 710 194 710 q 510 653 458 710 q 561 475 561 597 l 561 372 q 353 392 451 392 q 153 342 218 392 q 88 188 88 292 q 151 31 88 82 q 349 -19 214 -19 q 526 13 453 -19 q 408 -246 408 -154 q 415 -287 408 -272 q 496 -344 436 -344 m 347 -1 q 165 44 224 -1 q 107 188 107 90 q 166 328 107 283 q 351 374 225 374 q 561 354 451 374 l 561 96 q 555 56 561 67 q 526 33 549 44 q 447 7 489 15 q 347 -1 404 -1 "},"å":{"ha":699,"x_min":88,"x_max":581,"o":"m 349 -19 q 536 17 461 -19 q 572 44 563 29 q 581 96 581 60 l 581 475 q 524 667 581 606 q 349 728 468 728 q 201 690 261 728 q 108 581 140 651 q 111 572 106 574 l 117 569 q 125 572 122 567 q 349 710 194 710 q 510 653 458 710 q 561 475 561 597 l 561 372 q 353 392 451 392 q 153 342 218 392 q 88 188 88 292 q 151 31 88 82 q 349 -19 214 -19 m 347 -1 q 165 44 224 -1 q 107 188 107 90 q 166 328 107 283 q 351 374 225 374 q 561 354 451 374 l 561 96 q 555 56 561 67 q 526 33 549 44 q 447 7 489 15 q 347 -1 404 -1 m 344 806 q 426 839 396 806 q 457 928 457 872 q 426 1017 457 983 q 344 1050 396 1050 q 260 1017 292 1050 q 228 928 228 983 q 260 839 228 872 q 344 806 292 806 m 344 822 q 272 851 300 822 q 244 928 244 881 q 272 1004 244 975 q 344 1033 300 1033 q 414 1004 388 1033 q 440 928 440 975 q 414 851 440 881 q 344 822 388 822 "},"ǻ":{"ha":699,"x_min":88,"x_max":581,"o":"m 214 1063 l 446 1153 q 450 1161 453 1154 l 447 1167 q 436 1171 444 1172 l 208 1081 q 203 1071 200 1078 l 206 1065 q 214 1063 208 1060 m 344 806 q 426 839 396 806 q 457 928 457 872 q 426 1017 457 983 q 344 1050 396 1050 q 260 1017 292 1050 q 228 928 228 983 q 260 839 228 872 q 344 806 292 806 m 344 822 q 272 851 300 822 q 244 928 244 881 q 272 1004 244 975 q 344 1033 300 1033 q 414 1004 388 1033 q 440 928 440 975 q 414 851 440 881 q 344 822 388 822 m 349 -19 q 536 17 461 -19 q 572 44 563 29 q 581 96 581 60 l 581 475 q 524 667 581 606 q 349 728 468 728 q 201 690 261 728 q 108 581 140 651 q 111 572 106 574 l 117 569 q 125 572 122 567 q 349 710 194 710 q 510 653 458 710 q 561 475 561 597 l 561 372 q 353 392 451 392 q 153 342 218 392 q 88 188 88 292 q 151 31 88 82 q 349 -19 214 -19 m 347 -1 q 165 44 224 -1 q 107 188 107 90 q 166 328 107 283 q 351 374 225 374 q 561 354 451 374 l 561 96 q 555 56 561 67 q 526 33 549 44 q 447 7 489 15 q 347 -1 404 -1 "},"ã":{"ha":699,"x_min":88,"x_max":581,"o":"m 349 -19 q 536 17 461 -19 q 572 44 563 29 q 581 96 581 60 l 581 475 q 524 667 581 606 q 349 728 468 728 q 201 690 261 728 q 108 581 140 651 q 111 572 106 574 l 117 569 q 125 572 122 567 q 349 710 194 710 q 510 653 458 710 q 561 475 561 597 l 561 372 q 353 392 451 392 q 153 342 218 392 q 88 188 88 292 q 151 31 88 82 q 349 -19 214 -19 m 347 -1 q 165 44 224 -1 q 107 188 107 90 q 166 328 107 283 q 351 374 225 374 q 561 354 451 374 l 561 96 q 555 56 561 67 q 526 33 549 44 q 447 7 489 15 q 347 -1 404 -1 m 164 868 l 172 868 q 178 874 178 868 q 197 948 178 919 q 249 976 217 976 q 294 963 275 976 q 338 924 313 950 q 387 882 365 896 q 438 868 408 868 q 503 901 481 868 q 526 989 526 935 q 521 994 526 994 l 513 994 q 507 989 507 994 q 489 915 507 943 q 438 886 471 886 q 393 899 413 886 q 350 938 374 913 q 300 981 321 967 q 249 994 279 994 q 183 960 208 994 q 158 874 158 926 q 164 868 158 868 "},"æ":{"ha":1072,"x_min":88,"x_max":979,"o":"m 328 -19 q 473 13 424 -19 q 542 97 522 46 q 742 -19 589 -19 q 851 1 808 -19 q 919 56 893 22 q 971 147 944 90 q 969 154 974 153 l 963 158 q 954 156 958 161 q 903 68 928 100 q 841 17 879 36 q 742 -1 803 -1 q 585 62 633 -1 q 536 243 536 125 l 536 357 l 960 357 q 979 375 979 357 l 979 444 q 924 654 979 581 q 747 728 869 728 q 529 561 568 728 q 471 684 517 640 q 328 728 425 728 q 197 691 249 728 q 110 582 146 654 q 113 574 107 575 l 121 571 q 128 574 125 569 q 208 675 161 640 q 328 710 256 710 q 449 678 407 710 q 503 594 490 646 q 517 467 517 543 l 517 369 q 333 389 419 389 q 144 341 201 389 q 88 183 88 293 q 143 28 88 75 q 328 -19 199 -19 m 960 375 l 536 375 l 536 444 q 585 641 536 572 q 747 710 633 710 q 910 641 861 710 q 960 444 960 572 l 960 375 m 328 -1 q 158 42 210 -1 q 107 183 107 85 q 159 327 107 283 q 332 371 211 371 q 517 351 414 371 l 517 243 q 531 126 517 174 q 328 -1 493 -1 "},"ǽ":{"ha":1072,"x_min":88,"x_max":979,"o":"m 328 -19 q 473 13 424 -19 q 542 97 522 46 q 742 -19 589 -19 q 851 1 808 -19 q 919 56 893 22 q 971 147 944 90 q 969 154 974 153 l 963 158 q 954 156 958 161 q 903 68 928 100 q 841 17 879 36 q 742 -1 803 -1 q 585 62 633 -1 q 536 243 536 125 l 536 357 l 960 357 q 979 375 979 357 l 979 444 q 924 654 979 581 q 747 728 869 728 q 529 561 568 728 q 471 684 517 640 q 328 728 425 728 q 197 691 249 728 q 110 582 146 654 q 113 574 107 575 l 121 571 q 128 574 125 569 q 208 675 161 640 q 328 710 256 710 q 449 678 407 710 q 503 594 490 646 q 517 467 517 543 l 517 369 q 333 389 419 389 q 144 341 201 389 q 88 183 88 293 q 143 28 88 75 q 328 -19 199 -19 m 960 375 l 536 375 l 536 444 q 585 641 536 572 q 747 710 633 710 q 910 641 861 710 q 960 444 960 572 l 960 375 m 328 -1 q 158 42 210 -1 q 107 183 107 85 q 159 327 107 283 q 332 371 211 371 q 517 351 414 371 l 517 243 q 531 126 517 174 q 328 -1 493 -1 m 439 856 l 632 1013 q 633 1022 639 1017 l 628 1026 q 617 1026 622 1032 l 428 871 q 425 860 419 865 l 429 856 q 439 856 433 851 "},"b":{"ha":738,"x_min":128,"x_max":631,"o":"m 372 -19 q 631 256 631 -19 l 631 464 q 567 660 631 593 q 382 728 503 728 q 147 664 258 728 l 147 1022 q 142 1028 147 1028 l 133 1028 q 128 1022 128 1028 l 128 96 q 138 48 128 63 q 178 19 147 33 q 372 -19 261 -19 m 372 0 q 186 38 267 0 q 153 60 160 50 q 147 96 147 69 l 147 643 q 381 708 261 708 q 552 647 493 708 q 611 464 611 585 l 611 256 q 372 0 614 0 "},"c":{"ha":708,"x_min":106,"x_max":625,"o":"m 365 -19 q 531 28 472 -19 q 624 182 589 75 q 621 189 625 186 l 611 192 q 607 192 608 193 q 606 188 606 190 q 519 44 575 89 q 365 0 464 0 q 188 65 250 0 q 125 244 125 131 l 125 465 q 186 644 125 579 q 365 708 247 708 q 522 666 468 708 q 601 526 576 624 q 608 524 601 521 l 617 526 q 619 535 621 529 q 535 680 593 632 q 365 728 478 728 q 172 658 238 728 q 106 465 106 589 l 106 244 q 173 51 106 121 q 365 -19 240 -19 "},"ć":{"ha":708,"x_min":106,"x_max":625,"o":"m 365 -19 q 531 28 472 -19 q 624 182 589 75 q 621 189 625 186 l 611 192 q 607 192 608 193 q 606 188 606 190 q 519 44 575 89 q 365 0 464 0 q 188 65 250 0 q 125 244 125 131 l 125 465 q 186 644 125 579 q 365 708 247 708 q 522 666 468 708 q 601 526 576 624 q 608 524 601 521 l 617 526 q 619 535 621 529 q 535 680 593 632 q 365 728 478 728 q 172 658 238 728 q 106 465 106 589 l 106 244 q 173 51 106 121 q 365 -19 240 -19 m 275 856 l 468 1013 q 469 1022 475 1017 l 464 1026 q 453 1026 458 1032 l 264 871 q 261 860 256 865 l 265 856 q 275 856 269 851 "},"č":{"ha":708,"x_min":106,"x_max":625,"o":"m 365 -19 q 531 28 472 -19 q 624 182 589 75 q 621 189 625 186 l 611 192 q 607 192 608 193 q 606 188 606 190 q 519 44 575 89 q 365 0 464 0 q 188 65 250 0 q 125 244 125 131 l 125 465 q 186 644 125 579 q 365 708 247 708 q 522 666 468 708 q 601 526 576 624 q 608 524 601 521 l 617 526 q 619 535 621 529 q 535 680 593 632 q 365 728 478 728 q 172 658 238 728 q 106 465 106 589 l 106 244 q 173 51 106 121 q 365 -19 240 -19 m 365 843 l 367 843 q 376 846 372 843 q 381 850 379 849 l 553 1014 q 556 1018 556 1017 q 550 1019 556 1019 l 538 1019 q 526 1015 532 1019 l 365 861 l 207 1015 q 196 1019 203 1019 l 185 1019 q 181 1014 175 1019 l 350 850 q 358 844 354 846 q 365 843 361 843 "},"ç":{"ha":708,"x_min":106,"x_max":625,"o":"m 360 -339 q 459 -309 422 -339 q 496 -219 496 -279 q 464 -148 496 -174 q 379 -122 432 -122 q 342 -128 354 -122 l 371 -19 q 532 29 475 -18 q 624 182 589 76 q 621 189 625 186 l 611 192 q 607 192 608 193 q 606 188 606 190 q 519 44 575 89 q 365 0 464 0 q 188 65 250 0 q 125 244 125 131 l 125 465 q 186 644 125 579 q 365 708 247 708 q 522 666 468 708 q 601 526 576 624 q 608 524 601 521 l 617 526 q 619 535 621 529 q 535 680 593 632 q 365 728 478 728 q 172 658 238 728 q 106 465 106 589 l 106 244 q 169 54 106 124 q 353 -19 233 -15 l 319 -139 q 321 -147 318 -143 q 328 -150 324 -150 l 331 -150 q 375 -139 350 -139 q 449 -160 422 -139 q 476 -219 476 -181 q 444 -297 476 -272 q 358 -321 413 -321 q 263 -278 300 -321 q 259 -277 261 -276 q 257 -281 257 -278 l 257 -289 q 264 -304 257 -299 q 306 -329 285 -319 q 360 -339 326 -339 "},"ĉ":{"ha":708,"x_min":106,"x_max":625,"o":"m 365 -19 q 531 28 472 -19 q 624 182 589 75 q 621 189 625 186 l 611 192 q 607 192 608 193 q 606 188 606 190 q 519 44 575 89 q 365 0 464 0 q 188 65 250 0 q 125 244 125 131 l 125 465 q 186 644 125 579 q 365 708 247 708 q 522 666 468 708 q 601 526 576 624 q 608 524 601 521 l 617 526 q 619 535 621 529 q 535 680 593 632 q 365 728 478 728 q 172 658 238 728 q 106 465 106 589 l 106 244 q 173 51 106 121 q 365 -19 240 -19 m 182 843 l 194 843 q 206 847 199 843 l 367 1001 l 525 847 q 536 843 529 843 l 547 843 q 551 849 557 843 l 382 1013 q 374 1018 378 1017 q 367 1019 371 1019 l 365 1019 q 358 1018 361 1019 q 350 1013 354 1017 l 179 849 q 176 844 176 846 q 182 843 176 843 "},"ċ":{"ha":708,"x_min":106,"x_max":625,"o":"m 365 -19 q 531 28 472 -19 q 624 182 589 75 q 621 189 625 186 l 611 192 q 607 192 608 193 q 606 188 606 190 q 519 44 575 89 q 365 0 464 0 q 188 65 250 0 q 125 244 125 131 l 125 465 q 186 644 125 579 q 365 708 247 708 q 522 666 468 708 q 601 526 576 624 q 608 524 601 521 l 617 526 q 619 535 621 529 q 535 680 593 632 q 365 728 478 728 q 172 658 238 728 q 106 465 106 589 l 106 244 q 173 51 106 121 q 365 -19 240 -19 m 364 918 l 369 918 q 389 938 389 918 l 389 943 q 369 963 389 963 l 364 963 q 344 943 344 963 l 344 938 q 349 922 344 926 q 364 918 353 918 "},"d":{"ha":738,"x_min":107,"x_max":610,"o":"m 365 -19 q 560 19 476 -19 q 600 48 590 33 q 610 96 610 63 l 610 1022 q 604 1028 610 1028 l 596 1028 q 590 1022 590 1028 l 590 664 q 356 728 479 728 q 171 660 235 728 q 107 464 107 593 l 107 256 q 365 -19 107 -19 m 365 0 q 126 256 124 0 l 126 464 q 185 647 126 585 q 357 708 244 708 q 590 643 476 708 l 590 96 q 584 60 590 69 q 551 38 578 50 q 365 0 471 0 "},"ð":{"ha":758,"x_min":106,"x_max":635,"o":"m 371 -19 q 567 48 499 -19 q 635 236 635 115 l 635 565 q 606 790 635 697 q 514 938 576 882 l 597 1022 q 600 1027 600 1025 q 597 1032 600 1029 l 593 1036 q 588 1039 590 1039 q 583 1036 586 1039 l 499 950 q 211 1028 400 1028 q 206 1022 206 1028 l 206 1015 q 207 1011 206 1013 q 211 1010 208 1010 q 486 936 389 1010 l 367 814 q 364 809 364 811 q 367 804 364 807 l 371 800 q 376 797 374 797 q 381 800 378 797 l 501 924 q 588 779 561 869 q 617 558 615 689 q 528 669 592 629 q 371 710 465 710 q 173 642 240 710 q 106 451 106 574 l 106 236 q 173 48 106 115 q 371 -19 240 -19 m 371 0 q 188 62 251 0 q 125 236 125 124 l 125 451 q 188 627 125 564 q 371 690 251 690 q 552 628 489 690 q 615 453 615 565 l 615 236 q 552 63 615 125 q 371 0 489 0 "},"ď":{"ha":832,"x_min":107,"x_max":853,"o":"m 365 -19 q 560 19 476 -19 q 600 48 590 33 q 610 96 610 63 l 610 1022 q 604 1028 610 1028 l 596 1028 q 590 1022 590 1028 l 590 664 q 356 728 479 728 q 171 660 235 728 q 107 464 107 593 l 107 256 q 365 -19 107 -19 m 764 707 l 769 707 q 778 714 776 707 l 851 1022 q 846 1028 853 1028 l 838 1028 q 831 1022 832 1028 l 758 714 q 764 707 757 707 m 365 0 q 126 256 124 0 l 126 464 q 185 647 126 585 q 357 708 244 708 q 590 643 476 708 l 590 96 q 584 60 590 69 q 551 38 578 50 q 365 0 471 0 "},"đ":{"ha":738,"x_min":107,"x_max":725,"o":"m 365 -19 q 560 19 476 -19 q 600 48 590 33 q 610 96 610 63 l 610 871 l 718 871 q 725 878 725 871 l 725 881 q 718 888 725 888 l 610 888 l 610 1022 q 604 1028 610 1028 l 596 1028 q 590 1022 590 1028 l 590 888 l 372 888 q 365 881 365 888 l 365 878 q 372 871 365 871 l 590 871 l 590 664 q 356 728 479 728 q 171 660 235 728 q 107 464 107 593 l 107 256 q 365 -19 107 -19 m 365 0 q 126 256 124 0 l 126 464 q 185 647 126 585 q 357 708 244 708 q 590 643 476 708 l 590 96 q 584 60 590 69 q 551 38 578 50 q 365 0 471 0 "},"e":{"ha":724,"x_min":103,"x_max":628,"o":"m 357 -19 q 624 150 546 -19 q 621 157 626 154 l 614 161 q 606 158 610 164 q 511 40 569 81 q 357 -1 453 -1 q 182 65 242 -1 q 122 246 122 131 l 122 357 l 610 357 q 628 375 628 357 l 628 442 q 561 651 628 575 q 367 728 494 728 q 170 651 238 728 q 103 442 103 575 l 103 246 q 167 51 103 121 q 357 -19 232 -19 m 608 375 l 122 375 l 122 442 q 185 638 122 567 q 367 710 247 710 q 547 638 486 710 q 608 442 608 567 l 608 375 "},"é":{"ha":724,"x_min":103,"x_max":628,"o":"m 357 -19 q 624 150 546 -19 q 621 157 626 154 l 614 161 q 606 158 610 164 q 511 40 569 81 q 357 -1 453 -1 q 182 65 242 -1 q 122 246 122 131 l 122 357 l 610 357 q 628 375 628 357 l 628 442 q 561 651 628 575 q 367 728 494 728 q 170 651 238 728 q 103 442 103 575 l 103 246 q 167 51 103 121 q 357 -19 232 -19 m 608 375 l 122 375 l 122 442 q 185 638 122 567 q 367 710 247 710 q 547 638 486 710 q 608 442 608 567 l 608 375 m 276 857 l 469 1014 q 471 1024 476 1018 l 465 1028 q 454 1028 460 1033 l 265 872 q 263 861 257 867 l 267 857 q 276 857 271 853 "},"ĕ":{"ha":724,"x_min":103,"x_max":628,"o":"m 357 -19 q 624 150 546 -19 q 621 157 626 154 l 614 161 q 606 158 610 164 q 511 40 569 81 q 357 -1 453 -1 q 182 65 242 -1 q 122 246 122 131 l 122 357 l 610 357 q 628 375 628 357 l 628 442 q 561 651 628 575 q 367 728 494 728 q 170 651 238 728 q 103 442 103 575 l 103 246 q 167 51 103 121 q 357 -19 232 -19 m 608 375 l 122 375 l 122 442 q 185 638 122 567 q 367 710 247 710 q 547 638 486 710 q 608 442 608 567 l 608 375 m 367 853 q 481 891 439 853 q 544 1013 524 929 q 540 1021 546 1019 l 533 1022 q 526 1017 528 1022 q 469 907 507 942 q 367 872 432 872 q 264 907 301 872 q 207 1017 226 942 q 200 1022 206 1022 l 193 1021 q 189 1013 188 1019 q 252 891 210 929 q 367 853 294 853 "},"ě":{"ha":724,"x_min":103,"x_max":628,"o":"m 357 -19 q 624 150 546 -19 q 621 157 626 154 l 614 161 q 606 158 610 164 q 511 40 569 81 q 357 -1 453 -1 q 182 65 242 -1 q 122 246 122 131 l 122 357 l 610 357 q 628 375 628 357 l 628 442 q 561 651 628 575 q 367 728 494 728 q 170 651 238 728 q 103 442 103 575 l 103 246 q 167 51 103 121 q 357 -19 232 -19 m 608 375 l 122 375 l 122 442 q 185 638 122 567 q 367 710 247 710 q 547 638 486 710 q 608 442 608 567 l 608 375 m 367 844 l 368 844 q 377 847 374 844 q 382 851 381 850 l 554 1015 q 557 1019 557 1018 q 551 1021 557 1021 l 539 1021 q 528 1017 533 1021 l 367 863 l 208 1017 q 197 1021 204 1021 l 186 1021 q 182 1015 176 1021 l 351 851 q 359 846 356 847 q 367 844 363 844 "},"ê":{"ha":724,"x_min":103,"x_max":628,"o":"m 357 -19 q 624 150 546 -19 q 621 157 626 154 l 614 161 q 606 158 610 164 q 511 40 569 81 q 357 -1 453 -1 q 182 65 242 -1 q 122 246 122 131 l 122 357 l 610 357 q 628 375 628 357 l 628 442 q 561 651 628 575 q 367 728 494 728 q 170 651 238 728 q 103 442 103 575 l 103 246 q 167 51 103 121 q 357 -19 232 -19 m 608 375 l 122 375 l 122 442 q 185 638 122 567 q 367 710 247 710 q 547 638 486 710 q 608 442 608 567 l 608 375 m 183 844 l 196 844 q 207 849 200 844 l 368 1003 l 526 849 q 538 844 531 844 l 549 844 q 553 850 558 844 l 383 1014 q 376 1019 379 1018 q 368 1021 372 1021 l 367 1021 q 359 1019 363 1021 q 351 1014 356 1018 l 181 850 q 178 846 178 847 q 183 844 178 844 "},"ë":{"ha":724,"x_min":103,"x_max":628,"o":"m 357 -19 q 624 150 546 -19 q 621 157 626 154 l 614 161 q 606 158 610 164 q 511 40 569 81 q 357 -1 453 -1 q 182 65 242 -1 q 122 246 122 131 l 122 357 l 610 357 q 628 375 628 357 l 628 442 q 561 651 628 575 q 367 728 494 728 q 170 651 238 728 q 103 442 103 575 l 103 246 q 167 51 103 121 q 357 -19 232 -19 m 608 375 l 122 375 l 122 442 q 185 638 122 567 q 367 710 247 710 q 547 638 486 710 q 608 442 608 567 l 608 375 m 246 919 l 251 919 q 267 924 263 919 q 272 940 272 929 l 272 946 q 267 962 272 957 q 251 967 263 967 l 246 967 q 230 962 235 967 q 225 946 225 957 l 225 940 q 230 924 225 928 q 246 919 235 919 m 493 919 l 499 919 q 515 924 510 919 q 519 940 519 929 l 519 946 q 515 962 519 957 q 499 967 510 967 l 493 967 q 477 962 482 967 q 472 946 472 957 l 472 940 q 477 924 472 928 q 493 919 482 919 "},"ė":{"ha":724,"x_min":103,"x_max":628,"o":"m 357 -19 q 624 150 546 -19 q 621 157 626 154 l 614 161 q 606 158 610 164 q 511 40 569 81 q 357 -1 453 -1 q 182 65 242 -1 q 122 246 122 131 l 122 357 l 610 357 q 628 375 628 357 l 628 442 q 561 651 628 575 q 367 728 494 728 q 170 651 238 728 q 103 442 103 575 l 103 246 q 167 51 103 121 q 357 -19 232 -19 m 608 375 l 122 375 l 122 442 q 185 638 122 567 q 367 710 247 710 q 547 638 486 710 q 608 442 608 567 l 608 375 m 365 919 l 371 919 q 390 939 390 919 l 390 944 q 371 964 390 964 l 365 964 q 346 944 346 964 l 346 939 q 350 924 346 928 q 365 919 354 919 "},"è":{"ha":724,"x_min":103,"x_max":628,"o":"m 357 -19 q 624 150 546 -19 q 621 157 626 154 l 614 161 q 606 158 610 164 q 511 40 569 81 q 357 -1 453 -1 q 182 65 242 -1 q 122 246 122 131 l 122 357 l 610 357 q 628 375 628 357 l 628 442 q 561 651 628 575 q 367 728 494 728 q 170 651 238 728 q 103 442 103 575 l 103 246 q 167 51 103 121 q 357 -19 232 -19 m 608 375 l 122 375 l 122 442 q 185 638 122 567 q 367 710 247 710 q 547 638 486 710 q 608 442 608 567 l 608 375 m 258 1013 l 451 856 q 461 856 456 851 l 465 860 q 463 871 471 865 l 274 1026 q 263 1026 268 1032 l 257 1021 q 258 1013 253 1017 "},"ē":{"ha":724,"x_min":103,"x_max":628,"o":"m 357 -19 q 624 150 546 -19 q 621 157 626 154 l 614 161 q 606 158 610 164 q 511 40 569 81 q 357 -1 453 -1 q 182 65 242 -1 q 122 246 122 131 l 122 357 l 610 357 q 628 375 628 357 l 628 442 q 561 651 628 575 q 367 728 494 728 q 170 651 238 728 q 103 442 103 575 l 103 246 q 167 51 103 121 q 357 -19 232 -19 m 608 375 l 122 375 l 122 442 q 185 638 122 567 q 367 710 247 710 q 547 638 486 710 q 608 442 608 567 l 608 375 m 214 919 l 519 919 q 525 925 525 919 l 525 932 q 519 938 525 938 l 214 938 q 208 932 208 938 l 208 925 q 214 919 208 919 "},"ę":{"ha":724,"x_min":103,"x_max":628,"o":"m 485 -344 q 535 -333 513 -344 q 582 -296 558 -321 q 585 -287 586 -292 l 581 -276 q 575 -275 579 -271 q 486 -325 535 -325 q 433 -306 456 -325 q 411 -246 411 -287 q 455 -99 411 -187 q 560 56 499 -11 q 624 150 600 96 q 621 157 626 154 l 614 161 q 606 158 610 164 q 511 40 569 81 q 357 -1 453 -1 q 182 65 242 -1 q 122 246 122 131 l 122 357 l 610 357 q 628 375 628 357 l 628 442 q 561 651 628 575 q 367 728 494 728 q 170 651 238 728 q 103 442 103 575 l 103 246 q 167 51 103 121 q 357 -19 232 -19 q 504 14 442 -19 q 423 -123 454 -51 q 392 -247 392 -194 q 419 -320 392 -296 q 485 -344 447 -344 m 608 375 l 122 375 l 122 442 q 185 638 122 567 q 367 710 247 710 q 547 638 486 710 q 608 442 608 567 l 608 375 "},"f":{"ha":440,"x_min":32,"x_max":400,"o":"m 181 0 l 189 0 q 194 6 194 0 l 194 690 l 394 690 q 400 696 400 690 l 400 703 q 394 708 400 708 l 194 708 l 194 767 q 210 919 194 868 q 268 989 226 969 q 393 1008 310 1008 q 399 1014 399 1008 l 399 1022 q 393 1028 399 1028 l 386 1028 q 256 1005 301 1028 q 193 926 211 982 q 175 767 175 871 l 175 708 l 38 708 q 32 703 32 708 l 32 696 q 38 690 32 690 l 175 690 l 175 6 q 181 0 175 0 "},"g":{"ha":735,"x_min":107,"x_max":607,"o":"m 354 -361 q 607 -62 607 -361 l 607 613 q 597 660 607 646 q 557 689 588 675 q 363 728 474 728 q 107 453 107 728 l 107 243 q 339 -19 107 -19 q 588 38 482 -19 l 588 -62 q 354 -342 588 -342 q 219 -301 268 -342 q 138 -186 169 -261 q 128 -183 135 -181 l 121 -186 q 119 -194 115 -189 q 208 -317 153 -274 q 354 -361 263 -361 m 340 -1 q 126 243 126 -1 l 126 453 q 185 645 126 581 q 363 710 243 710 q 467 699 418 710 q 549 671 515 688 q 581 649 575 658 q 588 613 588 639 l 588 60 q 483 15 540 32 q 340 -1 425 -1 "},"ğ":{"ha":735,"x_min":107,"x_max":607,"o":"m 354 -361 q 607 -62 607 -361 l 607 613 q 597 660 607 646 q 557 689 588 675 q 363 728 474 728 q 107 453 107 728 l 107 243 q 339 -19 107 -19 q 588 38 482 -19 l 588 -62 q 354 -342 588 -342 q 219 -301 268 -342 q 138 -186 169 -261 q 128 -183 135 -181 l 121 -186 q 119 -194 115 -189 q 208 -317 153 -274 q 354 -361 263 -361 m 340 -1 q 126 243 126 -1 l 126 453 q 185 645 126 581 q 363 710 243 710 q 467 699 418 710 q 549 671 515 688 q 581 649 575 658 q 588 613 588 639 l 588 60 q 483 15 540 32 q 340 -1 425 -1 m 375 851 q 490 890 447 851 q 553 1011 532 928 q 549 1019 554 1018 l 542 1021 q 535 1015 536 1021 q 478 906 515 940 q 375 871 440 871 q 272 906 310 871 q 215 1015 235 940 q 208 1021 214 1021 l 201 1019 q 197 1011 196 1018 q 260 890 218 928 q 375 851 303 851 "},"ĝ":{"ha":735,"x_min":107,"x_max":607,"o":"m 354 -361 q 607 -62 607 -361 l 607 613 q 597 660 607 646 q 557 689 588 675 q 363 728 474 728 q 107 453 107 728 l 107 243 q 339 -19 107 -19 q 588 38 482 -19 l 588 -62 q 354 -342 588 -342 q 219 -301 268 -342 q 138 -186 169 -261 q 128 -183 135 -181 l 121 -186 q 119 -194 115 -189 q 208 -317 153 -274 q 354 -361 263 -361 m 340 -1 q 126 243 126 -1 l 126 453 q 185 645 126 581 q 363 710 243 710 q 467 699 418 710 q 549 671 515 688 q 581 649 575 658 q 588 613 588 639 l 588 60 q 483 15 540 32 q 340 -1 425 -1 m 192 843 l 204 843 q 215 847 208 843 l 376 1001 l 535 847 q 546 843 539 843 l 557 843 q 561 849 567 843 l 392 1013 q 384 1018 388 1017 q 376 1019 381 1019 l 375 1019 q 367 1018 371 1019 q 360 1013 364 1017 l 189 849 q 186 844 186 846 q 192 843 186 843 "},"ģ":{"ha":735,"x_min":107,"x_max":607,"o":"m 361 818 l 368 818 q 373 819 371 818 q 376 824 375 821 l 456 1010 q 450 1017 460 1017 l 444 1017 q 438 1014 439 1017 q 436 1010 436 1011 l 356 825 q 361 818 353 818 m 354 -361 q 607 -62 607 -361 l 607 613 q 597 660 607 646 q 557 689 588 675 q 363 728 474 728 q 107 453 107 728 l 107 243 q 339 -19 107 -19 q 588 38 482 -19 l 588 -62 q 354 -342 588 -342 q 219 -301 268 -342 q 138 -186 169 -261 q 128 -183 135 -181 l 121 -186 q 119 -194 115 -189 q 208 -317 153 -274 q 354 -361 263 -361 m 340 -1 q 126 243 126 -1 l 126 453 q 185 645 126 581 q 363 710 243 710 q 467 699 418 710 q 549 671 515 688 q 581 649 575 658 q 588 613 588 639 l 588 60 q 483 15 540 32 q 340 -1 425 -1 "},"ġ":{"ha":735,"x_min":107,"x_max":607,"o":"m 354 -361 q 607 -62 607 -361 l 607 613 q 597 660 607 646 q 557 689 588 675 q 363 728 474 728 q 107 453 107 728 l 107 243 q 339 -19 107 -19 q 588 38 482 -19 l 588 -62 q 354 -342 588 -342 q 219 -301 268 -342 q 138 -186 169 -261 q 128 -183 135 -181 l 121 -186 q 119 -194 115 -189 q 208 -317 153 -274 q 354 -361 263 -361 m 340 -1 q 126 243 126 -1 l 126 453 q 185 645 126 581 q 363 710 243 710 q 467 699 418 710 q 549 671 515 688 q 581 649 575 658 q 588 613 588 639 l 588 60 q 483 15 540 32 q 340 -1 425 -1 m 374 918 l 379 918 q 399 938 399 918 l 399 943 q 379 963 399 963 l 374 963 q 354 943 354 963 l 354 938 q 358 922 354 926 q 374 918 363 918 "},"h":{"ha":757,"x_min":132,"x_max":632,"o":"m 138 0 l 146 0 q 151 6 151 0 l 151 647 q 396 710 263 710 q 560 647 507 710 q 613 463 613 585 l 613 6 q 618 0 613 0 l 626 0 q 632 6 632 0 l 632 464 q 397 728 632 728 q 151 668 264 728 l 151 1022 q 146 1028 151 1028 l 138 1028 q 132 1022 132 1028 l 132 6 q 138 0 132 0 "},"ħ":{"ha":756,"x_min":36,"x_max":631,"o":"m 136 0 l 144 0 q 150 6 150 0 l 150 647 q 394 710 261 710 q 558 647 506 710 q 611 463 611 585 l 611 6 q 617 0 611 0 l 625 0 q 631 6 631 0 l 631 464 q 396 728 631 728 q 150 668 263 728 l 150 879 l 360 879 q 365 881 364 879 q 367 888 367 883 l 367 890 q 360 897 367 897 l 150 897 l 150 1022 q 144 1028 150 1028 l 136 1028 q 131 1022 131 1028 l 131 897 l 43 897 q 36 890 36 897 l 36 888 q 38 881 36 883 q 43 879 39 879 l 131 879 l 131 6 q 136 0 131 0 "},"ĥ":{"ha":757,"x_min":-50,"x_max":632,"o":"m 138 0 l 146 0 q 151 6 151 0 l 151 647 q 396 710 263 710 q 560 647 507 710 q 613 463 613 585 l 613 6 q 618 0 613 0 l 626 0 q 632 6 632 0 l 632 464 q 397 728 632 728 q 151 668 264 728 l 151 1022 q 146 1028 151 1028 l 138 1028 q 132 1022 132 1028 l 132 6 q 138 0 132 0 m -40 1075 l -28 1075 q -18 1079 -22 1075 l 143 1233 l 301 1079 q 313 1075 306 1075 l 324 1075 q 328 1081 333 1075 l 158 1244 q 151 1250 154 1249 q 143 1251 147 1251 l 142 1251 q 134 1250 138 1251 q 126 1244 131 1249 l -44 1081 q -40 1075 -50 1075 "},"i":{"ha":283,"x_min":119,"x_max":164,"o":"m 139 918 l 144 918 q 164 938 164 918 l 164 943 q 144 963 164 963 l 139 963 q 119 943 119 963 l 119 938 q 124 922 119 926 q 139 918 128 918 m 138 0 l 146 0 q 151 6 151 0 l 151 703 q 146 708 151 708 l 138 708 q 132 703 132 708 l 132 6 q 138 0 132 0 "},"ı":{"ha":283,"x_min":132,"x_max":151,"o":"m 138 0 l 146 0 q 151 6 151 0 l 151 703 q 146 708 151 708 l 138 708 q 132 703 132 708 l 132 6 q 138 0 132 0 "},"í":{"ha":283,"x_min":32,"x_max":251,"o":"m 138 0 l 146 0 q 151 6 151 0 l 151 703 q 146 708 151 708 l 138 708 q 132 703 132 708 l 132 6 q 138 0 132 0 m 51 856 l 244 1013 q 246 1022 251 1017 l 240 1026 q 229 1026 235 1032 l 40 871 q 38 860 32 865 l 42 856 q 51 856 46 851 "},"ĭ":{"ha":283,"x_min":7,"x_max":274,"o":"m 140 840 q 232 877 197 840 q 274 986 267 914 q 269 993 274 992 l 263 994 q 256 990 256 994 q 220 892 250 925 q 140 860 190 860 q 60 892 90 860 q 25 990 31 925 q 18 994 25 994 l 10 993 q 7 986 7 993 q 49 877 14 914 q 140 840 83 840 m 138 0 l 146 0 q 151 6 151 0 l 151 703 q 146 708 151 708 l 138 708 q 132 703 132 708 l 132 6 q 138 0 132 0 "},"î":{"ha":283,"x_min":4,"x_max":275,"o":"m 11 842 l 22 842 q 33 846 31 842 l 140 986 l 247 846 q 260 842 250 842 l 268 842 q 274 843 272 842 q 272 847 275 844 l 156 997 q 146 1004 151 1004 l 142 1004 l 138 1004 q 133 1004 136 1004 q 125 997 129 1004 l 7 847 q 11 842 4 842 m 138 0 l 146 0 q 151 6 151 0 l 151 703 q 146 708 151 708 l 138 708 q 132 703 132 708 l 132 6 q 138 0 132 0 "},"ï":{"ha":283,"x_min":46,"x_max":235,"o":"m 61 882 l 69 882 q 82 885 79 882 q 85 897 85 888 l 85 906 q 82 917 85 914 q 69 921 79 921 l 61 921 q 46 906 46 921 l 46 897 q 49 885 46 888 q 61 882 53 882 m 211 882 l 218 882 q 231 885 226 882 q 235 897 235 889 l 235 906 q 218 921 235 921 l 211 921 q 198 917 201 921 q 194 906 194 914 l 194 897 q 198 885 194 888 q 211 882 201 882 m 138 0 l 146 0 q 151 6 151 0 l 151 703 q 146 708 151 708 l 138 708 q 132 703 132 708 l 132 6 q 138 0 132 0 "},"ì":{"ha":283,"x_min":28,"x_max":246,"o":"m 138 0 l 146 0 q 151 6 151 0 l 151 703 q 146 708 151 708 l 138 708 q 132 703 132 708 l 132 6 q 138 0 132 0 m 33 1011 l 226 854 q 236 854 231 850 l 240 858 q 238 869 246 864 l 49 1025 q 38 1025 43 1031 l 32 1019 q 33 1011 28 1015 "},"ĳ":{"ha":513,"x_min":119,"x_max":394,"o":"m 139 918 l 144 918 q 164 938 164 918 l 164 943 q 144 963 164 963 l 139 963 q 119 943 119 963 l 119 938 q 124 922 119 926 q 139 918 128 918 m 138 0 l 146 0 q 151 6 151 0 l 151 703 q 146 708 151 708 l 138 708 q 132 703 132 708 l 132 6 q 138 0 132 0 "},"ī":{"ha":283,"x_min":33,"x_max":247,"o":"m 39 876 l 242 876 q 247 882 247 876 l 247 889 q 242 894 247 894 l 39 894 q 33 889 33 894 l 33 882 q 39 876 33 876 m 138 0 l 146 0 q 151 6 151 0 l 151 703 q 146 708 151 708 l 138 708 q 132 703 132 708 l 132 6 q 138 0 132 0 "},"į":{"ha":283,"x_min":47,"x_max":226,"o":"m 139 918 l 144 918 q 164 938 164 918 l 164 943 q 144 963 164 963 l 139 963 q 119 943 119 963 l 119 938 q 124 922 119 926 q 139 918 128 918 m 135 -342 q 182 -329 158 -342 q 222 -289 206 -317 q 224 -285 222 -287 q 222 -281 226 -283 l 217 -276 q 210 -276 213 -274 q 176 -313 196 -301 q 135 -325 156 -325 q 92 -306 111 -325 q 71 -258 72 -286 q 96 -112 65 -189 q 150 1 126 -35 q 151 6 151 1 l 151 703 q 146 708 151 708 l 138 708 q 132 703 132 708 l 132 6 l 132 3 q 78 -113 108 -36 q 53 -260 47 -190 q 78 -318 56 -294 q 135 -342 101 -342 "},"ĩ":{"ha":283,"x_min":3,"x_max":276,"o":"m 8 843 l 14 843 q 19 849 19 843 q 33 924 19 901 q 75 947 46 947 q 110 935 99 947 q 136 899 122 924 q 165 857 150 871 q 208 843 179 843 q 260 871 244 843 q 276 960 276 899 q 271 965 276 965 l 265 965 q 260 960 260 965 q 248 884 260 907 q 208 861 236 861 q 174 873 186 861 q 149 910 163 885 q 119 951 135 936 q 75 965 104 965 q 20 938 38 965 q 3 849 3 910 q 8 843 3 843 m 138 0 l 146 0 q 151 6 151 0 l 151 703 q 146 708 151 708 l 138 708 q 132 703 132 708 l 132 6 q 138 0 132 0 "},"j":{"ha":283,"x_min":-65,"x_max":165,"o":"m -60 -319 q 83 -286 38 -319 q 140 -192 128 -253 q 151 -18 151 -132 l 151 703 q 146 708 151 708 l 138 708 q 132 703 132 708 l 132 -18 q 122 -183 132 -128 q 72 -269 113 -237 q -60 -300 31 -300 q -65 -306 -65 -300 l -65 -314 q -60 -319 -65 -319 m 140 918 l 146 918 q 165 938 165 918 l 165 943 q 146 963 165 963 l 140 963 q 121 943 121 963 l 121 938 q 125 922 121 926 q 140 918 129 918 "},"ȷ":{"ha":283,"x_min":-65,"x_max":151,"o":"m -60 -319 q 83 -286 38 -319 q 140 -192 128 -253 q 151 -18 151 -132 l 151 703 q 146 708 151 708 l 138 708 q 132 703 132 708 l 132 -18 q 122 -183 132 -128 q 72 -269 113 -237 q -60 -300 31 -300 q -65 -306 -65 -300 l -65 -314 q -60 -319 -65 -319 "},"ĵ":{"ha":283,"x_min":-65,"x_max":289,"o":"m -1 826 l 11 826 q 22 831 18 826 l 140 982 l 257 831 q 269 826 261 826 l 279 826 q 283 832 289 826 l 157 993 q 146 1000 151 1000 l 142 1000 l 138 1000 q 133 1000 136 1000 q 124 993 129 1000 l -4 832 q -1 826 -10 826 m -60 -319 q 83 -286 38 -319 q 140 -192 128 -253 q 151 -18 151 -132 l 151 703 q 146 708 151 708 l 138 708 q 132 703 132 708 l 132 -18 q 122 -183 132 -128 q 72 -269 113 -237 q -60 -300 31 -300 q -65 -306 -65 -300 l -65 -314 q -60 -319 -65 -319 "},"k":{"ha":678,"x_min":132,"x_max":619,"o":"m 138 0 l 146 0 q 151 6 151 0 l 151 357 l 339 357 q 427 333 394 357 q 483 256 460 308 l 596 4 q 606 0 599 0 l 614 0 q 617 6 619 0 l 501 264 q 452 338 481 313 q 375 372 424 364 l 604 701 q 600 708 608 708 l 593 708 q 586 708 589 708 q 581 703 583 707 l 354 375 l 339 375 l 151 375 l 151 1022 q 146 1028 151 1028 l 138 1028 q 132 1022 132 1028 l 132 6 q 138 0 132 0 "},"ķ":{"ha":678,"x_min":132,"x_max":619,"o":"m 138 0 l 146 0 q 151 6 151 0 l 151 357 l 339 357 q 427 333 394 357 q 483 256 460 308 l 596 4 q 606 0 599 0 l 614 0 q 617 6 619 0 l 501 264 q 452 338 481 313 q 375 372 424 364 l 604 701 q 600 708 608 708 l 593 708 q 586 708 589 708 q 581 703 583 707 l 354 375 l 339 375 l 151 375 l 151 1022 q 146 1028 151 1028 l 138 1028 q 132 1022 132 1028 l 132 6 q 138 0 132 0 m 276 -335 l 282 -335 q 290 -328 289 -335 l 357 -125 q 351 -118 358 -118 l 344 -118 q 338 -119 340 -118 q 336 -124 336 -121 l 271 -328 q 276 -335 269 -335 "},"ĸ":{"ha":613,"x_min":132,"x_max":563,"o":"m 138 0 l 146 0 q 151 6 151 0 l 151 235 l 293 399 l 536 6 q 546 0 539 0 l 554 0 q 558 8 563 0 l 307 413 l 547 701 q 543 708 551 708 l 535 708 q 521 703 525 708 l 151 264 l 151 703 q 146 708 151 708 l 138 708 q 132 703 132 708 l 132 6 q 138 0 132 0 "},"l":{"ha":294,"x_min":138,"x_max":157,"o":"m 143 0 l 151 0 q 157 6 157 0 l 157 1022 q 151 1028 157 1028 l 143 1028 q 138 1022 138 1028 l 138 6 q 143 0 138 0 "},"ĺ":{"ha":294,"x_min":39,"x_max":258,"o":"m 143 0 l 151 0 q 157 6 157 0 l 157 1022 q 151 1028 157 1028 l 143 1028 q 138 1022 138 1028 l 138 6 q 143 0 138 0 m 58 1042 l 251 1199 q 253 1208 258 1203 l 247 1213 q 236 1213 240 1217 l 47 1057 q 44 1046 39 1051 l 49 1042 q 58 1042 53 1038 "},"ľ":{"ha":269,"x_min":136,"x_max":347,"o":"m 142 0 l 150 0 q 156 6 156 0 l 156 1022 q 150 1028 156 1028 l 142 1028 q 136 1022 136 1028 l 136 6 q 142 0 136 0 m 275 749 l 281 749 q 289 756 288 749 l 346 1021 q 340 1028 347 1028 l 332 1028 q 326 1026 328 1028 q 324 1022 324 1025 l 269 756 q 275 749 268 749 "},"ļ":{"ha":294,"x_min":78,"x_max":167,"o":"m 143 0 l 151 0 q 157 6 157 0 l 157 1022 q 151 1028 157 1028 l 143 1028 q 138 1022 138 1028 l 138 6 q 143 0 138 0 m 85 -335 l 90 -335 q 99 -328 97 -335 l 165 -125 q 160 -118 167 -118 l 153 -118 q 147 -119 149 -118 q 144 -124 144 -121 l 79 -328 q 85 -335 78 -335 "},"ŀ":{"ha":392,"x_min":138,"x_max":344,"o":"m 143 0 l 151 0 q 157 6 157 0 l 157 1022 q 151 1028 157 1028 l 143 1028 q 138 1022 138 1028 l 138 6 q 143 0 138 0 m 318 494 l 324 494 q 340 499 335 494 q 344 515 344 504 l 344 521 q 340 537 344 532 q 324 542 335 542 l 318 542 q 302 537 307 542 q 297 521 297 532 l 297 515 q 302 499 297 503 q 318 494 307 494 "},"ł":{"ha":376,"x_min":39,"x_max":336,"o":"m 179 0 l 188 0 q 193 6 193 0 l 193 514 l 331 597 q 333 599 332 599 q 335 602 335 600 q 335 606 336 604 l 331 610 q 328 613 329 611 q 322 611 326 614 l 193 533 l 193 1022 q 188 1028 193 1028 l 179 1028 q 174 1022 174 1028 l 174 522 l 43 443 q 40 435 39 440 l 44 429 q 51 428 47 425 l 174 501 l 174 6 q 179 0 174 0 "},"m":{"ha":1146,"x_min":128,"x_max":1019,"o":"m 133 0 l 142 0 q 147 6 147 0 l 147 608 q 153 644 147 631 q 181 669 160 658 q 261 700 219 690 q 364 710 303 710 q 520 659 471 710 q 569 490 569 608 l 569 6 q 576 0 569 0 l 583 0 q 589 6 589 0 l 589 492 q 563 631 589 579 q 657 688 608 667 q 789 710 706 710 q 949 651 899 710 q 1000 472 1000 593 l 1000 6 q 1006 0 1000 0 l 1014 0 q 1019 6 1019 0 l 1019 474 q 964 664 1019 600 q 789 728 908 728 q 650 706 700 728 q 553 649 600 685 q 364 728 501 728 q 176 688 254 728 q 138 656 149 672 q 128 608 128 639 l 128 6 q 133 0 128 0 "},"n":{"ha":753,"x_min":128,"x_max":628,"o":"m 133 0 l 142 0 q 147 6 147 0 l 147 608 q 153 642 147 629 q 181 665 160 654 q 271 697 215 685 q 392 710 326 710 q 556 647 503 710 q 608 463 608 585 l 608 6 q 614 0 608 0 l 622 0 q 628 6 628 0 l 628 464 q 393 728 628 728 q 175 683 269 728 q 138 656 147 671 q 128 608 128 640 l 128 6 q 133 0 128 0 "},"ń":{"ha":753,"x_min":128,"x_max":628,"o":"m 133 0 l 142 0 q 147 6 147 0 l 147 608 q 153 642 147 629 q 181 665 160 654 q 271 697 215 685 q 392 710 326 710 q 556 647 503 710 q 608 463 608 585 l 608 6 q 614 0 608 0 l 622 0 q 628 6 628 0 l 628 464 q 393 728 628 728 q 175 683 269 728 q 138 656 147 671 q 128 608 128 640 l 128 6 q 133 0 128 0 m 282 857 l 475 1014 q 476 1024 482 1018 l 471 1028 q 460 1028 465 1033 l 271 872 q 268 861 263 867 l 272 857 q 282 857 276 853 "},"ŉ":{"ha":753,"x_min":108,"x_max":628,"o":"m 115 792 l 122 792 q 132 799 129 792 l 194 1007 q 189 1014 199 1014 l 181 1014 q 172 1008 175 1014 l 113 800 q 115 792 108 792 m 133 0 l 142 0 q 147 6 147 0 l 147 608 q 153 642 147 629 q 181 665 160 654 q 271 697 215 685 q 392 710 326 710 q 556 647 503 710 q 608 463 608 585 l 608 6 q 614 0 608 0 l 622 0 q 628 6 628 0 l 628 464 q 393 728 628 728 q 175 683 269 728 q 138 656 147 671 q 128 608 128 640 l 128 6 q 133 0 128 0 "},"ň":{"ha":753,"x_min":128,"x_max":628,"o":"m 133 0 l 142 0 q 147 6 147 0 l 147 608 q 153 642 147 629 q 181 665 160 654 q 271 697 215 685 q 392 710 326 710 q 556 647 503 710 q 608 463 608 585 l 608 6 q 614 0 608 0 l 622 0 q 628 6 628 0 l 628 464 q 393 728 628 728 q 175 683 269 728 q 138 656 147 671 q 128 608 128 640 l 128 6 q 133 0 128 0 m 372 844 l 374 844 q 383 847 379 844 q 388 851 386 850 l 560 1015 q 563 1019 563 1018 q 557 1021 563 1021 l 544 1021 q 533 1017 539 1021 l 372 863 l 214 1017 q 203 1021 210 1021 l 192 1021 q 188 1015 182 1021 l 357 851 q 365 846 361 847 q 372 844 368 844 "},"ņ":{"ha":753,"x_min":128,"x_max":628,"o":"m 133 0 l 142 0 q 147 6 147 0 l 147 608 q 153 642 147 629 q 181 665 160 654 q 271 697 215 685 q 392 710 326 710 q 556 647 503 710 q 608 463 608 585 l 608 6 q 614 0 608 0 l 622 0 q 628 6 628 0 l 628 464 q 393 728 628 728 q 175 683 269 728 q 138 656 147 671 q 128 608 128 640 l 128 6 q 133 0 128 0 m 314 -335 l 319 -335 q 328 -328 326 -335 l 394 -125 q 389 -118 396 -118 l 382 -118 q 376 -119 378 -118 q 374 -124 374 -121 l 308 -328 q 314 -335 307 -335 "},"ŋ":{"ha":753,"x_min":128,"x_max":628,"o":"m 390 -315 q 535 -285 483 -315 q 608 -194 588 -254 q 628 -35 628 -133 l 628 464 q 393 728 628 728 q 175 683 269 728 q 138 656 147 671 q 128 608 128 640 l 128 6 q 133 0 128 0 l 142 0 q 147 6 147 0 l 147 608 q 153 642 147 629 q 181 665 160 654 q 271 697 215 685 q 392 710 326 710 q 556 647 503 710 q 608 463 608 585 l 608 -33 q 590 -183 608 -126 q 524 -267 571 -239 q 390 -296 476 -296 q 386 -297 388 -296 q 385 -301 385 -299 l 385 -310 q 390 -315 385 -315 "},"ñ":{"ha":753,"x_min":128,"x_max":628,"o":"m 133 0 l 142 0 q 147 6 147 0 l 147 608 q 153 642 147 629 q 181 665 160 654 q 271 697 215 685 q 392 710 326 710 q 556 647 503 710 q 608 463 608 585 l 608 6 q 614 0 608 0 l 622 0 q 628 6 628 0 l 628 464 q 393 728 628 728 q 175 683 269 728 q 138 656 147 671 q 128 608 128 640 l 128 6 q 133 0 128 0 m 193 869 l 201 869 q 207 875 207 869 q 226 949 207 921 q 278 978 246 978 q 323 965 304 978 q 367 925 342 951 q 416 883 394 897 q 467 869 438 869 q 533 903 510 869 q 556 990 556 936 q 550 996 556 996 l 542 996 q 536 990 536 996 q 518 916 536 944 q 467 888 500 888 q 422 901 442 888 q 379 939 403 914 q 329 982 350 968 q 278 996 308 996 q 213 962 238 996 q 188 875 188 928 q 193 869 188 869 "},"o":{"ha":740,"x_min":108,"x_max":632,"o":"m 369 -19 q 560 42 489 -19 q 632 211 632 104 l 632 497 q 560 666 632 604 q 369 728 489 728 q 181 665 253 728 q 108 497 108 603 l 108 211 q 181 43 108 106 q 369 -19 253 -19 m 369 -1 q 195 56 263 -1 q 128 210 128 114 l 128 499 q 195 652 128 594 q 369 710 263 710 q 546 652 479 710 q 613 499 613 594 l 613 210 q 546 56 613 114 q 369 -1 479 -1 "},"ó":{"ha":740,"x_min":108,"x_max":632,"o":"m 369 -19 q 560 42 489 -19 q 632 211 632 104 l 632 497 q 560 666 632 604 q 369 728 489 728 q 181 665 253 728 q 108 497 108 603 l 108 211 q 181 43 108 106 q 369 -19 253 -19 m 369 -1 q 195 56 263 -1 q 128 210 128 114 l 128 499 q 195 652 128 594 q 369 710 263 710 q 546 652 479 710 q 613 499 613 594 l 613 210 q 546 56 613 114 q 369 -1 479 -1 m 279 856 l 472 1013 q 474 1022 479 1017 l 468 1026 q 457 1026 463 1032 l 268 871 q 265 860 260 865 l 269 856 q 279 856 274 851 "},"ŏ":{"ha":740,"x_min":108,"x_max":632,"o":"m 369 -19 q 560 42 489 -19 q 632 211 632 104 l 632 497 q 560 666 632 604 q 369 728 489 728 q 181 665 253 728 q 108 497 108 603 l 108 211 q 181 43 108 106 q 369 -19 253 -19 m 369 -1 q 195 56 263 -1 q 128 210 128 114 l 128 499 q 195 652 128 594 q 369 710 263 710 q 546 652 479 710 q 613 499 613 594 l 613 210 q 546 56 613 114 q 369 -1 479 -1 m 369 851 q 484 890 442 851 q 547 1011 526 928 q 543 1019 549 1018 l 536 1021 q 529 1015 531 1021 q 472 906 510 940 q 369 871 435 871 q 267 906 304 871 q 210 1015 229 940 q 203 1021 208 1021 l 196 1019 q 192 1011 190 1018 q 255 890 213 928 q 369 851 297 851 "},"ô":{"ha":740,"x_min":108,"x_max":632,"o":"m 369 -19 q 560 42 489 -19 q 632 211 632 104 l 632 497 q 560 666 632 604 q 369 728 489 728 q 181 665 253 728 q 108 497 108 603 l 108 211 q 181 43 108 106 q 369 -19 253 -19 m 369 -1 q 195 56 263 -1 q 128 210 128 114 l 128 499 q 195 652 128 594 q 369 710 263 710 q 546 652 479 710 q 613 499 613 594 l 613 210 q 546 56 613 114 q 369 -1 479 -1 m 186 843 l 199 843 q 210 847 203 843 l 371 1001 l 529 847 q 540 843 533 843 l 551 843 q 556 849 561 843 l 386 1013 q 378 1018 382 1017 q 371 1019 375 1019 l 369 1019 q 362 1018 365 1019 q 354 1013 358 1017 l 183 849 q 181 844 181 846 q 186 843 181 843 "},"ö":{"ha":740,"x_min":108,"x_max":632,"o":"m 369 -19 q 560 42 489 -19 q 632 211 632 104 l 632 497 q 560 666 632 604 q 369 728 489 728 q 181 665 253 728 q 108 497 108 603 l 108 211 q 181 43 108 106 q 369 -19 253 -19 m 369 -1 q 195 56 263 -1 q 128 210 128 114 l 128 499 q 195 652 128 594 q 369 710 263 710 q 546 652 479 710 q 613 499 613 594 l 613 210 q 546 56 613 114 q 369 -1 479 -1 m 249 918 l 254 918 q 270 923 265 918 q 275 939 275 928 l 275 944 q 270 960 275 956 q 254 965 265 965 l 249 965 q 233 960 238 965 q 228 944 228 956 l 228 939 q 233 922 228 926 q 249 918 238 918 m 496 918 l 501 918 q 517 923 513 918 q 522 939 522 928 l 522 944 q 517 960 522 956 q 501 965 513 965 l 496 965 q 480 960 485 965 q 475 944 475 956 l 475 939 q 480 922 475 926 q 496 918 485 918 "},"ò":{"ha":740,"x_min":108,"x_max":632,"o":"m 369 -19 q 560 42 489 -19 q 632 211 632 104 l 632 497 q 560 666 632 604 q 369 728 489 728 q 181 665 253 728 q 108 497 108 603 l 108 211 q 181 43 108 106 q 369 -19 253 -19 m 369 -1 q 195 56 263 -1 q 128 210 128 114 l 128 499 q 195 652 128 594 q 369 710 263 710 q 546 652 479 710 q 613 499 613 594 l 613 210 q 546 56 613 114 q 369 -1 479 -1 m 261 1011 l 454 854 q 464 854 458 850 l 468 858 q 465 869 474 864 l 276 1025 q 265 1025 271 1031 l 260 1019 q 261 1011 256 1015 "},"ő":{"ha":740,"x_min":108,"x_max":632,"o":"m 369 -19 q 560 42 489 -19 q 632 211 632 104 l 632 497 q 560 666 632 604 q 369 728 489 728 q 181 665 253 728 q 108 497 108 603 l 108 211 q 181 43 108 106 q 369 -19 253 -19 m 369 -1 q 195 56 263 -1 q 128 210 128 114 l 128 499 q 195 652 128 594 q 369 710 263 710 q 546 652 479 710 q 613 499 613 594 l 613 210 q 546 56 613 114 q 369 -1 479 -1 m 214 849 l 219 846 q 231 849 225 844 l 369 1017 q 367 1024 372 1022 l 358 1026 q 349 1022 353 1028 l 214 857 q 214 849 208 851 m 422 849 l 428 846 q 439 849 433 844 l 582 1013 q 579 1019 585 1018 l 571 1022 q 561 1018 565 1024 l 422 857 q 422 849 417 851 "},"ō":{"ha":740,"x_min":108,"x_max":632,"o":"m 369 -19 q 560 42 489 -19 q 632 211 632 104 l 632 497 q 560 666 632 604 q 369 728 489 728 q 181 665 253 728 q 108 497 108 603 l 108 211 q 181 43 108 106 q 369 -19 253 -19 m 369 -1 q 195 56 263 -1 q 128 210 128 114 l 128 499 q 195 652 128 594 q 369 710 263 710 q 546 652 479 710 q 613 499 613 594 l 613 210 q 546 56 613 114 q 369 -1 479 -1 m 217 918 l 522 918 q 528 924 528 918 l 528 931 q 522 936 528 936 l 217 936 q 211 931 211 936 l 211 924 q 217 918 211 918 "},"ø":{"ha":740,"x_min":108,"x_max":632,"o":"m 122 -51 l 136 -51 q 144 -47 140 -51 l 193 33 q 369 -19 261 -19 q 560 42 489 -19 q 632 211 632 104 l 632 497 q 568 658 632 597 l 628 760 q 626 764 631 764 l 613 764 q 606 761 608 764 l 553 672 q 369 728 482 728 q 181 665 253 728 q 108 497 108 603 l 108 211 q 176 46 108 110 l 121 -47 q 120 -50 119 -49 q 122 -51 121 -51 m 542 656 l 188 64 q 128 210 128 121 l 128 499 q 195 652 128 594 q 369 710 263 710 q 542 656 476 710 m 369 -1 q 203 50 267 -1 l 557 642 q 613 499 613 586 l 613 210 q 546 56 613 114 q 369 -1 479 -1 "},"ǿ":{"ha":740,"x_min":108,"x_max":632,"o":"m 122 -51 l 136 -51 q 144 -47 140 -51 l 193 33 q 369 -19 261 -19 q 560 42 489 -19 q 632 211 632 104 l 632 497 q 568 658 632 597 l 628 760 q 626 764 631 764 l 613 764 q 606 761 608 764 l 553 672 q 369 728 482 728 q 181 665 253 728 q 108 497 108 603 l 108 211 q 176 46 108 110 l 121 -47 q 120 -50 119 -49 q 122 -51 121 -51 m 542 656 l 188 64 q 128 210 128 121 l 128 499 q 195 652 128 594 q 369 710 263 710 q 542 656 476 710 m 369 -1 q 203 50 267 -1 l 557 642 q 613 499 613 586 l 613 210 q 546 56 613 114 q 369 -1 479 -1 m 281 856 l 474 1013 q 475 1022 481 1017 l 469 1026 q 458 1026 464 1032 l 269 871 q 267 860 261 865 l 271 856 q 281 856 275 851 "},"õ":{"ha":740,"x_min":108,"x_max":632,"o":"m 369 -19 q 560 42 489 -19 q 632 211 632 104 l 632 497 q 560 666 632 604 q 369 728 489 728 q 181 665 253 728 q 108 497 108 603 l 108 211 q 181 43 108 106 q 369 -19 253 -19 m 369 -1 q 195 56 263 -1 q 128 210 128 114 l 128 499 q 195 652 128 594 q 369 710 263 710 q 546 652 479 710 q 613 499 613 594 l 613 210 q 546 56 613 114 q 369 -1 479 -1 m 190 868 l 199 868 q 204 874 204 868 q 224 948 204 919 q 275 976 243 976 q 320 963 301 976 q 364 924 339 950 q 413 882 392 896 q 464 868 435 868 q 530 901 507 868 q 553 989 553 935 q 547 994 553 994 l 539 994 q 533 989 533 994 q 515 915 533 943 q 464 886 497 886 q 419 899 439 886 q 376 938 400 913 q 326 981 347 967 q 275 994 306 994 q 210 960 235 994 q 185 874 185 926 q 190 868 185 868 "},"œ":{"ha":1138,"x_min":108,"x_max":1043,"o":"m 347 -19 q 497 23 436 -19 q 578 142 557 65 q 806 -19 617 -19 q 912 1 869 -19 q 981 56 954 22 q 1035 147 1007 90 q 1033 154 1038 153 l 1026 158 q 1018 156 1022 161 q 965 68 990 100 q 902 17 940 36 q 806 -1 864 -1 q 638 62 689 -1 q 586 243 586 125 l 586 357 l 1024 357 q 1043 375 1043 357 l 1043 444 q 985 653 1043 579 q 808 728 928 728 q 656 685 711 728 q 579 560 600 642 q 499 683 560 639 q 347 728 438 728 q 227 700 282 728 q 140 620 172 672 q 108 499 108 568 l 108 210 q 140 88 108 140 q 227 8 172 36 q 347 -19 282 -19 m 347 -1 q 238 24 289 -1 q 158 98 188 50 q 128 208 128 146 l 128 500 q 158 610 128 563 q 238 684 188 658 q 347 710 289 710 q 506 653 446 710 q 567 500 567 596 l 567 208 q 506 56 567 113 q 347 -1 446 -1 m 1024 375 l 586 375 l 586 444 q 637 642 586 574 q 808 710 688 710 q 1024 444 1024 710 l 1024 375 "},"p":{"ha":735,"x_min":128,"x_max":628,"o":"m 133 -306 l 142 -306 q 147 -300 147 -306 l 147 49 q 251 3 186 25 q 396 -19 317 -19 q 628 243 628 -19 l 628 453 q 372 728 628 728 q 178 689 264 728 q 138 660 147 675 q 128 613 128 646 l 128 -300 q 133 -306 128 -306 m 394 0 q 251 23 317 0 q 147 71 185 46 l 147 613 q 154 649 147 639 q 186 671 161 658 q 268 699 219 688 q 372 710 317 710 q 550 645 492 710 q 608 453 608 581 l 608 243 q 394 0 608 0 "},"þ":{"ha":739,"x_min":132,"x_max":632,"o":"m 138 -306 l 146 -306 q 151 -300 151 -306 l 151 54 q 255 5 189 29 q 399 -19 321 -19 q 575 49 518 -19 q 632 243 632 117 l 632 451 q 378 728 632 728 q 244 708 301 728 q 151 664 186 688 l 151 1022 q 146 1028 151 1028 l 138 1028 q 132 1022 132 1028 l 132 -300 q 138 -306 132 -306 m 399 -1 q 254 24 321 -1 q 151 76 188 50 l 151 643 q 376 710 254 710 q 613 451 613 710 l 613 243 q 399 -1 613 -1 "},"q":{"ha":735,"x_min":107,"x_max":607,"o":"m 593 -306 l 601 -306 q 607 -300 607 -306 l 607 613 q 597 660 607 646 q 557 689 588 675 q 363 728 471 728 q 107 453 107 728 l 107 243 q 339 -19 107 -19 q 483 3 418 -19 q 588 49 549 25 l 588 -300 q 593 -306 588 -306 m 340 0 q 126 243 126 0 l 126 453 q 185 645 126 581 q 363 710 243 710 q 467 699 418 710 q 549 671 515 688 q 581 649 574 658 q 588 613 588 639 l 588 71 q 484 23 550 46 q 340 0 418 0 "},"r":{"ha":476,"x_min":128,"x_max":433,"o":"m 133 0 l 142 0 q 147 6 147 0 l 147 589 q 153 623 147 610 q 179 647 160 636 q 265 678 213 665 q 378 690 317 690 l 428 690 q 433 696 433 690 l 433 703 q 428 708 433 708 l 378 708 q 171 665 260 708 q 137 637 146 653 q 128 589 128 621 l 128 6 q 133 0 128 0 "},"ŕ":{"ha":476,"x_min":128,"x_max":433,"o":"m 133 0 l 142 0 q 147 6 147 0 l 147 589 q 153 623 147 610 q 179 647 160 636 q 265 678 213 665 q 378 690 317 690 l 428 690 q 433 696 433 690 l 433 703 q 428 708 433 708 l 378 708 q 171 665 260 708 q 137 637 146 653 q 128 589 128 621 l 128 6 q 133 0 128 0 m 182 856 l 375 1013 q 376 1022 382 1017 l 371 1026 q 360 1026 365 1032 l 171 871 q 168 860 163 865 l 172 856 q 182 856 176 851 "},"ř":{"ha":476,"x_min":82,"x_max":463,"o":"m 133 0 l 142 0 q 147 6 147 0 l 147 589 q 153 623 147 610 q 179 647 160 636 q 265 678 213 665 q 378 690 317 690 l 428 690 q 433 696 433 690 l 433 703 q 428 708 433 708 l 378 708 q 171 665 260 708 q 137 637 146 653 q 128 589 128 621 l 128 6 q 133 0 128 0 m 272 843 l 274 843 q 283 846 279 843 q 288 850 286 849 l 460 1014 q 463 1018 463 1017 q 457 1019 463 1019 l 444 1019 q 433 1015 439 1019 l 272 861 l 114 1015 q 103 1019 110 1019 l 92 1019 q 88 1014 82 1019 l 257 850 q 265 844 261 846 q 272 843 268 843 "},"ŗ":{"ha":476,"x_min":63,"x_max":433,"o":"m 133 0 l 142 0 q 147 6 147 0 l 147 589 q 153 623 147 610 q 179 647 160 636 q 265 678 213 665 q 378 690 317 690 l 428 690 q 433 696 433 690 l 433 703 q 428 708 433 708 l 378 708 q 171 665 260 708 q 137 637 146 653 q 128 589 128 621 l 128 6 q 133 0 128 0 m 69 -335 l 75 -335 q 83 -328 82 -335 l 150 -125 q 144 -118 151 -118 l 138 -118 q 131 -119 133 -118 q 129 -124 129 -121 l 64 -328 q 69 -335 63 -335 "},"s":{"ha":675,"x_min":81,"x_max":585,"o":"m 344 -19 q 524 31 464 -19 q 585 172 585 82 q 554 282 585 243 q 475 338 524 321 q 354 361 426 354 q 226 381 271 369 q 151 428 181 393 q 121 538 121 464 q 176 665 121 621 q 333 710 231 710 q 482 674 431 710 q 560 568 533 639 q 568 565 563 563 l 575 568 q 575 576 578 571 q 494 689 551 650 q 333 728 436 728 q 161 678 221 728 q 101 538 101 629 q 135 417 101 457 q 217 365 168 378 q 353 342 265 351 q 467 320 422 335 q 538 271 511 306 q 565 172 565 236 q 510 44 565 90 q 344 -1 454 -1 q 191 38 251 -1 q 101 167 131 78 q 93 169 99 171 l 85 167 q 83 158 81 165 q 180 22 115 63 q 344 -19 244 -19 "},"ś":{"ha":675,"x_min":81,"x_max":585,"o":"m 344 -19 q 524 31 464 -19 q 585 172 585 82 q 554 282 585 243 q 475 338 524 321 q 354 361 426 354 q 226 381 271 369 q 151 428 181 393 q 121 538 121 464 q 176 665 121 621 q 333 710 231 710 q 482 674 431 710 q 560 568 533 639 q 568 565 563 563 l 575 568 q 575 576 578 571 q 494 689 551 650 q 333 728 436 728 q 161 678 221 728 q 101 538 101 629 q 135 417 101 457 q 217 365 168 378 q 353 342 265 351 q 467 320 422 335 q 538 271 511 306 q 565 172 565 236 q 510 44 565 90 q 344 -1 454 -1 q 191 38 251 -1 q 101 167 131 78 q 93 169 99 171 l 85 167 q 83 158 81 165 q 180 22 115 63 q 344 -19 244 -19 m 247 857 l 440 1014 q 442 1024 447 1018 l 436 1028 q 425 1028 431 1033 l 236 872 q 233 861 228 867 l 238 857 q 247 857 242 853 "},"š":{"ha":675,"x_min":81,"x_max":585,"o":"m 344 -19 q 524 31 464 -19 q 585 172 585 82 q 554 282 585 243 q 475 338 524 321 q 354 361 426 354 q 226 381 271 369 q 151 428 181 393 q 121 538 121 464 q 176 665 121 621 q 333 710 231 710 q 482 674 431 710 q 560 568 533 639 q 568 565 563 563 l 575 568 q 575 576 578 571 q 494 689 551 650 q 333 728 436 728 q 161 678 221 728 q 101 538 101 629 q 135 417 101 457 q 217 365 168 378 q 353 342 265 351 q 467 320 422 335 q 538 271 511 306 q 565 172 565 236 q 510 44 565 90 q 344 -1 454 -1 q 191 38 251 -1 q 101 167 131 78 q 93 169 99 171 l 85 167 q 83 158 81 165 q 180 22 115 63 q 344 -19 244 -19 m 338 844 l 339 844 q 348 847 344 844 q 353 851 351 850 l 525 1015 q 528 1019 528 1018 q 522 1021 528 1021 l 510 1021 q 499 1017 504 1021 l 338 863 l 179 1017 q 168 1021 175 1021 l 157 1021 q 153 1015 147 1021 l 322 851 q 330 846 326 847 q 338 844 333 844 "},"ş":{"ha":675,"x_min":81,"x_max":585,"o":"m 342 -339 q 435 -308 403 -339 q 468 -217 468 -278 q 438 -144 468 -172 q 361 -117 407 -117 q 321 -124 338 -117 l 350 -19 q 526 32 467 -18 q 585 172 585 82 q 554 282 585 243 q 475 338 524 321 q 354 361 426 354 q 226 381 271 369 q 151 428 181 393 q 121 538 121 464 q 176 665 121 621 q 333 710 231 710 q 482 674 431 710 q 560 568 533 639 q 568 565 563 563 l 575 568 q 575 576 578 571 q 494 689 551 650 q 333 728 436 728 q 161 678 221 728 q 101 538 101 629 q 135 417 101 457 q 217 365 168 378 q 353 342 265 351 q 467 320 422 335 q 538 271 511 306 q 565 172 565 236 q 510 44 565 90 q 344 -1 454 -1 q 191 38 251 -1 q 101 167 131 78 q 93 169 99 171 l 85 167 q 83 158 81 165 q 176 24 114 65 q 332 -19 239 -17 l 300 -133 q 301 -141 299 -137 q 308 -144 304 -144 l 311 -144 q 357 -133 331 -133 q 423 -156 397 -133 q 449 -217 449 -178 q 340 -321 449 -321 q 244 -278 282 -321 q 241 -277 243 -276 q 239 -281 239 -278 l 239 -289 q 246 -304 239 -299 q 288 -329 267 -319 q 342 -339 308 -339 "},"ŝ":{"ha":675,"x_min":81,"x_max":585,"o":"m 344 -19 q 524 31 464 -19 q 585 172 585 82 q 554 282 585 243 q 475 338 524 321 q 354 361 426 354 q 226 381 271 369 q 151 428 181 393 q 121 538 121 464 q 176 665 121 621 q 333 710 231 710 q 482 674 431 710 q 560 568 533 639 q 568 565 563 563 l 575 568 q 575 576 578 571 q 494 689 551 650 q 333 728 436 728 q 161 678 221 728 q 101 538 101 629 q 135 417 101 457 q 217 365 168 378 q 353 342 265 351 q 467 320 422 335 q 538 271 511 306 q 565 172 565 236 q 510 44 565 90 q 344 -1 454 -1 q 191 38 251 -1 q 101 167 131 78 q 93 169 99 171 l 85 167 q 83 158 81 165 q 180 22 115 63 q 344 -19 244 -19 m 154 844 l 167 844 q 178 849 171 844 l 339 1003 l 497 849 q 508 844 501 844 l 519 844 q 524 850 529 844 l 354 1014 q 347 1019 350 1018 q 339 1021 343 1021 l 338 1021 q 330 1019 333 1021 q 322 1014 326 1018 l 151 850 q 149 846 149 847 q 154 844 149 844 "},"ș":{"ha":675,"x_min":81,"x_max":585,"o":"m 344 -19 q 524 31 464 -19 q 585 172 585 82 q 554 282 585 243 q 475 338 524 321 q 354 361 426 354 q 226 381 271 369 q 151 428 181 393 q 121 538 121 464 q 176 665 121 621 q 333 710 231 710 q 482 674 431 710 q 560 568 533 639 q 568 565 563 563 l 575 568 q 575 576 578 571 q 494 689 551 650 q 333 728 436 728 q 161 678 221 728 q 101 538 101 629 q 135 417 101 457 q 217 365 168 378 q 353 342 265 351 q 467 320 422 335 q 538 271 511 306 q 565 172 565 236 q 510 44 565 90 q 344 -1 454 -1 q 191 38 251 -1 q 101 167 131 78 q 93 169 99 171 l 85 167 q 83 158 81 165 q 180 22 115 63 q 344 -19 244 -19 m 275 -335 l 281 -335 q 289 -328 288 -335 l 356 -125 q 350 -118 357 -118 l 343 -118 q 337 -119 339 -118 q 335 -124 335 -121 l 269 -328 q 275 -335 268 -335 "},"ß":{"ha":754,"x_min":132,"x_max":661,"o":"m 138 0 l 146 0 q 151 6 151 0 l 151 754 q 210 956 151 888 q 381 1024 268 1024 q 552 958 494 1024 q 610 768 610 893 q 590 667 610 719 q 528 580 571 615 q 422 544 486 544 l 279 544 q 274 539 274 544 l 274 532 q 281 526 274 526 l 422 526 q 583 460 524 526 q 642 282 642 393 q 577 85 642 153 q 400 18 513 18 l 274 18 q 268 13 268 18 l 268 6 q 274 0 268 0 l 400 0 q 592 72 522 0 q 661 282 661 143 q 615 447 661 381 q 489 536 569 514 l 489 538 q 594 631 558 563 q 629 768 629 699 q 381 1042 629 1042 q 195 968 258 1042 q 132 754 132 894 l 132 6 q 138 0 132 0 "},"ſ":{"ha":321,"x_min":36,"x_max":410,"o":"m 189 0 l 197 0 q 203 6 203 0 l 203 767 q 220 918 203 867 q 280 989 238 969 q 404 1008 322 1008 q 410 1014 410 1008 l 410 1022 q 404 1028 410 1028 q 271 1006 318 1028 q 203 927 224 983 q 183 767 183 871 l 183 708 l 42 708 q 36 703 36 708 l 36 696 q 42 690 36 690 l 183 690 l 183 6 q 189 0 183 0 "},"t":{"ha":450,"x_min":31,"x_max":421,"o":"m 413 0 q 418 6 418 0 l 418 14 q 413 19 418 19 q 284 38 328 19 q 222 107 240 57 q 203 257 203 157 l 203 690 l 415 690 q 421 696 421 690 l 421 703 q 415 708 421 708 l 203 708 l 203 869 q 197 875 203 875 l 189 875 q 183 869 183 875 l 183 708 l 36 708 q 31 703 31 708 l 31 696 q 36 690 31 690 l 183 690 l 183 257 q 205 98 183 153 q 275 22 226 43 q 413 0 324 0 "},"ŧ":{"ha":450,"x_min":31,"x_max":421,"o":"m 413 0 q 418 6 418 0 l 418 14 q 413 19 418 19 q 284 38 328 19 q 222 107 240 57 q 203 257 203 157 l 203 374 l 388 374 q 394 381 394 374 l 394 385 q 388 392 394 392 l 203 392 l 203 690 l 415 690 q 421 696 421 690 l 421 703 q 415 708 421 708 l 203 708 l 203 869 q 197 875 203 875 l 189 875 q 183 869 183 875 l 183 708 l 36 708 q 31 703 31 708 l 31 696 q 36 690 31 690 l 183 690 l 183 392 l 65 392 q 58 385 58 392 l 58 381 q 65 374 58 374 l 183 374 l 183 257 q 205 98 183 153 q 275 22 226 43 q 413 0 324 0 "},"ť":{"ha":450,"x_min":31,"x_max":481,"o":"m 404 771 l 410 771 q 418 778 417 771 l 479 1022 q 474 1028 481 1028 l 465 1028 q 458 1022 460 1028 l 399 778 q 404 771 397 771 m 413 0 q 418 6 418 0 l 418 14 q 413 19 418 19 q 284 38 328 19 q 222 107 240 57 q 203 257 203 157 l 203 690 l 415 690 q 421 696 421 690 l 421 703 q 415 708 421 708 l 203 708 l 203 869 q 197 875 203 875 l 189 875 q 183 869 183 875 l 183 708 l 36 708 q 31 703 31 708 l 31 696 q 36 690 31 690 l 183 690 l 183 257 q 205 98 183 153 q 275 22 226 43 q 413 0 324 0 "},"ţ":{"ha":450,"x_min":31,"x_max":422,"o":"m 315 -117 q 275 -124 292 -117 l 311 10 q 413 0 350 0 q 418 6 418 0 l 418 14 q 413 19 418 19 q 284 38 328 19 q 222 107 240 57 q 203 257 203 157 l 203 690 l 415 690 q 421 696 421 690 l 421 703 q 415 708 421 708 l 203 708 l 203 869 q 197 875 203 875 l 189 875 q 183 869 183 875 l 183 708 l 36 708 q 31 703 31 708 l 31 696 q 36 690 31 690 l 183 690 l 183 257 q 208 89 183 144 q 294 14 233 33 l 253 -133 q 254 -141 251 -137 q 261 -144 257 -144 l 264 -144 q 311 -133 283 -133 q 377 -156 351 -133 q 403 -217 403 -178 q 294 -321 403 -321 q 199 -278 236 -321 q 195 -277 197 -276 q 193 -281 193 -278 l 193 -289 q 200 -304 193 -299 q 242 -329 221 -319 q 296 -339 263 -339 q 390 -308 357 -339 q 422 -217 422 -278 q 392 -144 422 -172 q 315 -117 361 -117 "},"ț":{"ha":450,"x_min":31,"x_max":421,"o":"m 413 0 q 418 6 418 0 l 418 14 q 413 19 418 19 q 284 38 328 19 q 222 107 240 57 q 203 257 203 157 l 203 690 l 415 690 q 421 696 421 690 l 421 703 q 415 708 421 708 l 203 708 l 203 869 q 197 875 203 875 l 189 875 q 183 869 183 875 l 183 708 l 36 708 q 31 703 31 708 l 31 696 q 36 690 31 690 l 183 690 l 183 257 q 205 98 183 153 q 275 22 226 43 q 413 0 324 0 m 246 -335 l 251 -335 q 260 -328 258 -335 l 326 -125 q 321 -118 328 -118 l 314 -118 q 308 -119 310 -118 q 306 -124 306 -121 l 240 -328 q 246 -335 239 -335 "},"u":{"ha":753,"x_min":125,"x_max":625,"o":"m 360 -19 q 485 -8 435 -19 q 579 25 535 4 q 615 53 606 38 q 625 100 625 68 l 625 703 q 619 708 625 708 l 611 708 q 606 703 606 708 l 606 100 q 600 67 606 79 q 574 43 594 54 q 361 0 490 0 q 197 62 250 0 q 144 246 144 124 l 144 703 q 139 708 144 708 l 131 708 q 125 703 125 708 l 125 244 q 360 -19 125 -19 "},"ú":{"ha":753,"x_min":125,"x_max":625,"o":"m 360 -19 q 485 -8 435 -19 q 579 25 535 4 q 615 53 606 38 q 625 100 625 68 l 625 703 q 619 708 625 708 l 611 708 q 606 703 606 708 l 606 100 q 600 67 606 79 q 574 43 594 54 q 361 0 490 0 q 197 62 250 0 q 144 246 144 124 l 144 703 q 139 708 144 708 l 131 708 q 125 703 125 708 l 125 244 q 360 -19 125 -19 m 285 856 l 478 1013 q 479 1022 485 1017 l 474 1026 q 463 1026 468 1032 l 274 871 q 271 860 265 865 l 275 856 q 285 856 279 851 "},"ŭ":{"ha":753,"x_min":125,"x_max":625,"o":"m 360 -19 q 485 -8 435 -19 q 579 25 535 4 q 615 53 606 38 q 625 100 625 68 l 625 703 q 619 708 625 708 l 611 708 q 606 703 606 708 l 606 100 q 600 67 606 79 q 574 43 594 54 q 361 0 490 0 q 197 62 250 0 q 144 246 144 124 l 144 703 q 139 708 144 708 l 131 708 q 125 703 125 708 l 125 244 q 360 -19 125 -19 m 375 851 q 490 890 447 851 q 553 1011 532 928 q 549 1019 554 1018 l 542 1021 q 535 1015 536 1021 q 478 906 515 940 q 375 871 440 871 q 272 906 310 871 q 215 1015 235 940 q 208 1021 214 1021 l 201 1019 q 197 1011 196 1018 q 260 890 218 928 q 375 851 303 851 "},"û":{"ha":753,"x_min":125,"x_max":625,"o":"m 360 -19 q 485 -8 435 -19 q 579 25 535 4 q 615 53 606 38 q 625 100 625 68 l 625 703 q 619 708 625 708 l 611 708 q 606 703 606 708 l 606 100 q 600 67 606 79 q 574 43 594 54 q 361 0 490 0 q 197 62 250 0 q 144 246 144 124 l 144 703 q 139 708 144 708 l 131 708 q 125 703 125 708 l 125 244 q 360 -19 125 -19 m 192 843 l 204 843 q 215 847 208 843 l 376 1001 l 535 847 q 546 843 539 843 l 557 843 q 561 849 567 843 l 392 1013 q 384 1018 388 1017 q 376 1019 381 1019 l 375 1019 q 367 1018 371 1019 q 360 1013 364 1017 l 189 849 q 186 844 186 846 q 192 843 186 843 "},"ü":{"ha":753,"x_min":125,"x_max":625,"o":"m 360 -19 q 485 -8 435 -19 q 579 25 535 4 q 615 53 606 38 q 625 100 625 68 l 625 703 q 619 708 625 708 l 611 708 q 606 703 606 708 l 606 100 q 600 67 606 79 q 574 43 594 54 q 361 0 490 0 q 197 62 250 0 q 144 246 144 124 l 144 703 q 139 708 144 708 l 131 708 q 125 703 125 708 l 125 244 q 360 -19 125 -19 m 254 918 l 260 918 q 276 923 271 918 q 281 939 281 928 l 281 944 q 276 960 281 956 q 260 965 271 965 l 254 965 q 238 960 243 965 q 233 944 233 956 l 233 939 q 238 922 233 926 q 254 918 243 918 m 501 918 l 507 918 q 523 923 518 918 q 528 939 528 928 l 528 944 q 523 960 528 956 q 507 965 518 965 l 501 965 q 485 960 490 965 q 481 944 481 956 l 481 939 q 485 922 481 926 q 501 918 490 918 "},"ù":{"ha":753,"x_min":125,"x_max":625,"o":"m 360 -19 q 485 -8 435 -19 q 579 25 535 4 q 615 53 606 38 q 625 100 625 68 l 625 703 q 619 708 625 708 l 611 708 q 606 703 606 708 l 606 100 q 600 67 606 79 q 574 43 594 54 q 361 0 490 0 q 197 62 250 0 q 144 246 144 124 l 144 703 q 139 708 144 708 l 131 708 q 125 703 125 708 l 125 244 q 360 -19 125 -19 m 267 1011 l 460 854 q 469 854 464 850 l 474 858 q 471 869 479 864 l 282 1025 q 271 1025 276 1031 l 265 1019 q 267 1011 261 1015 "},"ű":{"ha":753,"x_min":125,"x_max":625,"o":"m 360 -19 q 485 -8 435 -19 q 579 25 535 4 q 615 53 606 38 q 625 100 625 68 l 625 703 q 619 708 625 708 l 611 708 q 606 703 606 708 l 606 100 q 600 67 606 79 q 574 43 594 54 q 361 0 490 0 q 197 62 250 0 q 144 246 144 124 l 144 703 q 139 708 144 708 l 131 708 q 125 703 125 708 l 125 244 q 360 -19 125 -19 m 219 849 l 225 846 q 236 849 231 844 l 375 1017 q 372 1024 378 1022 l 364 1026 q 354 1022 358 1028 l 219 857 q 219 849 214 851 m 428 849 l 433 846 q 444 849 439 844 l 588 1013 q 585 1019 590 1018 l 576 1022 q 567 1018 571 1024 l 428 857 q 428 849 422 851 "},"ū":{"ha":753,"x_min":125,"x_max":625,"o":"m 360 -19 q 485 -8 435 -19 q 579 25 535 4 q 615 53 606 38 q 625 100 625 68 l 625 703 q 619 708 625 708 l 611 708 q 606 703 606 708 l 606 100 q 600 67 606 79 q 574 43 594 54 q 361 0 490 0 q 197 62 250 0 q 144 246 144 124 l 144 703 q 139 708 144 708 l 131 708 q 125 703 125 708 l 125 244 q 360 -19 125 -19 m 222 918 l 528 918 q 533 924 533 918 l 533 931 q 528 936 533 936 l 222 936 q 217 931 217 936 l 217 924 q 222 918 217 918 "},"ų":{"ha":753,"x_min":125,"x_max":649,"o":"m 542 -344 q 644 -296 599 -344 q 647 -287 649 -292 l 643 -276 q 638 -275 642 -271 q 593 -311 619 -297 q 543 -325 567 -325 q 492 -307 514 -325 q 471 -251 471 -289 q 509 -116 471 -199 q 608 44 547 -33 q 625 100 625 61 l 625 703 q 619 708 625 708 l 611 708 q 606 703 606 708 l 606 100 q 600 67 606 79 q 574 43 594 54 q 361 0 490 0 q 197 62 250 0 q 144 246 144 124 l 144 703 q 139 708 144 708 l 131 708 q 125 703 125 708 l 125 244 q 360 -19 125 -19 q 568 19 479 -19 q 483 -126 515 -51 q 451 -253 451 -200 q 478 -322 451 -299 q 542 -344 506 -344 "},"ů":{"ha":753,"x_min":125,"x_max":625,"o":"m 360 -19 q 485 -8 435 -19 q 579 25 535 4 q 615 53 606 38 q 625 100 625 68 l 625 703 q 619 708 625 708 l 611 708 q 606 703 606 708 l 606 100 q 600 67 606 79 q 574 43 594 54 q 361 0 490 0 q 197 62 250 0 q 144 246 144 124 l 144 703 q 139 708 144 708 l 131 708 q 125 703 125 708 l 125 244 q 360 -19 125 -19 m 376 806 q 458 839 428 806 q 489 928 489 872 q 458 1017 489 983 q 376 1050 428 1050 q 292 1017 324 1050 q 260 928 260 983 q 292 839 260 872 q 376 806 324 806 m 376 822 q 304 851 332 822 q 276 928 276 881 q 304 1004 276 975 q 376 1033 332 1033 q 446 1004 419 1033 q 472 928 472 975 q 446 851 472 881 q 376 822 419 822 "},"ũ":{"ha":753,"x_min":125,"x_max":625,"o":"m 360 -19 q 485 -8 435 -19 q 579 25 535 4 q 615 53 606 38 q 625 100 625 68 l 625 703 q 619 708 625 708 l 611 708 q 606 703 606 708 l 606 100 q 600 67 606 79 q 574 43 594 54 q 361 0 490 0 q 197 62 250 0 q 144 246 144 124 l 144 703 q 139 708 144 708 l 131 708 q 125 703 125 708 l 125 244 q 360 -19 125 -19 m 196 868 l 204 868 q 210 874 210 868 q 229 948 210 919 q 281 976 249 976 q 326 963 307 976 q 369 924 344 950 q 419 882 397 896 q 469 868 440 868 q 535 901 513 868 q 558 989 558 935 q 553 994 558 994 l 544 994 q 539 989 539 994 q 521 915 539 943 q 469 886 503 886 q 425 899 444 886 q 382 938 406 913 q 332 981 353 967 q 281 994 311 994 q 215 960 240 994 q 190 874 190 926 q 196 868 190 868 "},"v":{"ha":679,"x_min":50,"x_max":631,"o":"m 338 -7 l 343 -7 q 353 0 350 -7 l 626 700 q 624 708 631 708 l 617 708 q 607 703 608 708 l 376 107 q 342 18 368 89 l 340 18 q 304 108 333 36 l 74 701 q 70 707 72 706 q 64 708 68 708 l 57 708 q 54 699 50 708 l 328 0 q 338 -7 332 -7 "},"w":{"ha":1008,"x_min":60,"x_max":949,"o":"m 281 -8 l 292 -8 q 297 -7 294 -8 q 299 -1 299 -6 l 474 558 q 501 649 496 628 l 503 649 l 532 558 l 707 -1 q 715 -8 710 -8 l 725 -8 q 733 -1 731 -8 l 946 701 q 940 708 949 708 l 933 708 q 927 707 929 708 q 925 703 925 706 l 757 147 l 732 60 l 721 19 l 719 19 q 679 153 701 88 l 515 675 q 507 681 514 681 l 499 681 q 490 675 492 681 l 325 143 q 288 19 299 60 l 286 19 l 274 65 q 251 140 263 106 l 83 701 q 82 705 83 701 q 75 708 81 708 l 68 708 q 63 701 60 708 l 274 -1 q 276 -7 275 -6 q 281 -8 278 -8 "},"ẃ":{"ha":1008,"x_min":60,"x_max":949,"o":"m 281 -8 l 292 -8 q 297 -7 294 -8 q 299 -1 299 -6 l 474 558 q 501 649 496 628 l 503 649 l 532 558 l 707 -1 q 715 -8 710 -8 l 725 -8 q 733 -1 731 -8 l 946 701 q 940 708 949 708 l 933 708 q 927 707 929 708 q 925 703 925 706 l 757 147 l 732 60 l 721 19 l 719 19 q 679 153 701 88 l 515 675 q 507 681 514 681 l 499 681 q 490 675 492 681 l 325 143 q 288 19 299 60 l 286 19 l 274 65 q 251 140 263 106 l 83 701 q 82 705 83 701 q 75 708 81 708 l 68 708 q 63 701 60 708 l 274 -1 q 276 -7 275 -6 q 281 -8 278 -8 m 414 856 l 607 1013 q 608 1022 614 1017 l 603 1026 q 592 1026 597 1032 l 403 871 q 400 860 394 865 l 404 856 q 414 856 408 851 "},"ŵ":{"ha":1008,"x_min":60,"x_max":949,"o":"m 281 -8 l 292 -8 q 297 -7 294 -8 q 299 -1 299 -6 l 474 558 q 501 649 496 628 l 503 649 l 532 558 l 707 -1 q 715 -8 710 -8 l 725 -8 q 733 -1 731 -8 l 946 701 q 940 708 949 708 l 933 708 q 927 707 929 708 q 925 703 925 706 l 757 147 l 732 60 l 721 19 l 719 19 q 679 153 701 88 l 515 675 q 507 681 514 681 l 499 681 q 490 675 492 681 l 325 143 q 288 19 299 60 l 286 19 l 274 65 q 251 140 263 106 l 83 701 q 82 705 83 701 q 75 708 81 708 l 68 708 q 63 701 60 708 l 274 -1 q 276 -7 275 -6 q 281 -8 278 -8 m 321 843 l 333 843 q 344 847 338 843 l 506 1001 l 664 847 q 675 843 668 843 l 686 843 q 690 849 696 843 l 521 1013 q 513 1018 517 1017 q 506 1019 510 1019 l 504 1019 q 497 1018 500 1019 q 489 1013 493 1017 l 318 849 q 315 844 315 846 q 321 843 315 843 "},"ẅ":{"ha":1008,"x_min":60,"x_max":949,"o":"m 281 -8 l 292 -8 q 297 -7 294 -8 q 299 -1 299 -6 l 474 558 q 501 649 496 628 l 503 649 l 532 558 l 707 -1 q 715 -8 710 -8 l 725 -8 q 733 -1 731 -8 l 946 701 q 940 708 949 708 l 933 708 q 927 707 929 708 q 925 703 925 706 l 757 147 l 732 60 l 721 19 l 719 19 q 679 153 701 88 l 515 675 q 507 681 514 681 l 499 681 q 490 675 492 681 l 325 143 q 288 19 299 60 l 286 19 l 274 65 q 251 140 263 106 l 83 701 q 82 705 83 701 q 75 708 81 708 l 68 708 q 63 701 60 708 l 274 -1 q 276 -7 275 -6 q 281 -8 278 -8 m 383 918 l 389 918 q 405 923 400 918 q 410 939 410 928 l 410 944 q 405 960 410 956 q 389 965 400 965 l 383 965 q 367 960 372 965 q 363 944 363 956 l 363 939 q 367 922 363 926 q 383 918 372 918 m 631 918 l 636 918 q 652 923 647 918 q 657 939 657 928 l 657 944 q 652 960 657 956 q 636 965 647 965 l 631 965 q 615 960 619 965 q 610 944 610 956 l 610 939 q 615 922 610 926 q 631 918 619 918 "},"ẁ":{"ha":1008,"x_min":60,"x_max":949,"o":"m 281 -8 l 292 -8 q 297 -7 294 -8 q 299 -1 299 -6 l 474 558 q 501 649 496 628 l 503 649 l 532 558 l 707 -1 q 715 -8 710 -8 l 725 -8 q 733 -1 731 -8 l 946 701 q 940 708 949 708 l 933 708 q 927 707 929 708 q 925 703 925 706 l 757 147 l 732 60 l 721 19 l 719 19 q 679 153 701 88 l 515 675 q 507 681 514 681 l 499 681 q 490 675 492 681 l 325 143 q 288 19 299 60 l 286 19 l 274 65 q 251 140 263 106 l 83 701 q 82 705 83 701 q 75 708 81 708 l 68 708 q 63 701 60 708 l 274 -1 q 276 -7 275 -6 q 281 -8 278 -8 m 396 1011 l 589 854 q 599 854 593 850 l 603 858 q 600 869 608 864 l 411 1025 q 400 1025 406 1031 l 394 1019 q 396 1011 390 1015 "},"x":{"ha":643,"x_min":50,"x_max":596,"o":"m 54 0 l 65 0 q 75 4 71 0 l 324 349 l 568 4 q 576 0 572 0 l 590 0 q 593 4 596 0 l 336 365 l 578 704 q 578 707 579 706 q 575 708 578 708 l 563 708 q 554 704 558 708 l 322 379 l 89 704 q 79 708 86 708 l 68 708 q 64 704 63 708 l 310 364 l 51 4 q 54 0 50 0 "},"y":{"ha":757,"x_min":125,"x_max":625,"o":"m 369 -361 q 625 -62 625 -361 l 625 703 q 619 708 625 708 l 611 708 q 606 703 606 708 l 606 57 q 496 15 553 32 q 361 -1 439 -1 q 197 61 250 -1 q 144 246 144 124 l 144 703 q 139 708 144 708 l 131 708 q 125 703 125 708 l 125 244 q 360 -19 125 -19 q 493 -4 440 -19 q 606 38 546 11 l 606 -62 q 369 -342 606 -342 q 234 -301 285 -342 q 151 -186 183 -261 q 142 -183 149 -181 l 138 -186 q 133 -190 133 -187 q 135 -196 133 -193 q 223 -318 168 -275 q 369 -361 278 -361 "},"ý":{"ha":757,"x_min":125,"x_max":625,"o":"m 369 -361 q 625 -62 625 -361 l 625 703 q 619 708 625 708 l 611 708 q 606 703 606 708 l 606 57 q 496 15 553 32 q 361 -1 439 -1 q 197 61 250 -1 q 144 246 144 124 l 144 703 q 139 708 144 708 l 131 708 q 125 703 125 708 l 125 244 q 360 -19 125 -19 q 493 -4 440 -19 q 606 38 546 11 l 606 -62 q 369 -342 606 -342 q 234 -301 285 -342 q 151 -186 183 -261 q 142 -183 149 -181 l 138 -186 q 133 -190 133 -187 q 135 -196 133 -193 q 223 -318 168 -275 q 369 -361 278 -361 m 283 856 l 476 1013 q 478 1022 483 1017 l 472 1026 q 461 1026 467 1032 l 272 871 q 269 860 264 865 l 274 856 q 283 856 278 851 "},"ŷ":{"ha":757,"x_min":125,"x_max":625,"o":"m 369 -361 q 625 -62 625 -361 l 625 703 q 619 708 625 708 l 611 708 q 606 703 606 708 l 606 57 q 496 15 553 32 q 361 -1 439 -1 q 197 61 250 -1 q 144 246 144 124 l 144 703 q 139 708 144 708 l 131 708 q 125 703 125 708 l 125 244 q 360 -19 125 -19 q 493 -4 440 -19 q 606 38 546 11 l 606 -62 q 369 -342 606 -342 q 234 -301 285 -342 q 151 -186 183 -261 q 142 -183 149 -181 l 138 -186 q 133 -190 133 -187 q 135 -196 133 -193 q 223 -318 168 -275 q 369 -361 278 -361 m 190 843 l 203 843 q 214 847 207 843 l 375 1001 l 533 847 q 544 843 538 843 l 556 843 q 560 849 565 843 l 390 1013 q 383 1018 386 1017 q 375 1019 379 1019 l 374 1019 q 366 1018 369 1019 q 358 1013 363 1017 l 188 849 q 185 844 185 846 q 190 843 185 843 "},"ÿ":{"ha":757,"x_min":125,"x_max":625,"o":"m 369 -361 q 625 -62 625 -361 l 625 703 q 619 708 625 708 l 611 708 q 606 703 606 708 l 606 57 q 496 15 553 32 q 361 -1 439 -1 q 197 61 250 -1 q 144 246 144 124 l 144 703 q 139 708 144 708 l 131 708 q 125 703 125 708 l 125 244 q 360 -19 125 -19 q 493 -4 440 -19 q 606 38 546 11 l 606 -62 q 369 -342 606 -342 q 234 -301 285 -342 q 151 -186 183 -261 q 142 -183 149 -181 l 138 -186 q 133 -190 133 -187 q 135 -196 133 -193 q 223 -318 168 -275 q 369 -361 278 -361 m 253 918 l 258 918 q 274 923 269 918 q 279 939 279 928 l 279 944 q 274 960 279 956 q 258 965 269 965 l 253 965 q 237 960 242 965 q 232 944 232 956 l 232 939 q 237 922 232 926 q 253 918 242 918 m 500 918 l 506 918 q 522 923 517 918 q 526 939 526 928 l 526 944 q 522 960 526 956 q 506 965 517 965 l 500 965 q 484 960 489 965 q 479 944 479 956 l 479 939 q 484 922 479 926 q 500 918 489 918 "},"ỳ":{"ha":757,"x_min":125,"x_max":625,"o":"m 369 -361 q 625 -62 625 -361 l 625 703 q 619 708 625 708 l 611 708 q 606 703 606 708 l 606 57 q 496 15 553 32 q 361 -1 439 -1 q 197 61 250 -1 q 144 246 144 124 l 144 703 q 139 708 144 708 l 131 708 q 125 703 125 708 l 125 244 q 360 -19 125 -19 q 493 -4 440 -19 q 606 38 546 11 l 606 -62 q 369 -342 606 -342 q 234 -301 285 -342 q 151 -186 183 -261 q 142 -183 149 -181 l 138 -186 q 133 -190 133 -187 q 135 -196 133 -193 q 223 -318 168 -275 q 369 -361 278 -361 m 265 1011 l 458 854 q 468 854 463 850 l 472 858 q 469 869 478 864 l 281 1025 q 269 1025 275 1031 l 264 1019 q 265 1011 260 1015 "},"z":{"ha":606,"x_min":69,"x_max":536,"o":"m 75 0 l 532 0 q 536 6 536 0 l 536 13 q 532 18 536 18 l 93 18 l 524 685 q 528 696 528 692 l 528 703 q 522 708 528 708 l 79 708 q 75 703 75 708 l 75 696 q 79 690 75 690 l 504 690 l 72 22 q 69 13 69 17 l 69 6 q 75 0 69 0 "},"ź":{"ha":606,"x_min":69,"x_max":536,"o":"m 75 0 l 532 0 q 536 6 536 0 l 536 13 q 532 18 536 18 l 93 18 l 524 685 q 528 696 528 692 l 528 703 q 522 708 528 708 l 79 708 q 75 703 75 708 l 75 696 q 79 690 75 690 l 504 690 l 72 22 q 69 13 69 17 l 69 6 q 75 0 69 0 m 213 856 l 406 1013 q 407 1022 413 1017 l 401 1026 q 390 1026 396 1032 l 201 871 q 199 860 193 865 l 203 856 q 213 856 207 851 "},"ž":{"ha":606,"x_min":69,"x_max":536,"o":"m 75 0 l 532 0 q 536 6 536 0 l 536 13 q 532 18 536 18 l 93 18 l 524 685 q 528 696 528 692 l 528 703 q 522 708 528 708 l 79 708 q 75 703 75 708 l 75 696 q 79 690 75 690 l 504 690 l 72 22 q 69 13 69 17 l 69 6 q 75 0 69 0 m 303 843 l 304 843 q 313 846 310 843 q 318 850 317 849 l 490 1014 q 493 1018 493 1017 q 488 1019 493 1019 l 475 1019 q 464 1015 469 1019 l 303 861 l 144 1015 q 133 1019 140 1019 l 122 1019 q 118 1014 113 1019 l 288 850 q 295 844 292 846 q 303 843 299 843 "},"ż":{"ha":606,"x_min":69,"x_max":536,"o":"m 75 0 l 532 0 q 536 6 536 0 l 536 13 q 532 18 536 18 l 93 18 l 524 685 q 528 696 528 692 l 528 703 q 522 708 528 708 l 79 708 q 75 703 75 708 l 75 696 q 79 690 75 690 l 504 690 l 72 22 q 69 13 69 17 l 69 6 q 75 0 69 0 m 301 918 l 307 918 q 326 938 326 918 l 326 943 q 307 963 326 963 l 301 963 q 282 943 282 963 l 282 938 q 286 922 282 926 q 301 918 290 918 "},"ﬁ":{"ha":699,"x_min":32,"x_max":575,"o":"m 183 0 l 192 0 q 197 6 197 0 l 197 690 l 556 690 l 556 6 q 561 0 556 0 l 569 0 q 575 6 575 0 l 575 703 q 569 708 575 708 l 197 708 l 197 767 q 218 918 197 867 q 288 990 239 969 q 426 1010 336 1010 l 569 1010 q 575 1015 575 1010 l 575 1022 q 569 1028 575 1028 l 426 1028 q 278 1006 332 1028 q 201 927 225 983 q 178 767 178 871 l 178 708 l 38 708 q 32 703 32 708 l 32 696 q 38 690 32 690 l 178 690 l 178 6 q 183 0 178 0 "},"ﬂ":{"ha":722,"x_min":32,"x_max":585,"o":"m 183 0 l 192 0 q 197 6 197 0 l 197 690 l 414 690 q 419 696 419 690 l 419 703 q 414 708 419 708 l 197 708 l 197 767 q 219 918 197 867 q 292 990 240 969 q 440 1010 343 1010 l 565 1010 l 565 6 q 571 0 565 0 l 579 0 q 585 6 585 0 l 585 1022 q 579 1028 585 1028 l 440 1028 q 283 1006 339 1028 q 202 927 226 983 q 178 767 178 871 l 178 708 l 38 708 q 32 703 32 708 l 32 696 q 38 690 32 690 l 178 690 l 178 6 q 183 0 178 0 "},"ª":{"ha":522,"x_min":110,"x_max":404,"o":"m 254 493 q 365 514 328 493 q 397 541 389 526 q 404 589 404 556 l 404 758 q 372 887 404 843 q 263 931 340 931 q 122 849 168 931 q 124 839 118 843 l 129 836 q 138 839 135 833 q 191 894 161 878 q 263 911 221 911 q 358 872 331 911 q 385 758 385 833 l 385 724 q 257 733 326 733 q 144 701 179 733 q 110 608 110 669 q 144 522 110 551 q 254 493 178 493 m 254 513 q 129 608 129 513 q 157 687 129 660 q 257 714 185 714 q 385 704 326 714 l 385 589 q 378 551 385 563 q 356 532 372 540 q 254 513 317 513 "},"º":{"ha":528,"x_min":110,"x_max":417,"o":"m 263 494 q 378 537 339 494 q 417 657 417 579 l 417 768 q 377 888 417 844 q 263 931 338 931 q 149 888 189 931 q 110 768 110 844 l 110 657 q 149 538 110 581 q 263 494 189 494 m 263 514 q 164 551 199 514 q 129 657 129 589 l 129 768 q 164 873 129 835 q 263 911 199 911 q 363 874 328 911 q 397 768 397 836 l 397 657 q 363 551 397 589 q 263 514 328 514 "},"А":{"ha":861,"x_min":42,"x_max":819,"o":"m 50 0 l 56 0 q 67 6 65 0 l 201 363 l 660 363 l 794 6 q 806 0 796 0 l 811 0 q 817 6 819 0 l 444 988 q 435 994 442 994 l 426 994 q 417 988 419 994 l 44 6 q 50 0 42 0 m 651 382 l 210 382 l 425 953 l 429 969 l 431 969 q 434 958 432 963 q 436 953 436 954 l 651 382 "},"Б":{"ha":860,"x_min":147,"x_max":781,"o":"m 153 0 l 521 0 q 710 70 639 0 q 781 267 781 140 q 710 463 781 393 q 521 533 639 533 l 168 533 l 168 967 l 708 967 q 714 972 714 967 l 714 981 q 708 986 714 986 l 153 986 q 147 981 147 986 l 147 6 q 153 0 147 0 m 519 19 l 168 19 l 168 514 l 519 514 q 694 449 629 514 q 760 267 760 385 q 694 84 760 149 q 519 19 629 19 "},"В":{"ha":881,"x_min":147,"x_max":781,"o":"m 153 0 l 528 0 q 712 68 643 0 q 781 258 781 136 q 733 426 781 363 q 601 506 686 489 l 601 507 q 711 589 672 529 q 750 742 750 649 q 685 923 750 860 q 508 986 621 986 l 153 986 q 147 981 147 986 l 147 6 q 153 0 147 0 m 513 514 l 168 514 l 168 967 l 507 967 q 670 909 611 967 q 729 742 729 851 q 672 572 729 631 q 513 514 615 514 m 526 19 l 168 19 l 168 494 l 533 494 q 700 433 640 494 q 760 258 760 372 q 697 82 760 144 q 526 19 633 19 "},"Г":{"ha":697,"x_min":147,"x_max":646,"o":"m 153 0 l 163 0 q 168 6 168 0 l 168 967 l 640 967 q 646 972 646 967 l 646 981 q 640 986 646 986 l 153 986 q 147 981 147 986 l 147 6 q 153 0 147 0 "},"Д":{"ha":946,"x_min":42,"x_max":888,"o":"m 47 -212 l 56 -212 q 63 -207 63 -212 l 63 0 l 867 0 l 867 -207 q 872 -212 867 -212 l 882 -212 q 888 -207 888 -212 l 888 14 q 882 19 888 19 l 785 19 l 785 981 q 779 986 785 986 l 268 986 q 263 981 263 986 l 263 703 q 240 305 263 447 q 185 107 217 163 q 111 19 154 51 l 47 19 q 42 14 42 19 l 42 -207 q 47 -212 42 -212 m 764 19 l 140 19 q 210 113 179 51 q 261 317 240 175 q 282 703 282 460 l 282 967 l 764 967 l 764 19 "},"Е":{"ha":783,"x_min":147,"x_max":697,"o":"m 153 0 l 692 0 q 697 6 697 0 l 697 14 q 692 19 697 19 l 168 19 l 168 490 l 619 490 q 625 496 625 490 l 625 504 q 619 510 625 510 l 168 510 l 168 967 l 672 967 q 678 972 678 967 l 678 981 q 672 986 678 986 l 153 986 q 147 981 147 986 l 147 6 q 153 0 147 0 "},"Ё":{"ha":783,"x_min":147,"x_max":697,"o":"m 153 0 l 692 0 q 697 6 697 0 l 697 14 q 692 19 697 19 l 168 19 l 168 490 l 619 490 q 625 496 625 490 l 625 504 q 619 510 625 510 l 168 510 l 168 967 l 672 967 q 678 972 678 967 l 678 981 q 672 986 678 986 l 153 986 q 147 981 147 986 l 147 6 q 153 0 147 0 m 293 1126 l 301 1126 q 314 1129 311 1126 q 317 1142 317 1132 l 317 1150 q 314 1162 317 1158 q 301 1165 311 1165 l 293 1165 q 278 1150 278 1165 l 278 1142 q 281 1129 278 1132 q 293 1126 285 1126 m 526 1126 l 533 1126 q 546 1130 542 1126 q 550 1142 550 1133 l 550 1150 q 533 1165 550 1165 l 526 1165 q 513 1162 517 1165 q 510 1150 510 1158 l 510 1142 q 513 1129 510 1132 q 526 1126 517 1126 "},"Ж":{"ha":1235,"x_min":54,"x_max":1181,"o":"m 63 0 l 69 0 q 81 6 76 0 l 243 344 q 331 456 281 421 q 467 490 381 490 l 607 490 l 607 6 q 613 0 607 0 l 622 0 q 628 6 628 0 l 628 490 l 768 490 q 904 456 854 490 q 992 344 954 421 l 1154 6 q 1165 0 1158 0 l 1172 0 q 1176 7 1181 0 l 1010 356 q 944 451 981 417 q 856 500 908 486 l 1163 979 q 1158 986 1167 986 l 1150 986 q 1138 981 1142 986 l 833 506 q 768 510 804 510 l 628 510 l 628 981 q 622 986 628 986 l 613 986 q 607 981 607 986 l 607 510 l 467 510 q 401 506 428 510 l 96 981 q 83 986 92 986 l 75 986 q 71 979 67 986 l 379 500 q 290 451 326 486 q 225 356 254 417 l 58 7 q 63 0 54 0 "},"З":{"ha":836,"x_min":86,"x_max":738,"o":"m 426 -19 q 660 55 582 -19 q 738 263 738 129 q 697 421 738 357 q 579 507 656 485 q 678 592 644 529 q 711 735 711 656 q 639 935 711 864 q 426 1006 567 1006 q 204 946 281 1006 q 96 761 128 886 q 100 753 94 754 l 107 751 q 115 754 114 749 q 218 932 149 878 q 426 986 288 986 q 624 921 556 986 q 692 735 692 856 q 646 580 692 643 q 507 517 600 517 l 244 517 q 239 511 239 517 l 239 503 q 244 497 239 497 l 507 497 q 662 433 607 497 q 717 263 717 369 q 644 69 717 138 q 426 0 572 0 q 210 59 283 0 q 107 240 136 118 q 99 244 106 246 l 92 242 q 88 233 86 240 q 197 43 119 106 q 426 -19 275 -19 "},"И":{"ha":951,"x_min":147,"x_max":804,"o":"m 156 0 l 164 0 q 172 6 168 0 l 636 724 l 685 799 q 782 949 749 899 l 783 949 l 782 701 l 783 6 q 788 0 783 0 l 799 0 q 804 6 804 0 l 801 981 q 794 986 801 986 l 786 986 q 779 982 783 986 l 329 285 l 171 39 l 169 39 l 169 310 l 168 981 q 164 986 168 986 l 151 986 q 147 981 147 986 l 150 6 q 156 0 150 0 "},"Й":{"ha":899,"x_min":147,"x_max":804,"o":"m 489 1103 q 607 1139 564 1103 q 672 1256 650 1175 q 668 1263 674 1261 l 661 1264 q 654 1258 656 1264 q 595 1154 635 1188 q 489 1121 556 1121 q 383 1154 422 1121 q 325 1258 344 1188 q 318 1264 324 1264 l 310 1263 q 306 1256 304 1261 q 371 1139 328 1175 q 489 1103 414 1103 m 156 0 l 164 0 q 172 6 168 0 l 636 724 l 685 799 q 782 949 749 899 l 783 949 l 782 701 l 783 6 q 788 0 783 0 l 799 0 q 804 6 804 0 l 801 981 q 794 986 801 986 l 786 986 q 779 982 783 986 l 329 285 l 171 39 l 169 39 l 169 310 l 168 981 q 164 986 168 986 l 151 986 q 147 981 147 986 l 150 6 q 156 0 150 0 "},"К":{"ha":815,"x_min":147,"x_max":763,"o":"m 153 0 l 163 0 q 168 6 168 0 l 168 490 l 367 490 q 498 456 450 490 q 581 346 546 422 l 736 6 q 747 0 740 0 l 754 0 q 758 7 763 0 l 599 356 q 528 459 567 424 q 428 506 489 494 l 746 979 q 742 986 750 986 l 733 986 q 721 981 725 986 l 406 508 q 367 510 394 510 l 168 510 l 168 981 q 163 986 168 986 l 153 986 q 147 981 147 986 l 147 6 q 153 0 147 0 "},"Л":{"ha":879,"x_min":28,"x_max":732,"o":"m 44 -18 q 155 63 118 19 q 215 240 192 107 q 238 647 238 374 l 238 967 l 711 967 l 711 6 q 717 0 711 0 l 726 0 q 732 6 732 0 l 732 981 q 726 986 732 986 l 222 986 q 217 981 217 986 l 217 647 q 197 256 217 383 q 143 85 178 129 q 35 0 108 40 q 32 -8 28 -3 l 36 -17 q 44 -18 39 -21 "},"М":{"ha":1093,"x_min":147,"x_max":946,"o":"m 153 0 l 163 0 q 168 6 168 0 l 168 728 l 168 943 l 169 943 l 215 858 l 260 774 l 535 249 q 546 242 539 242 l 553 242 q 563 249 560 242 l 832 767 q 879 854 849 796 l 925 942 l 926 942 q 925 728 925 871 l 925 6 q 931 0 925 0 l 940 0 q 946 6 946 0 l 946 981 q 940 986 946 986 l 932 986 q 925 984 928 986 q 921 978 922 982 l 549 267 l 172 979 q 161 986 168 986 l 153 986 q 147 981 147 986 l 147 6 q 153 0 147 0 "},"Н":{"ha":936,"x_min":147,"x_max":789,"o":"m 153 0 l 163 0 q 168 6 168 0 l 168 490 l 768 490 l 768 6 q 774 0 768 0 l 783 0 q 789 6 789 0 l 789 981 q 783 986 789 986 l 774 986 q 768 981 768 986 l 768 510 l 168 510 l 168 981 q 163 986 168 986 l 153 986 q 147 981 147 986 l 147 6 q 153 0 147 0 "},"О":{"ha":908,"x_min":117,"x_max":792,"o":"m 456 -19 q 705 69 618 -19 q 792 317 792 158 l 792 669 q 705 917 792 828 q 456 1006 618 1006 q 204 917 292 1006 q 117 669 117 828 l 117 317 q 204 69 117 158 q 456 -19 292 -19 m 456 0 q 220 84 303 0 q 138 318 138 168 l 138 668 q 220 902 138 818 q 456 986 303 986 q 689 902 607 986 q 771 668 771 818 l 771 318 q 690 85 772 169 q 456 0 607 0 "},"П":{"ha":926,"x_min":147,"x_max":779,"o":"m 153 0 l 163 0 q 168 6 168 0 l 168 967 l 758 967 l 758 6 q 764 0 758 0 l 774 0 q 779 6 779 0 l 779 981 q 774 986 779 986 l 153 986 q 147 981 147 986 l 147 6 q 153 0 147 0 "},"Р":{"ha":847,"x_min":147,"x_max":772,"o":"m 153 0 l 163 0 q 168 6 168 0 l 168 400 l 497 400 q 699 477 625 400 q 772 692 772 554 q 699 908 772 829 q 497 986 625 986 l 153 986 q 147 981 147 986 l 147 6 q 153 0 147 0 m 496 419 l 168 419 l 168 967 l 496 967 q 683 894 614 967 q 751 692 751 821 q 683 492 751 564 q 496 419 614 419 "},"С":{"ha":875,"x_min":117,"x_max":792,"o":"m 454 -19 q 678 43 603 -19 q 790 235 753 106 q 786 243 792 242 l 779 246 q 769 242 771 247 q 664 60 735 119 q 454 1 593 1 q 219 85 301 1 q 138 315 138 169 l 138 672 q 219 903 138 819 q 454 986 300 986 q 663 931 592 986 q 767 753 735 875 q 775 750 768 747 l 782 751 q 786 760 788 753 q 678 945 754 885 q 454 1006 601 1006 q 203 917 289 1006 q 117 671 117 829 l 117 317 q 204 69 117 158 q 454 -19 292 -19 "},"Т":{"ha":729,"x_min":43,"x_max":686,"o":"m 360 0 l 369 0 q 375 6 375 0 l 375 967 l 681 967 q 686 972 686 967 l 686 981 q 681 986 686 986 l 49 986 q 43 981 43 986 l 43 972 q 49 967 43 967 l 354 967 l 354 6 q 360 0 354 0 "},"У":{"ha":790,"x_min":33,"x_max":753,"o":"m 261 0 l 269 0 q 281 6 276 0 l 750 981 q 746 986 753 986 l 736 986 q 726 981 731 986 l 397 296 l 61 981 q 51 986 57 986 l 42 986 q 36 981 33 986 l 386 275 l 257 6 q 261 0 253 0 "},"Ф":{"ha":1135,"x_min":106,"x_max":1029,"o":"m 563 -28 l 572 -28 q 578 -22 578 -28 l 578 90 l 676 90 q 938 183 846 90 q 1029 443 1029 276 l 1029 550 q 938 810 1029 717 q 676 903 846 903 l 578 903 l 578 1015 q 572 1021 578 1021 l 563 1021 q 557 1015 557 1021 l 557 903 l 458 903 q 197 810 289 903 q 106 550 106 717 l 106 443 q 197 183 106 276 q 458 90 289 90 l 557 90 l 557 -22 q 563 -28 557 -28 m 557 110 l 458 110 q 212 198 297 110 q 126 443 126 286 l 126 550 q 212 795 126 707 q 458 883 297 883 l 557 883 l 557 110 m 676 110 l 578 110 l 578 883 l 676 883 q 923 795 838 883 q 1008 550 1008 707 l 1008 443 q 923 198 1008 286 q 676 110 838 110 "},"Х":{"ha":815,"x_min":43,"x_max":772,"o":"m 51 0 l 63 0 q 74 6 69 0 l 407 485 l 742 6 q 751 0 746 0 l 763 0 q 765 10 772 0 l 421 501 l 757 981 q 753 986 760 986 l 742 986 q 731 981 735 986 l 407 517 l 83 981 q 74 986 79 986 l 61 986 q 57 981 54 986 l 393 500 l 50 10 q 51 0 43 0 "},"Ч":{"ha":851,"x_min":88,"x_max":704,"o":"m 689 0 l 699 0 q 704 6 704 0 l 704 981 q 699 986 704 986 l 689 986 q 683 981 683 986 l 683 443 q 558 415 624 426 q 400 404 493 404 q 174 483 239 404 q 108 725 108 561 l 108 981 q 103 986 108 986 l 93 986 q 88 981 88 986 l 88 725 q 160 469 88 554 q 400 383 232 383 q 556 394 494 383 q 683 422 618 406 l 683 6 q 689 0 683 0 "},"Ц":{"ha":943,"x_min":147,"x_max":885,"o":"m 871 -212 l 879 -212 q 885 -207 885 -212 l 885 14 q 879 19 885 19 l 782 19 l 782 981 q 775 986 782 986 l 767 986 q 761 981 761 986 l 761 19 l 168 19 l 168 981 q 161 986 168 986 l 153 986 q 147 981 147 986 l 147 6 q 153 0 147 0 l 864 0 l 864 -207 q 871 -212 864 -212 "},"Ш":{"ha":1240,"x_min":147,"x_max":1093,"o":"m 153 0 l 1088 0 q 1093 6 1093 0 l 1093 981 q 1088 986 1093 986 l 1079 986 q 1072 981 1072 986 l 1072 19 l 631 19 l 631 981 q 625 986 631 986 l 615 986 q 610 981 610 986 l 610 19 l 168 19 l 168 981 q 161 986 168 986 l 153 986 q 147 981 147 986 l 147 6 q 153 0 147 0 "},"Щ":{"ha":1264,"x_min":147,"x_max":1206,"o":"m 1190 -212 l 1200 -212 q 1206 -207 1206 -212 l 1206 14 q 1200 19 1206 19 l 1099 19 l 1099 981 q 1093 986 1099 986 l 1083 986 q 1078 981 1078 986 l 1078 19 l 633 19 l 633 981 q 628 986 633 986 l 618 986 q 613 981 613 986 l 613 19 l 168 19 l 168 981 q 163 986 168 986 l 153 986 q 147 981 147 986 l 147 6 q 153 0 147 0 l 1185 0 l 1185 -207 q 1190 -212 1185 -212 "},"Ь":{"ha":847,"x_min":147,"x_max":772,"o":"m 153 0 l 499 0 q 699 78 625 0 q 772 294 772 157 q 699 508 772 431 q 499 586 625 586 l 168 586 l 168 981 q 163 986 168 986 l 153 986 q 147 981 147 986 l 147 6 q 153 0 147 0 m 497 19 l 168 19 l 168 567 l 497 567 q 683 494 615 567 q 751 294 751 422 q 683 92 751 165 q 497 19 615 19 "},"Ъ":{"ha":988,"x_min":43,"x_max":913,"o":"m 279 0 l 632 0 q 837 78 761 0 q 913 294 913 157 q 838 508 913 431 q 632 586 763 586 l 294 586 l 294 981 q 289 986 294 986 l 49 986 q 43 981 43 986 l 43 972 q 49 967 43 967 l 274 967 l 274 6 q 279 0 274 0 m 631 19 l 294 19 l 294 567 l 631 567 q 822 494 753 567 q 892 294 892 422 q 822 92 892 165 q 631 19 751 19 "},"Ы":{"ha":1131,"x_min":147,"x_max":983,"o":"m 153 0 l 499 0 q 699 78 625 0 q 772 294 772 157 q 699 508 772 431 q 499 586 625 586 l 168 586 l 168 981 q 163 986 168 986 l 153 986 q 147 981 147 986 l 147 6 q 153 0 147 0 m 968 0 l 978 0 q 983 6 983 0 l 983 981 q 978 986 983 986 l 968 986 q 963 981 963 986 l 963 6 q 968 0 963 0 m 497 19 l 168 19 l 168 567 l 497 567 q 683 494 615 567 q 751 294 751 422 q 683 92 751 165 q 497 19 615 19 "},"Э":{"ha":881,"x_min":89,"x_max":764,"o":"m 426 -19 q 676 69 589 -19 q 764 315 764 157 l 764 672 q 678 918 764 831 q 426 1006 592 1006 q 203 946 281 1006 q 94 761 126 886 q 99 753 93 754 l 106 751 q 114 754 113 749 q 217 931 146 876 q 426 986 289 986 q 663 903 582 986 q 743 674 743 821 l 743 508 l 282 508 q 276 503 276 508 l 276 494 q 282 489 276 489 l 743 489 l 743 314 q 661 84 743 168 q 426 0 579 0 q 214 58 286 0 q 110 240 142 117 q 101 244 108 246 l 94 242 q 90 233 89 240 q 199 43 122 106 q 426 -19 275 -19 "},"Ю":{"ha":1250,"x_min":147,"x_max":1133,"o":"m 792 -19 q 1045 69 957 -19 q 1133 314 1133 157 l 1133 672 q 1045 917 1133 829 q 792 1006 957 1006 q 535 917 624 1006 q 447 672 447 829 l 447 510 l 168 510 l 168 981 q 163 986 168 986 l 153 986 q 147 981 147 986 l 147 6 q 153 0 147 0 l 163 0 q 168 6 168 0 l 168 490 l 447 490 l 447 314 q 535 69 447 157 q 792 -19 624 -19 m 792 0 q 551 83 635 0 q 468 315 468 167 l 468 671 q 551 903 468 819 q 792 986 635 986 q 1030 903 947 986 q 1113 671 1113 819 l 1113 315 q 1030 83 1113 167 q 792 0 947 0 "},"Я":{"ha":879,"x_min":78,"x_max":732,"o":"m 86 0 l 93 0 q 106 6 101 0 l 238 310 q 320 421 271 386 q 451 456 369 456 l 711 456 l 711 6 q 717 0 711 0 l 726 0 q 732 6 732 0 l 732 981 q 726 986 732 986 l 354 986 q 170 917 236 986 q 104 719 104 847 q 167 529 104 597 q 343 456 229 461 q 272 407 300 439 q 219 321 243 375 l 82 7 q 86 0 78 0 m 711 475 l 356 475 q 186 539 247 475 q 125 719 125 603 q 185 902 125 838 q 356 967 246 967 l 711 967 l 711 475 "},"а":{"ha":699,"x_min":88,"x_max":581,"o":"m 349 -19 q 536 17 461 -19 q 572 44 563 29 q 581 96 581 60 l 581 475 q 524 667 581 606 q 349 728 468 728 q 201 690 261 728 q 108 581 140 651 q 111 572 106 574 l 117 569 q 125 572 122 567 q 349 710 194 710 q 510 653 458 710 q 561 475 561 597 l 561 372 q 353 392 451 392 q 153 342 218 392 q 88 188 88 292 q 151 31 88 82 q 349 -19 214 -19 m 347 -1 q 165 44 224 -1 q 107 188 107 90 q 166 328 107 283 q 351 374 225 374 q 561 354 451 374 l 561 96 q 555 56 561 67 q 526 33 549 44 q 447 7 489 15 q 347 -1 404 -1 "},"б":{"ha":761,"x_min":125,"x_max":657,"o":"m 390 -19 q 589 49 521 -19 q 657 240 657 117 l 657 440 q 589 632 657 564 q 390 700 521 700 q 235 657 294 700 q 144 561 175 614 l 144 600 q 173 838 144 753 q 269 962 201 924 q 461 1000 338 1000 l 511 1000 q 578 1006 547 1000 q 625 1022 610 1013 q 628 1024 626 1022 q 629 1029 631 1025 l 625 1038 q 622 1042 624 1042 q 617 1040 619 1042 q 510 1019 586 1019 l 461 1019 q 258 979 331 1019 q 156 849 186 939 q 125 600 125 760 l 125 240 q 193 49 125 118 q 390 -19 261 -19 m 390 -1 q 208 63 272 -1 q 144 240 144 126 l 144 528 q 228 630 169 578 q 390 682 286 682 q 574 618 511 682 q 638 440 638 554 l 638 240 q 574 63 638 126 q 390 -1 511 -1 "},"в":{"ha":733,"x_min":132,"x_max":638,"o":"m 139 0 l 449 0 q 588 49 539 0 q 638 189 638 99 q 608 306 638 261 q 511 371 578 350 q 614 535 614 411 q 566 664 614 619 q 431 708 518 708 l 139 708 q 132 701 132 708 l 132 7 q 139 0 132 0 m 439 378 l 151 378 l 151 690 l 429 690 q 552 651 510 690 q 594 535 594 611 q 552 418 594 458 q 439 378 510 378 m 449 18 l 151 18 l 151 360 l 444 360 q 573 315 528 360 q 618 189 618 271 q 574 63 618 107 q 449 18 529 18 "},"г":{"ha":583,"x_min":132,"x_max":532,"o":"m 138 0 l 146 0 q 151 6 151 0 l 151 690 l 526 690 q 532 696 532 690 l 532 703 q 526 708 532 708 l 138 708 q 132 703 132 708 l 132 6 q 138 0 132 0 "},"д":{"ha":785,"x_min":40,"x_max":728,"o":"m 46 -193 l 53 -193 q 60 -187 60 -193 l 60 0 l 708 0 l 708 -187 q 715 -193 708 -193 l 722 -193 q 728 -187 728 -193 l 728 13 q 722 18 728 18 l 638 18 l 638 703 q 632 708 638 708 l 204 708 q 199 703 199 708 l 199 472 q 185 222 199 314 q 150 89 171 131 q 97 18 129 47 l 46 18 q 40 13 40 18 l 40 -187 q 46 -193 40 -193 m 618 18 l 125 18 q 194 163 171 64 q 218 472 218 261 l 218 690 l 618 690 l 618 18 "},"е":{"ha":724,"x_min":103,"x_max":628,"o":"m 357 -19 q 624 150 546 -19 q 621 157 626 154 l 614 161 q 606 158 610 164 q 511 40 569 81 q 357 -1 453 -1 q 182 65 242 -1 q 122 246 122 131 l 122 357 l 610 357 q 628 375 628 357 l 628 442 q 561 651 628 575 q 367 728 494 728 q 170 651 238 728 q 103 442 103 575 l 103 246 q 167 51 103 121 q 357 -19 232 -19 m 608 375 l 122 375 l 122 442 q 185 638 122 567 q 367 710 247 710 q 547 638 486 710 q 608 442 608 567 l 608 375 "},"ё":{"ha":724,"x_min":103,"x_max":628,"o":"m 357 -19 q 624 150 546 -19 q 621 157 626 154 l 614 161 q 606 158 610 164 q 511 40 569 81 q 357 -1 453 -1 q 182 65 242 -1 q 122 246 122 131 l 122 357 l 610 357 q 628 375 628 357 l 628 442 q 561 651 628 575 q 367 728 494 728 q 170 651 238 728 q 103 442 103 575 l 103 246 q 167 51 103 121 q 357 -19 232 -19 m 608 375 l 122 375 l 122 442 q 185 638 122 567 q 367 710 247 710 q 547 638 486 710 q 608 442 608 567 l 608 375 m 246 883 l 254 883 q 267 886 264 883 q 269 899 269 889 l 269 907 q 267 919 269 915 q 254 922 264 922 l 246 922 q 231 907 231 922 l 231 899 q 234 886 231 889 q 246 883 238 883 m 479 883 l 486 883 q 499 887 494 883 q 503 899 503 890 l 503 907 q 486 922 503 922 l 479 922 q 466 919 469 922 q 463 907 463 915 l 463 899 q 466 886 463 889 q 479 883 469 883 "},"ж":{"ha":1019,"x_min":61,"x_max":958,"o":"m 65 0 l 76 0 q 85 4 83 0 l 203 256 q 263 333 229 310 q 356 357 297 357 l 500 357 l 500 6 q 506 0 500 0 l 514 0 q 519 6 519 0 l 519 357 l 664 357 q 756 333 722 357 q 817 256 790 310 l 935 4 q 943 0 938 0 l 953 0 q 956 6 958 0 l 835 264 q 787 334 814 308 q 721 369 760 360 l 947 701 q 943 708 951 708 l 935 708 q 928 708 931 708 q 922 703 925 707 l 699 374 q 664 375 689 375 l 519 375 l 519 703 q 514 708 519 708 l 506 708 q 500 703 500 708 l 500 375 l 356 375 q 319 374 331 375 l 96 703 q 90 708 93 707 q 83 708 88 708 l 76 708 q 72 701 68 708 l 299 369 q 233 334 260 360 q 185 264 206 308 l 64 6 q 65 0 61 0 "},"з":{"ha":706,"x_min":75,"x_max":610,"o":"m 360 -19 q 547 36 483 -19 q 610 185 610 92 q 490 367 610 335 l 490 368 q 597 535 597 408 q 535 674 597 619 q 354 728 472 728 q 187 680 256 728 q 103 589 118 632 q 89 544 89 546 q 93 536 86 539 l 100 533 q 108 539 107 531 q 149 618 118 579 q 233 683 181 657 q 354 708 285 708 q 519 659 463 708 q 576 535 576 610 q 534 417 576 460 q 411 375 492 375 l 260 375 q 254 368 254 375 l 254 363 q 260 356 254 356 l 411 356 q 547 314 504 356 q 589 185 589 272 q 531 51 589 101 q 360 0 474 0 q 196 49 264 0 q 114 140 128 97 q 100 185 100 183 q 93 189 99 190 l 86 186 q 81 179 79 185 q 104 124 75 179 q 195 24 133 68 q 360 -19 257 -19 "},"и":{"ha":778,"x_min":132,"x_max":646,"o":"m 138 0 l 147 0 q 154 4 150 0 l 561 582 l 626 675 l 628 675 q 626 544 626 633 l 626 6 q 632 0 626 0 l 640 0 q 646 6 646 0 l 646 703 q 640 708 646 708 l 631 708 q 625 706 628 708 l 211 119 l 151 33 l 150 33 q 151 150 151 71 l 151 703 q 146 708 151 708 l 138 708 q 132 703 132 708 l 132 6 q 138 0 132 0 "},"й":{"ha":725,"x_min":132,"x_max":646,"o":"m 138 0 l 147 0 q 154 4 150 0 l 561 582 l 626 675 l 628 675 q 626 544 626 633 l 626 6 q 632 0 626 0 l 640 0 q 646 6 646 0 l 646 703 q 640 708 646 708 l 631 708 q 625 706 628 708 l 211 119 l 151 33 l 150 33 q 151 150 151 71 l 151 703 q 146 708 151 708 l 138 708 q 132 703 132 708 l 132 6 q 138 0 132 0 m 397 824 q 512 862 469 824 q 575 983 554 900 q 571 992 576 990 l 564 993 q 557 988 558 993 q 500 878 538 913 q 397 843 463 843 q 294 878 332 843 q 238 988 257 913 q 231 993 236 993 l 224 992 q 219 983 218 990 q 283 862 240 900 q 397 824 325 824 "},"к":{"ha":706,"x_min":132,"x_max":647,"o":"m 138 0 l 146 0 q 151 6 151 0 l 151 357 l 365 357 q 454 333 421 357 q 511 256 488 308 l 624 4 q 633 0 626 0 l 642 0 q 644 6 647 0 l 529 264 q 477 340 507 314 q 401 372 447 367 l 636 701 q 632 708 640 708 l 625 708 q 618 708 621 708 q 613 703 615 707 l 379 375 l 364 375 l 151 375 l 151 703 q 146 708 151 708 l 138 708 q 132 703 132 708 l 132 6 q 138 0 132 0 "},"л":{"ha":735,"x_min":29,"x_max":603,"o":"m 40 -19 q 124 47 90 6 q 177 185 157 89 q 197 451 197 281 l 197 689 l 583 689 l 583 6 q 589 0 583 0 l 597 0 q 603 6 603 0 l 603 703 q 597 708 603 708 l 183 708 q 178 703 178 708 l 178 451 q 157 184 178 278 q 107 56 136 90 q 32 -3 78 21 q 31 -8 29 -4 l 35 -18 q 40 -19 36 -21 "},"м":{"ha":878,"x_min":132,"x_max":746,"o":"m 139 0 l 146 0 q 150 2 149 0 q 151 7 151 4 l 151 511 l 151 668 l 153 668 q 188 603 165 647 l 221 538 l 431 133 q 435 128 432 129 q 442 126 438 126 l 444 126 q 451 128 449 126 q 456 133 454 129 l 665 547 q 711 636 685 590 l 726 667 l 728 667 q 726 525 726 619 l 726 7 q 728 1 726 3 q 735 0 731 0 l 739 0 q 746 7 746 0 l 746 701 q 739 708 746 708 l 731 708 q 725 706 726 708 q 724 701 724 703 l 443 149 l 156 701 q 146 708 153 708 l 139 708 q 132 701 132 708 l 132 7 q 139 0 132 0 "},"н":{"ha":771,"x_min":132,"x_max":639,"o":"m 138 0 l 146 0 q 151 6 151 0 l 151 357 l 619 357 l 619 6 q 625 0 619 0 l 633 0 q 639 6 639 0 l 639 703 q 633 708 639 708 l 625 708 q 619 703 619 708 l 619 375 l 151 375 l 151 703 q 146 708 151 708 l 138 708 q 132 703 132 708 l 132 6 q 138 0 132 0 "},"о":{"ha":740,"x_min":108,"x_max":632,"o":"m 369 -19 q 560 42 489 -19 q 632 211 632 104 l 632 497 q 560 666 632 604 q 369 728 489 728 q 181 665 253 728 q 108 497 108 603 l 108 211 q 181 43 108 106 q 369 -19 253 -19 m 369 -1 q 195 56 263 -1 q 128 210 128 114 l 128 499 q 195 652 128 594 q 369 710 263 710 q 546 652 479 710 q 613 499 613 594 l 613 210 q 546 56 613 114 q 369 -1 479 -1 "},"п":{"ha":764,"x_min":132,"x_max":632,"o":"m 138 0 l 146 0 q 151 6 151 0 l 151 690 l 613 690 l 613 6 q 618 0 613 0 l 626 0 q 632 6 632 0 l 632 703 q 626 708 632 708 l 138 708 q 132 703 132 708 l 132 6 q 138 0 132 0 "},"р":{"ha":735,"x_min":128,"x_max":628,"o":"m 133 -306 l 142 -306 q 147 -300 147 -306 l 147 49 q 251 3 186 25 q 396 -19 317 -19 q 628 243 628 -19 l 628 453 q 372 728 628 728 q 178 689 264 728 q 138 660 147 675 q 128 613 128 646 l 128 -300 q 133 -306 128 -306 m 394 0 q 251 23 317 0 q 147 71 185 46 l 147 613 q 154 649 147 639 q 186 671 161 658 q 268 699 219 688 q 372 710 317 710 q 550 645 492 710 q 608 453 608 581 l 608 243 q 394 0 608 0 "},"с":{"ha":708,"x_min":106,"x_max":625,"o":"m 365 -19 q 531 28 472 -19 q 624 182 589 75 q 621 189 625 186 l 611 192 q 607 192 608 193 q 606 188 606 190 q 519 44 575 89 q 365 0 464 0 q 188 65 250 0 q 125 244 125 131 l 125 465 q 186 644 125 579 q 365 708 247 708 q 522 666 468 708 q 601 526 576 624 q 608 524 601 521 l 617 526 q 619 535 621 529 q 535 680 593 632 q 365 728 478 728 q 172 658 238 728 q 106 465 106 589 l 106 244 q 173 51 106 121 q 365 -19 240 -19 "},"т":{"ha":596,"x_min":47,"x_max":549,"o":"m 296 0 l 303 0 q 308 6 308 0 l 308 690 l 543 690 q 549 696 549 690 l 549 703 q 543 708 549 708 l 53 708 q 47 703 47 708 l 47 696 q 53 690 47 690 l 289 690 l 289 6 q 296 0 289 0 "},"у":{"ha":757,"x_min":125,"x_max":625,"o":"m 369 -361 q 625 -62 625 -361 l 625 703 q 619 708 625 708 l 611 708 q 606 703 606 708 l 606 57 q 496 15 553 32 q 361 -1 439 -1 q 197 61 250 -1 q 144 246 144 124 l 144 703 q 139 708 144 708 l 131 708 q 125 703 125 708 l 125 244 q 360 -19 125 -19 q 493 -4 440 -19 q 606 38 546 11 l 606 -62 q 369 -342 606 -342 q 234 -301 285 -342 q 151 -186 183 -261 q 142 -183 149 -181 l 138 -186 q 133 -190 133 -187 q 135 -196 133 -193 q 223 -318 168 -275 q 369 -361 278 -361 "},"ф":{"ha":1021,"x_min":104,"x_max":915,"o":"m 507 -306 l 515 -306 q 521 -300 521 -306 l 521 -10 q 643 -19 594 -19 q 836 35 757 -19 q 915 250 915 90 l 915 458 q 836 673 915 618 q 643 728 757 728 q 521 718 594 728 l 521 1022 q 515 1028 521 1028 l 507 1028 q 501 1022 501 1028 l 501 718 q 376 728 428 728 q 185 666 267 728 q 104 444 104 604 l 104 250 q 183 35 104 90 q 376 -19 263 -19 q 501 -10 429 -19 l 501 -300 q 507 -306 501 -306 m 375 0 q 124 250 124 0 l 124 444 q 200 652 122 596 q 375 708 278 708 q 501 700 435 708 l 501 8 q 375 0 435 0 m 644 0 q 521 8 586 0 l 521 700 q 644 708 585 708 q 896 458 896 708 l 896 250 q 644 0 897 0 "},"х":{"ha":643,"x_min":50,"x_max":596,"o":"m 54 0 l 65 0 q 75 4 71 0 l 324 349 l 568 4 q 576 0 572 0 l 590 0 q 593 4 596 0 l 336 365 l 578 704 q 578 707 579 706 q 575 708 578 708 l 563 708 q 554 704 558 708 l 322 379 l 89 704 q 79 708 86 708 l 68 708 q 64 704 63 708 l 310 364 l 51 4 q 54 0 50 0 "},"ч":{"ha":692,"x_min":82,"x_max":560,"o":"m 546 0 l 554 0 q 560 6 560 0 l 560 703 q 554 708 560 708 l 546 708 q 540 703 540 708 l 540 339 q 447 312 504 326 q 326 297 389 297 q 154 348 207 297 q 101 514 101 399 l 101 703 q 96 708 101 708 l 88 708 q 82 703 82 708 l 82 514 q 140 335 82 392 q 326 279 199 279 q 540 319 419 279 l 540 6 q 546 0 540 0 "},"ц":{"ha":775,"x_min":132,"x_max":718,"o":"m 704 -193 l 713 -193 q 718 -187 718 -193 l 718 13 q 713 18 718 18 l 629 18 l 629 703 q 624 708 629 708 l 615 708 q 610 703 610 708 l 610 18 l 151 18 l 151 703 q 146 708 151 708 l 138 708 q 132 703 132 708 l 132 6 q 138 0 132 0 l 699 0 l 699 -187 q 704 -193 699 -193 "},"ш":{"ha":1044,"x_min":132,"x_max":913,"o":"m 138 0 l 907 0 q 913 6 913 0 l 913 703 q 907 708 913 708 l 900 708 q 893 703 893 708 l 893 18 l 532 18 l 532 703 q 526 708 532 708 l 518 708 q 513 703 513 708 l 513 18 l 151 18 l 151 703 q 144 708 151 708 l 138 708 q 132 703 132 708 l 132 6 q 138 0 132 0 "},"щ":{"ha":1065,"x_min":132,"x_max":1007,"o":"m 993 -193 l 1001 -193 q 1007 -187 1007 -193 l 1007 13 q 1001 18 1007 18 l 918 18 l 918 703 q 913 708 918 708 l 904 708 q 899 703 899 708 l 899 18 l 535 18 l 535 703 q 529 708 535 708 l 521 708 q 515 703 515 708 l 515 18 l 151 18 l 151 703 q 146 708 151 708 l 138 708 q 132 703 132 708 l 132 6 q 138 0 132 0 l 988 0 l 988 -187 q 993 -193 988 -193 "},"ь":{"ha":708,"x_min":132,"x_max":633,"o":"m 138 0 l 422 0 q 578 60 524 0 q 633 232 633 119 q 578 401 633 343 q 422 460 524 460 l 151 460 l 151 703 q 146 708 151 708 l 138 708 q 132 703 132 708 l 132 6 q 138 0 132 0 m 421 18 l 151 18 l 151 442 l 421 442 q 564 388 514 442 q 614 232 614 335 q 564 73 614 128 q 421 18 514 18 "},"ъ":{"ha":843,"x_min":46,"x_max":768,"o":"m 257 0 l 550 0 q 711 60 654 0 q 768 232 768 119 q 711 401 768 343 q 550 460 654 460 l 271 460 l 271 703 q 265 708 271 708 l 51 708 q 46 703 46 708 l 46 696 q 51 690 46 690 l 251 690 l 251 6 q 257 0 251 0 m 549 18 l 271 18 l 271 442 l 549 442 q 697 388 646 442 q 749 232 749 335 q 697 73 749 128 q 549 18 644 18 "},"ы":{"ha":947,"x_min":132,"x_max":815,"o":"m 138 0 l 429 0 q 590 60 533 0 q 646 232 646 119 q 590 401 646 343 q 429 460 533 460 l 151 460 l 151 703 q 146 708 151 708 l 138 708 q 132 703 132 708 l 132 6 q 138 0 132 0 m 801 0 l 810 0 q 815 6 815 0 l 815 703 q 810 708 815 708 l 801 708 q 796 703 796 708 l 796 6 q 801 0 796 0 m 428 18 l 151 18 l 151 442 l 428 442 q 576 388 525 442 q 626 232 626 335 q 575 73 626 128 q 428 18 524 18 "},"э":{"ha":707,"x_min":81,"x_max":601,"o":"m 342 -19 q 534 51 467 -19 q 601 244 601 121 l 601 465 q 535 658 601 589 q 343 728 469 728 q 170 680 229 728 q 88 535 111 632 q 90 526 86 529 l 99 525 q 106 528 103 524 q 184 666 131 624 q 343 708 238 708 q 521 644 460 708 q 582 465 582 579 l 582 374 l 256 374 q 250 368 250 374 l 250 360 q 256 354 250 354 l 582 354 l 582 244 q 519 66 582 132 q 343 0 457 0 q 183 47 242 0 q 101 193 125 93 q 93 197 97 199 l 85 194 q 82 188 81 192 q 170 32 107 83 q 342 -19 233 -19 "},"ю":{"ha":1018,"x_min":132,"x_max":907,"o":"m 642 -19 q 835 41 763 -19 q 907 207 907 101 l 907 501 q 835 667 907 607 q 642 728 763 728 q 449 667 522 728 q 376 501 376 607 l 376 368 l 151 368 l 151 703 q 144 708 151 708 l 138 708 q 132 703 132 708 l 132 6 q 138 0 132 0 l 144 0 q 151 6 151 0 l 151 350 l 376 350 l 376 207 q 449 41 376 101 q 642 -19 522 -19 m 642 -1 q 464 55 532 -1 q 396 206 396 111 l 396 503 q 464 653 396 597 q 642 710 532 710 q 820 653 753 710 q 888 503 888 597 l 888 206 q 820 55 888 111 q 642 -1 753 -1 "},"я":{"ha":722,"x_min":86,"x_max":592,"o":"m 94 0 l 103 0 q 114 6 110 0 l 293 283 l 572 283 l 572 6 q 579 0 572 0 l 586 0 q 592 6 592 0 l 592 701 q 585 708 592 708 l 293 708 q 149 651 203 708 q 94 494 94 594 q 143 347 94 403 q 271 285 192 292 l 90 7 q 94 0 86 0 m 572 301 l 296 301 q 164 353 214 301 q 114 494 114 406 q 163 638 114 586 q 294 690 213 690 l 572 690 l 572 301 "},"π":{"ha":815,"x_min":39,"x_max":769,"o":"m 689 -1 l 696 3 q 697 13 701 7 q 664 91 672 51 q 656 197 656 131 l 656 690 l 764 690 q 769 696 769 690 l 769 703 q 764 708 769 708 l 239 708 q 134 697 178 708 q 44 653 90 685 q 42 644 39 650 l 46 638 q 56 638 49 633 q 135 678 100 667 q 224 690 171 689 l 224 6 q 229 0 224 0 l 238 0 q 243 6 243 0 l 243 690 l 636 690 l 636 197 q 645 86 636 129 q 681 1 654 43 q 689 -1 685 -4 "},"⁄":{"ha":219,"x_min":-210,"x_max":428,"o":"m -201 0 l -194 0 q -186 1 -189 0 q -181 7 -183 3 l 422 979 q 418 986 428 986 l 411 986 q 400 979 406 986 l -204 7 q -201 0 -210 0 "},"½":{"ha":1117,"x_min":69,"x_max":1026,"o":"m 257 444 l 265 444 q 271 450 271 444 l 271 988 q 265 993 271 993 l 261 993 q 251 990 257 993 l 75 888 q 72 879 69 885 l 75 875 q 83 872 78 869 l 251 968 l 251 450 q 257 444 251 444 m 203 0 l 210 0 q 218 1 215 0 q 224 7 221 3 l 826 979 q 822 986 832 986 l 815 986 q 804 979 810 986 l 200 7 q 203 0 194 0 m 707 0 l 1017 0 q 1024 6 1024 0 l 1024 13 q 1017 18 1024 18 l 717 18 l 717 76 q 736 164 717 132 q 797 214 756 196 l 874 247 l 903 260 q 968 290 943 275 q 1010 331 993 304 q 1026 403 1026 358 q 988 518 1026 476 q 871 560 949 560 q 750 514 794 560 q 699 411 706 468 q 703 404 696 404 l 711 403 q 717 408 715 403 q 763 501 724 460 q 871 542 803 542 q 973 506 939 542 q 1007 403 1007 469 q 992 341 1007 364 q 956 305 978 318 q 894 276 933 292 l 868 265 l 790 232 q 697 76 697 193 l 697 10 q 707 0 697 0 "},"⅓":{"ha":1146,"x_min":69,"x_max":1061,"o":"m 257 444 l 265 444 q 271 450 271 444 l 271 988 q 265 993 271 993 l 261 993 q 251 990 257 993 l 75 888 q 72 879 69 885 l 75 875 q 83 872 78 869 l 251 968 l 251 450 q 257 444 251 444 m 218 0 l 225 0 q 233 1 231 0 q 239 7 236 3 l 842 979 q 838 986 847 986 l 831 986 q 819 979 825 986 l 215 7 q 218 0 210 0 m 899 -11 q 1019 31 978 -11 q 1061 143 1061 74 q 1039 228 1061 192 q 976 283 1017 264 q 1030 333 1013 299 q 1047 408 1047 367 q 1007 518 1047 476 q 897 560 967 560 q 778 527 819 560 q 715 411 736 494 q 718 403 714 406 l 724 401 q 733 407 732 400 q 790 512 751 482 q 897 542 828 542 q 992 505 957 542 q 1028 408 1028 468 q 1003 326 1028 361 q 935 292 979 292 l 833 292 q 828 286 828 292 l 828 279 q 833 274 828 274 l 936 274 q 1011 235 981 274 q 1042 143 1042 196 q 1005 44 1042 82 q 899 7 968 7 q 786 40 825 7 q 731 149 747 72 q 724 154 729 156 l 715 151 q 713 149 714 151 q 713 143 711 147 q 774 26 729 64 q 899 -11 818 -11 "},"⅔":{"ha":1164,"x_min":97,"x_max":1079,"o":"m 108 444 l 418 444 q 425 450 425 444 l 425 457 q 418 463 425 463 l 118 463 l 118 521 q 138 610 118 578 q 199 660 157 642 l 275 693 l 304 706 q 369 735 344 721 q 411 777 394 750 q 428 849 428 804 q 389 964 428 922 q 272 1006 350 1006 q 151 960 196 1006 q 100 857 107 914 q 104 850 97 850 l 113 849 q 118 854 117 849 q 165 947 125 906 q 272 988 204 988 q 374 951 340 988 q 408 849 408 915 q 394 787 408 810 q 357 751 379 764 q 296 722 335 738 l 269 711 l 192 678 q 99 521 99 639 l 99 454 q 108 444 99 444 m 282 0 l 289 0 q 297 1 294 0 q 303 7 300 3 l 906 979 q 901 986 911 986 l 894 986 q 883 979 889 986 l 279 7 q 282 0 274 0 m 917 -11 q 1038 31 996 -11 q 1079 143 1079 74 q 1057 228 1079 192 q 994 283 1035 264 q 1048 333 1031 299 q 1065 408 1065 367 q 1025 518 1065 476 q 915 560 985 560 q 796 527 838 560 q 733 411 754 494 q 736 403 732 406 l 742 401 q 751 407 750 400 q 808 512 769 482 q 915 542 846 542 q 1010 505 975 542 q 1046 408 1046 468 q 1022 326 1046 361 q 953 292 997 292 l 851 292 q 846 286 846 292 l 846 279 q 851 274 846 274 l 954 274 q 1029 235 999 274 q 1060 143 1060 196 q 1023 44 1060 82 q 917 7 986 7 q 804 40 843 7 q 749 149 765 72 q 742 154 747 156 l 733 151 q 731 149 732 151 q 731 143 729 147 q 792 26 747 64 q 917 -11 836 -11 "},"¼":{"ha":1032,"x_min":71,"x_max":958,"o":"m 258 444 l 267 444 q 272 450 272 444 l 272 988 q 267 993 272 993 l 263 993 q 253 990 258 993 l 76 888 q 74 879 71 885 l 76 875 q 85 872 79 869 l 253 968 l 253 450 q 258 444 253 444 m 215 0 l 222 0 q 231 1 228 0 q 236 7 233 3 l 839 979 q 835 986 844 986 l 828 986 q 817 979 822 986 l 213 7 q 215 0 207 0 m 864 0 l 872 0 q 878 6 878 0 l 878 171 l 953 171 q 958 178 958 171 l 958 183 q 953 189 958 189 l 878 189 l 878 542 q 871 549 878 549 l 863 549 q 850 543 854 549 l 589 192 q 586 181 586 189 l 586 176 q 592 171 586 171 l 858 171 l 858 6 q 864 0 858 0 m 858 189 l 610 189 l 858 524 l 858 189 "},"¾":{"ha":1103,"x_min":89,"x_max":1029,"o":"m 276 435 q 397 477 356 435 q 439 589 439 519 q 417 674 439 638 q 354 729 394 710 q 408 778 390 744 q 425 854 425 813 q 384 964 425 922 q 275 1006 343 1006 q 156 972 199 1006 q 93 857 114 939 q 96 849 92 851 l 101 847 q 111 853 110 846 q 168 957 129 926 q 275 988 207 988 q 370 951 335 988 q 406 854 406 914 q 381 772 406 807 q 313 738 357 738 l 211 738 q 206 732 206 738 l 206 725 q 211 719 206 719 l 314 719 q 389 681 358 719 q 419 589 419 642 q 383 490 419 528 q 276 453 346 453 q 164 485 203 453 q 108 594 125 518 q 101 600 107 601 l 93 597 q 90 595 92 597 q 90 589 89 593 q 151 472 107 510 q 276 435 196 435 m 286 0 l 293 0 q 301 1 299 0 q 307 7 304 3 l 910 979 q 906 986 915 986 l 899 986 q 888 979 893 986 l 283 7 q 286 0 278 0 m 935 0 l 943 0 q 949 6 949 0 l 949 171 l 1024 171 q 1029 178 1029 171 l 1029 183 q 1024 189 1029 189 l 949 189 l 949 542 q 942 549 949 549 l 933 549 q 921 543 925 549 l 660 192 q 657 181 657 189 l 657 176 q 663 171 657 171 l 929 171 l 929 6 q 935 0 929 0 m 929 189 l 681 189 l 929 524 l 929 189 "},"⅛":{"ha":1139,"x_min":71,"x_max":1057,"o":"m 258 444 l 267 444 q 272 450 272 444 l 272 988 q 267 993 272 993 l 263 993 q 253 990 258 993 l 76 888 q 74 879 71 885 l 76 875 q 85 872 79 869 l 253 968 l 253 450 q 258 444 253 444 m 215 0 l 222 0 q 231 1 228 0 q 236 7 233 3 l 839 979 q 835 986 844 986 l 828 986 q 817 979 822 986 l 213 7 q 215 0 207 0 m 876 -11 q 1009 26 961 -11 q 1057 143 1057 64 q 1027 228 1057 197 q 936 275 997 260 q 1009 325 978 290 q 1040 421 1040 360 q 997 522 1040 485 q 876 560 953 560 q 753 522 799 560 q 708 413 708 483 q 732 331 708 363 q 810 282 756 299 q 729 231 764 265 q 694 133 694 196 q 742 26 694 63 q 876 -11 790 -11 m 900 282 q 765 324 801 296 q 728 413 728 353 q 767 508 728 475 q 876 542 807 542 q 983 509 944 542 q 1021 421 1021 476 q 981 323 1021 354 q 900 282 942 292 m 876 7 q 757 40 800 7 q 714 133 714 72 q 761 236 714 206 q 849 272 808 267 q 963 247 922 263 q 1020 208 1003 232 q 1038 143 1038 183 q 995 40 1038 74 q 876 7 953 7 "},"⅜":{"ha":1199,"x_min":86,"x_max":1118,"o":"m 274 435 q 394 477 353 435 q 436 589 436 519 q 414 674 436 638 q 351 729 392 710 q 405 778 388 744 q 422 854 422 813 q 381 964 422 922 q 272 1006 340 1006 q 153 972 196 1006 q 90 857 111 939 q 93 849 89 851 l 99 847 q 108 853 107 846 q 165 957 126 926 q 272 988 204 988 q 367 951 332 988 q 403 854 403 914 q 378 772 403 807 q 310 738 354 738 l 208 738 q 203 732 203 738 l 203 725 q 208 719 203 719 l 311 719 q 386 681 356 719 q 417 589 417 642 q 380 490 417 528 q 274 453 343 453 q 161 485 200 453 q 106 594 122 518 q 99 600 104 601 l 90 597 q 88 595 89 597 q 88 589 86 593 q 149 472 104 510 q 274 435 193 435 m 283 0 l 290 0 q 299 1 296 0 q 304 7 301 3 l 907 979 q 903 986 913 986 l 896 986 q 885 979 890 986 l 281 7 q 283 0 275 0 m 938 -11 q 1070 26 1022 -11 q 1118 143 1118 64 q 1088 228 1118 197 q 997 275 1058 260 q 1070 325 1039 290 q 1101 421 1101 360 q 1058 522 1101 485 q 938 560 1014 560 q 815 522 860 560 q 769 413 769 483 q 793 331 769 363 q 871 282 817 299 q 790 231 825 265 q 756 133 756 196 q 803 26 756 63 q 938 -11 851 -11 m 961 282 q 826 324 863 296 q 789 413 789 353 q 828 508 789 475 q 938 542 868 542 q 1044 509 1006 542 q 1082 421 1082 476 q 1042 323 1082 354 q 961 282 1003 292 m 938 7 q 818 40 861 7 q 775 133 775 72 q 822 236 775 206 q 910 272 869 267 q 1024 247 983 263 q 1081 208 1064 232 q 1099 143 1099 183 q 1056 40 1099 74 q 938 7 1014 7 "},"⅝":{"ha":1149,"x_min":78,"x_max":1067,"o":"m 257 439 q 381 487 340 439 q 422 608 422 535 q 378 727 422 685 q 249 769 335 769 l 122 769 l 142 979 l 399 979 q 404 985 404 979 l 404 993 q 399 999 404 999 l 135 999 q 124 989 124 999 l 103 760 q 111 750 103 750 l 249 750 q 403 608 403 750 q 366 501 403 543 q 257 458 329 458 q 149 493 186 458 q 99 597 111 528 q 90 603 97 604 l 82 601 q 79 592 78 600 q 138 478 96 517 q 257 439 179 439 m 243 0 l 250 0 q 258 1 256 0 q 264 7 261 3 l 867 979 q 863 986 872 986 l 856 986 q 844 979 850 986 l 240 7 q 243 0 235 0 m 886 -11 q 1019 26 971 -11 q 1067 143 1067 64 q 1037 228 1067 197 q 946 275 1007 260 q 1019 325 988 290 q 1050 421 1050 360 q 1006 522 1050 485 q 886 560 963 560 q 763 522 808 560 q 718 413 718 483 q 742 331 718 363 q 819 282 765 299 q 739 231 774 265 q 704 133 704 196 q 752 26 704 63 q 886 -11 800 -11 m 910 282 q 774 324 811 296 q 738 413 738 353 q 777 508 738 475 q 886 542 817 542 q 992 509 954 542 q 1031 421 1031 476 q 991 323 1031 354 q 910 282 951 292 m 886 7 q 767 40 810 7 q 724 133 724 72 q 771 236 724 206 q 858 272 818 267 q 972 247 932 263 q 1030 208 1013 232 q 1047 143 1047 183 q 1005 40 1047 74 q 886 7 963 7 "},"⅞":{"ha":1121,"x_min":72,"x_max":1039,"o":"m 154 446 l 163 446 q 171 450 169 446 l 396 978 l 397 986 l 397 990 q 392 994 397 994 l 78 994 q 72 989 72 994 l 72 981 q 78 976 72 976 l 376 976 l 150 451 q 154 446 149 446 m 165 0 l 172 0 q 181 1 178 0 q 186 7 183 3 l 789 979 q 785 986 794 986 l 778 986 q 767 979 772 986 l 163 7 q 165 0 157 0 m 858 -11 q 991 26 943 -11 q 1039 143 1039 64 q 1009 228 1039 197 q 918 275 979 260 q 991 325 960 290 q 1022 421 1022 360 q 978 522 1022 485 q 858 560 935 560 q 735 522 781 560 q 690 413 690 483 q 714 331 690 363 q 792 282 738 299 q 711 231 746 265 q 676 133 676 196 q 724 26 676 63 q 858 -11 772 -11 m 882 282 q 747 324 783 296 q 710 413 710 353 q 749 508 710 475 q 858 542 789 542 q 965 509 926 542 q 1003 421 1003 476 q 963 323 1003 354 q 882 282 924 292 m 858 7 q 739 40 782 7 q 696 133 696 72 q 743 236 696 206 q 831 272 790 267 q 944 247 904 263 q 1002 208 985 232 q 1019 143 1019 183 q 977 40 1019 74 q 858 7 935 7 "},".":{"ha":249,"x_min":100,"x_max":147,"o":"m 121 -8 l 126 -8 q 142 -3 138 -8 q 147 13 147 1 l 147 18 q 142 34 147 29 q 126 39 138 39 l 121 39 q 105 34 110 39 q 100 18 100 29 l 100 13 q 105 -4 100 0 q 121 -8 110 -8 "},",":{"ha":246,"x_min":49,"x_max":144,"o":"m 54 -168 l 61 -168 q 68 -162 67 -168 l 140 39 q 133 49 144 49 l 122 49 q 114 47 117 49 q 110 39 111 44 l 50 -162 q 54 -168 49 -168 "},":":{"ha":281,"x_min":121,"x_max":168,"o":"m 142 -8 l 147 -8 q 163 -3 158 -8 q 168 13 168 1 l 168 18 q 163 34 168 29 q 147 39 158 39 l 142 39 q 126 34 131 39 q 121 18 121 29 l 121 13 q 126 -4 121 0 q 142 -8 131 -8 m 142 617 l 147 617 q 163 622 158 617 q 168 638 168 626 l 168 643 q 163 659 168 654 q 147 664 158 664 l 142 664 q 126 659 131 664 q 121 643 121 654 l 121 638 q 126 621 121 625 q 142 617 131 617 "},";":{"ha":346,"x_min":110,"x_max":213,"o":"m 186 617 l 192 617 q 208 622 203 617 q 213 638 213 626 l 213 643 q 208 659 213 654 q 192 664 203 664 l 186 664 q 170 659 175 664 q 165 643 165 654 l 165 638 q 170 621 165 625 q 186 617 175 617 m 115 -168 l 122 -168 q 129 -162 128 -168 l 201 39 q 194 49 206 49 l 183 49 q 175 47 178 49 q 171 39 172 44 l 111 -162 q 115 -168 110 -168 "},"…":{"ha":749,"x_min":103,"x_max":650,"o":"m 124 -8 l 129 -8 q 145 -3 140 -8 q 150 13 150 1 l 150 18 q 145 34 150 29 q 129 39 140 39 l 124 39 q 108 34 113 39 q 103 18 103 29 l 103 13 q 108 -4 103 0 q 124 -8 113 -8 m 374 -8 l 379 -8 q 395 -3 390 -8 q 400 13 400 1 l 400 18 q 395 34 400 29 q 379 39 390 39 l 374 39 q 358 34 363 39 q 353 18 353 29 l 353 13 q 358 -4 353 0 q 374 -8 363 -8 m 624 -8 l 629 -8 q 645 -3 640 -8 q 650 13 650 1 l 650 18 q 645 34 650 29 q 629 39 640 39 l 624 39 q 608 34 613 39 q 603 18 603 29 l 603 13 q 608 -4 603 0 q 624 -8 613 -8 "},"!":{"ha":288,"x_min":121,"x_max":168,"o":"m 142 181 l 146 181 q 151 186 151 181 l 156 1022 q 150 1028 156 1028 l 138 1028 q 132 1022 132 1028 l 136 186 q 142 181 136 181 m 142 -8 l 147 -8 q 163 -3 158 -8 q 168 13 168 1 l 168 18 q 163 34 168 29 q 147 39 158 39 l 142 39 q 126 34 131 39 q 121 18 121 29 l 121 13 q 126 -4 121 0 q 142 -8 131 -8 "},"¡":{"ha":271,"x_min":113,"x_max":160,"o":"m 139 711 l 133 711 q 117 707 122 711 q 113 690 113 703 l 113 685 q 117 669 113 674 q 133 664 122 664 l 139 664 q 155 669 150 664 q 160 685 160 674 l 160 690 q 155 706 160 701 q 139 711 150 711 m 138 522 l 133 522 q 128 517 128 522 l 124 -319 q 129 -325 124 -325 l 142 -325 q 147 -319 147 -325 l 143 517 q 138 522 143 522 "},"?":{"ha":813,"x_min":72,"x_max":735,"o":"m 368 171 l 376 171 q 381 172 379 171 q 382 176 382 174 q 404 285 382 239 q 460 361 426 331 q 546 428 493 392 q 644 505 606 468 q 708 600 682 542 q 735 743 735 658 q 697 887 735 822 q 585 990 658 951 q 414 1028 513 1028 q 74 799 161 1028 q 76 792 72 793 l 86 789 q 93 793 92 788 q 414 1008 175 1008 q 575 973 507 1008 q 678 877 643 938 q 714 743 714 817 q 690 608 714 663 q 629 519 665 553 q 535 444 593 485 q 442 374 476 406 q 385 294 408 343 q 363 176 363 246 q 364 172 363 174 q 368 171 365 171 m 369 -8 l 375 -8 q 391 -3 386 -8 q 396 13 396 1 l 396 18 q 391 34 396 29 q 375 39 386 39 l 369 39 q 353 34 358 39 q 349 18 349 29 l 349 13 q 353 -4 349 0 q 369 -8 358 -8 "},"¿":{"ha":804,"x_min":74,"x_max":736,"o":"m 439 713 l 433 713 q 417 708 422 713 q 413 692 413 703 l 413 686 q 417 670 413 675 q 433 665 422 665 l 439 665 q 455 670 450 665 q 460 686 460 675 l 460 692 q 455 708 460 704 q 439 713 450 713 m 440 533 l 432 533 q 428 532 429 533 q 426 528 426 531 q 404 419 426 465 q 349 343 382 374 q 263 276 315 313 q 165 199 203 236 q 100 104 126 163 q 74 -39 74 46 q 112 -183 74 -118 q 223 -285 150 -247 q 394 -324 296 -324 q 735 -94 647 -324 q 732 -87 736 -89 l 722 -85 q 715 -89 717 -83 q 394 -304 633 -304 q 233 -269 301 -304 q 130 -173 165 -233 q 94 -39 94 -112 q 119 97 94 42 q 179 185 143 151 q 274 260 215 219 q 366 330 332 299 q 423 410 400 361 q 446 528 446 458 q 444 532 446 531 q 440 533 443 533 "},"·":{"ha":286,"x_min":119,"x_max":167,"o":"m 140 338 l 146 338 q 162 342 157 338 q 167 358 167 347 l 167 364 q 162 380 167 375 q 146 385 157 385 l 140 385 q 124 380 129 385 q 119 364 119 375 l 119 358 q 124 342 119 346 q 140 338 129 338 "},"•":{"ha":381,"x_min":151,"x_max":229,"o":"m 190 325 q 218 336 207 325 q 229 365 229 347 q 218 394 229 383 q 190 406 207 406 q 163 394 174 406 q 151 365 151 383 q 163 336 151 347 q 190 325 174 325 "},"*":{"ha":604,"x_min":117,"x_max":486,"o":"m 183 596 l 193 588 q 201 590 197 585 l 301 735 l 400 589 q 408 588 403 585 l 418 594 q 419 603 424 599 l 313 743 l 481 790 q 485 799 486 792 l 482 810 q 472 813 481 814 l 308 756 l 313 929 q 307 935 313 935 l 296 935 q 290 929 290 935 l 294 756 l 132 814 q 124 811 125 817 l 119 800 q 125 792 117 793 l 290 743 l 182 604 q 183 596 178 600 "},"#":{"ha":951,"x_min":79,"x_max":871,"o":"m 181 0 l 192 0 q 199 6 199 0 l 286 299 l 560 299 l 472 6 q 476 0 471 0 l 488 0 q 494 2 492 0 q 496 6 496 4 l 583 299 l 765 299 q 772 303 771 299 l 775 311 q 771 318 776 318 l 589 318 l 676 614 l 860 614 q 867 618 865 614 l 869 626 q 865 633 871 633 l 683 633 l 757 882 q 751 888 758 888 l 740 888 q 735 882 736 888 l 660 633 l 386 633 l 461 882 q 457 888 463 888 l 446 888 q 439 882 439 888 l 364 633 l 186 633 q 178 628 179 633 l 175 619 q 179 614 174 614 l 358 614 l 269 318 l 92 318 q 83 313 85 318 l 81 304 q 85 299 79 299 l 264 299 l 176 6 q 181 0 175 0 m 565 318 l 292 318 l 381 614 l 654 614 l 565 318 "},"/":{"ha":571,"x_min":76,"x_max":496,"o":"m 83 -83 l 93 -83 q 101 -78 100 -83 l 493 981 q 489 986 496 986 l 479 986 q 471 981 472 986 l 79 -78 q 83 -83 76 -83 "},"\\":{"ha":571,"x_min":75,"x_max":496,"o":"m 478 -83 l 489 -83 q 493 -78 496 -83 l 101 981 q 93 986 100 986 l 82 986 q 78 981 75 986 l 469 -78 q 478 -83 471 -83 "},"(":{"ha":363,"x_min":118,"x_max":322,"o":"m 310 -311 q 317 -310 314 -314 l 321 -301 q 318 -294 322 -297 q 217 -218 254 -251 q 159 -135 181 -185 q 138 -12 138 -86 l 138 699 q 159 822 138 772 q 217 904 181 871 q 318 981 254 938 q 321 988 322 983 l 317 996 q 310 997 314 1000 q 203 917 242 953 q 141 828 164 881 q 118 699 118 776 l 118 -12 q 141 -142 118 -90 q 203 -231 164 -194 q 310 -311 242 -267 "},")":{"ha":363,"x_min":40,"x_max":244,"o":"m 53 -311 q 198 -199 151 -267 q 244 -12 244 -131 l 244 699 q 198 885 244 817 q 53 997 151 953 q 46 996 49 1000 l 42 988 q 44 981 40 983 q 181 874 138 938 q 225 699 225 810 l 225 -12 q 181 -187 225 -124 q 44 -294 138 -251 q 42 -301 40 -297 l 46 -310 q 53 -311 49 -314 "},"{":{"ha":454,"x_min":29,"x_max":417,"o":"m 353 -353 l 411 -353 q 417 -347 417 -353 l 417 -339 q 411 -333 417 -333 l 353 -333 q 244 -297 276 -333 q 213 -182 213 -260 l 213 183 q 192 290 213 250 q 124 344 171 329 q 192 399 171 360 q 213 506 213 439 l 213 869 q 244 984 213 947 q 353 1021 276 1021 l 411 1021 q 417 1026 417 1021 l 417 1035 q 411 1040 417 1040 l 353 1040 q 229 999 267 1040 q 192 869 192 958 l 192 506 q 160 391 192 428 q 51 354 128 354 l 35 354 q 29 349 29 354 l 29 340 q 35 335 29 335 l 51 335 q 160 298 128 335 q 192 183 192 261 l 192 -182 q 229 -312 192 -271 q 353 -353 267 -353 "},"}":{"ha":454,"x_min":38,"x_max":425,"o":"m 43 -353 l 101 -353 q 225 -312 188 -353 q 263 -182 263 -271 l 263 183 q 294 298 263 261 q 403 335 326 335 l 419 335 q 425 340 425 335 l 425 349 q 419 354 425 354 l 403 354 q 294 391 326 354 q 263 506 263 428 l 263 869 q 225 999 263 958 q 101 1040 188 1040 l 43 1040 q 38 1035 38 1040 l 38 1026 q 43 1021 38 1021 l 101 1021 q 210 984 178 1021 q 242 869 242 947 l 242 506 q 263 399 242 439 q 331 344 283 360 q 263 290 283 329 q 242 183 242 250 l 242 -182 q 210 -297 242 -260 q 101 -333 178 -333 l 43 -333 q 38 -339 38 -333 l 38 -347 q 43 -353 38 -353 "},"[":{"ha":385,"x_min":128,"x_max":344,"o":"m 133 -351 l 339 -351 q 344 -346 344 -351 l 344 -337 q 339 -332 344 -332 l 149 -332 l 149 1021 l 339 1021 q 344 1026 344 1021 l 344 1035 q 339 1040 344 1040 l 133 1040 q 128 1035 128 1040 l 128 -346 q 133 -351 128 -351 "},"]":{"ha":385,"x_min":40,"x_max":257,"o":"m 46 -351 l 251 -351 q 257 -346 257 -351 l 257 1035 q 251 1040 257 1040 l 46 1040 q 40 1035 40 1040 l 40 1026 q 46 1021 40 1021 l 236 1021 l 236 -332 l 46 -332 q 40 -337 40 -332 l 40 -346 q 46 -351 40 -351 "},"-":{"ha":653,"x_min":119,"x_max":533,"o":"m 125 360 l 528 360 q 533 365 533 360 l 533 374 q 528 379 533 379 l 125 379 q 119 374 119 379 l 119 365 q 125 360 119 360 "},"–":{"ha":864,"x_min":118,"x_max":746,"o":"m 124 363 l 740 363 q 746 368 746 363 l 746 376 q 740 382 746 382 l 124 382 q 118 376 118 382 l 118 368 q 124 363 118 363 "},"—":{"ha":1142,"x_min":118,"x_max":1024,"o":"m 124 363 l 1018 363 q 1024 368 1024 363 l 1024 376 q 1018 382 1024 382 l 124 382 q 118 376 118 382 l 118 368 q 124 363 118 363 "},"_":{"ha":769,"x_min":71,"x_max":699,"o":"m 76 -19 l 693 -19 q 699 -14 699 -19 l 699 -6 q 693 0 699 0 l 76 0 q 71 -6 71 0 l 71 -14 q 76 -19 71 -19 "},"‚":{"ha":235,"x_min":107,"x_max":131,"o":"m 113 -144 l 117 -144 q 122 -139 122 -144 l 131 147 q 125 153 131 153 l 113 153 q 107 147 107 153 l 107 -139 q 113 -144 107 -144 "},"„":{"ha":365,"x_min":47,"x_max":263,"o":"m 172 -168 l 179 -168 q 186 -162 185 -168 l 258 39 q 251 49 263 49 l 240 49 q 232 47 235 49 q 228 39 229 44 l 168 -162 q 172 -168 167 -168 m 53 -168 l 60 -168 q 67 -162 65 -168 l 139 39 q 132 49 143 49 l 121 49 q 113 47 115 49 q 108 39 110 44 l 49 -162 q 53 -168 47 -168 "},"“":{"ha":407,"x_min":104,"x_max":319,"o":"m 194 986 l 188 986 q 181 981 182 986 l 108 779 q 115 769 104 769 l 126 769 q 135 772 132 769 q 139 779 138 774 l 199 981 q 194 986 200 986 m 314 986 l 307 986 q 300 981 301 986 l 228 779 q 235 769 224 769 l 246 769 q 254 772 251 769 q 258 779 257 774 l 318 981 q 314 986 319 986 "},"”":{"ha":403,"x_min":107,"x_max":322,"o":"m 232 769 l 239 769 q 246 775 244 769 l 318 976 q 311 986 322 986 l 300 986 q 292 984 294 986 q 288 976 289 982 l 228 775 q 232 769 226 769 m 113 769 l 119 769 q 126 775 125 769 l 199 976 q 192 986 203 986 l 181 986 q 172 984 175 986 q 168 976 169 982 l 108 775 q 113 769 107 769 "},"‘":{"ha":288,"x_min":101,"x_max":197,"o":"m 192 986 l 185 986 q 178 981 179 986 l 106 779 q 113 769 101 769 l 124 769 q 132 772 129 769 q 136 779 135 774 l 196 981 q 192 986 197 986 "},"’":{"ha":283,"x_min":107,"x_max":203,"o":"m 113 769 l 119 769 q 126 775 125 769 l 199 976 q 192 986 203 986 l 181 986 q 172 984 175 986 q 168 976 169 982 l 108 775 q 113 769 107 769 "},"«":{"ha":799,"x_min":82,"x_max":704,"o":"m 85 361 l 378 68 q 388 68 383 64 l 393 74 q 393 82 397 78 l 110 365 l 393 649 q 393 658 399 654 l 388 664 q 379 664 383 668 l 85 368 q 85 361 82 365 m 390 361 l 683 68 q 693 68 689 64 l 699 74 q 699 82 703 78 l 415 365 l 699 649 q 699 658 704 654 l 693 664 q 685 664 689 668 l 390 368 q 390 361 388 365 "},"»":{"ha":799,"x_min":94,"x_max":717,"o":"m 99 74 l 104 68 q 114 68 110 64 l 407 361 q 407 368 411 365 l 113 664 q 104 664 108 668 l 99 658 q 99 649 94 654 l 382 365 l 99 82 q 99 74 94 78 m 404 74 l 410 68 q 419 68 415 64 l 713 361 q 713 368 717 365 l 418 664 q 410 664 414 668 l 404 658 q 404 649 400 654 l 688 365 l 404 82 q 404 74 400 78 "},"‹":{"ha":493,"x_min":82,"x_max":399,"o":"m 85 361 l 378 68 q 388 68 383 64 l 393 74 q 393 82 397 78 l 110 365 l 393 649 q 393 658 399 654 l 388 664 q 379 664 383 668 l 85 368 q 85 361 82 365 "},"›":{"ha":493,"x_min":94,"x_max":411,"o":"m 99 74 l 104 68 q 114 68 110 64 l 407 361 q 407 368 411 365 l 113 664 q 104 664 108 668 l 99 658 q 99 649 94 654 l 382 365 l 99 82 q 99 74 94 78 "},"\"":{"ha":382,"x_min":125,"x_max":260,"o":"m 131 689 l 135 689 q 140 694 140 689 l 149 981 q 143 986 149 986 l 131 986 q 125 981 125 986 l 125 694 q 131 689 125 689 m 242 689 l 246 689 q 251 694 251 689 l 260 981 q 254 986 260 986 l 242 986 q 236 981 236 986 l 236 694 q 242 689 236 689 "},"'":{"ha":271,"x_min":126,"x_max":150,"o":"m 132 689 l 136 689 q 142 694 142 689 l 150 981 q 144 986 150 986 l 132 986 q 126 981 126 986 l 126 694 q 132 689 126 689 "}," ":{"ha":353,"x_min":0,"x_max":0,"o":""}}}
